<svg width="313" height="307" viewBox="0 0 313 307" fill="none" xmlns="http://www.w3.org/2000/svg">
<g filter="url(#filter0_d)">
<rect width="293" height="287" rx="40" fill="white"/>
</g>
<path d="M53.408 238L58.976 220.24H63.464L69.032 238H65.336L64.208 234.28H58.16L57.056 238H53.408ZM59 231.088H63.368L61.184 223.288L59 231.088ZM74.6701 238.144C73.6621 238.144 72.8141 237.936 72.1261 237.52C71.4381 237.088 70.9181 236.4 70.5661 235.456C70.2301 234.496 70.0621 233.24 70.0621 231.688C70.0621 230.088 70.2061 228.792 70.4941 227.8C70.7981 226.808 71.3021 226.08 72.0061 225.616C72.7101 225.152 73.6781 224.92 74.9101 224.92C75.5021 224.92 76.0861 224.984 76.6621 225.112C77.2381 225.224 77.7501 225.36 78.1981 225.52V219.688H81.7741V238H78.7741L78.1981 236.776C77.9261 237.032 77.5901 237.264 77.1901 237.472C76.8061 237.68 76.3981 237.848 75.9661 237.976C75.5341 238.088 75.1021 238.144 74.6701 238.144ZM75.9181 235.288C76.3981 235.288 76.8301 235.208 77.2141 235.048C77.6141 234.888 77.9421 234.728 78.1981 234.568V228.088C77.8781 227.976 77.5421 227.864 77.1901 227.752C76.8381 227.64 76.4621 227.584 76.0621 227.584C75.4701 227.584 74.9901 227.688 74.6221 227.896C74.2701 228.104 74.0141 228.496 73.8541 229.072C73.6941 229.632 73.6141 230.448 73.6141 231.52C73.6141 232.512 73.6861 233.288 73.8301 233.848C73.9901 234.392 74.2381 234.768 74.5741 234.976C74.9101 235.184 75.3581 235.288 75.9181 235.288ZM87.6783 238L83.3583 225.112H87.0303L89.8143 234.712L92.6703 225.112H96.2943L91.7823 238H87.6783ZM100.252 238.144C99.2764 238.144 98.4844 237.856 97.8764 237.28C97.2684 236.704 96.9644 235.904 96.9644 234.88V233.728C96.9644 232.752 97.3084 231.952 97.9964 231.328C98.6844 230.688 99.7564 230.368 101.212 230.368H104.5V229.48C104.5 229.08 104.428 228.752 104.284 228.496C104.14 228.224 103.868 228.032 103.468 227.92C103.084 227.792 102.492 227.728 101.692 227.728H97.8284V225.664C98.4524 225.472 99.1724 225.304 99.9884 225.16C100.82 225.016 101.82 224.944 102.988 224.944C104.06 224.944 104.972 225.072 105.724 225.328C106.492 225.584 107.068 226.024 107.452 226.648C107.852 227.272 108.052 228.136 108.052 229.24V238H105.244L104.668 236.632C104.556 236.76 104.364 236.904 104.092 237.064C103.82 237.224 103.484 237.392 103.084 237.568C102.7 237.728 102.26 237.864 101.764 237.976C101.284 238.088 100.78 238.144 100.252 238.144ZM102.052 235.672C102.212 235.672 102.388 235.656 102.58 235.624C102.788 235.576 102.996 235.528 103.204 235.48C103.428 235.416 103.628 235.36 103.804 235.312C103.996 235.248 104.148 235.192 104.26 235.144C104.388 235.096 104.468 235.064 104.5 235.048V232.048L102.34 232.192C101.716 232.24 101.252 232.4 100.948 232.672C100.66 232.944 100.516 233.312 100.516 233.776V234.304C100.516 234.624 100.58 234.888 100.708 235.096C100.852 235.304 101.036 235.456 101.26 235.552C101.5 235.632 101.764 235.672 102.052 235.672ZM110.712 238V225.112H113.64L114.264 226.432C114.744 226.032 115.344 225.68 116.064 225.376C116.8 225.056 117.552 224.896 118.32 224.896C119.376 224.896 120.192 225.104 120.768 225.52C121.344 225.936 121.744 226.496 121.968 227.2C122.208 227.888 122.328 228.656 122.328 229.504V238H118.776V229.96C118.776 229.544 118.696 229.2 118.536 228.928C118.392 228.656 118.184 228.448 117.912 228.304C117.64 228.16 117.312 228.088 116.928 228.088C116.592 228.088 116.264 228.128 115.944 228.208C115.64 228.288 115.344 228.4 115.056 228.544C114.784 228.688 114.52 228.856 114.264 229.048V238H110.712ZM130.001 238.144C129.217 238.144 128.489 238.04 127.817 237.832C127.161 237.624 126.593 237.28 126.113 236.8C125.633 236.304 125.257 235.64 124.985 234.808C124.729 233.96 124.601 232.896 124.601 231.616C124.601 230.304 124.721 229.216 124.961 228.352C125.201 227.488 125.553 226.808 126.017 226.312C126.497 225.8 127.081 225.44 127.769 225.232C128.457 225.024 129.233 224.92 130.097 224.92C130.881 224.92 131.625 224.968 132.329 225.064C133.049 225.144 133.801 225.296 134.585 225.52V227.56H131.201C130.465 227.56 129.873 227.672 129.425 227.896C128.977 228.104 128.649 228.504 128.441 229.096C128.249 229.672 128.153 230.504 128.153 231.592C128.153 232.664 128.249 233.48 128.441 234.04C128.649 234.6 128.977 234.976 129.425 235.168C129.889 235.36 130.497 235.456 131.249 235.456H134.777V237.472C134.377 237.6 133.913 237.72 133.385 237.832C132.857 237.928 132.297 238 131.705 238.048C131.129 238.112 130.561 238.144 130.001 238.144ZM142.175 238.12C140.751 238.12 139.615 237.936 138.767 237.568C137.919 237.184 137.303 236.512 136.919 235.552C136.551 234.592 136.367 233.264 136.367 231.568C136.367 229.824 136.543 228.472 136.895 227.512C137.247 226.552 137.839 225.88 138.671 225.496C139.503 225.112 140.631 224.92 142.055 224.92C143.335 224.92 144.359 225.048 145.127 225.304C145.895 225.56 146.447 226.008 146.783 226.648C147.135 227.288 147.311 228.192 147.311 229.36C147.311 230.224 147.135 230.912 146.783 231.424C146.447 231.92 145.967 232.28 145.343 232.504C144.719 232.712 143.983 232.816 143.135 232.816H139.895C139.927 233.472 140.023 234 140.183 234.4C140.359 234.784 140.671 235.064 141.119 235.24C141.583 235.4 142.247 235.48 143.111 235.48H146.879V237.568C146.255 237.696 145.567 237.824 144.815 237.952C144.079 238.064 143.199 238.12 142.175 238.12ZM139.847 230.704H142.775C143.255 230.704 143.607 230.608 143.831 230.416C144.055 230.224 144.167 229.88 144.167 229.384C144.167 228.92 144.095 228.552 143.951 228.28C143.807 227.992 143.583 227.792 143.279 227.68C142.975 227.552 142.567 227.488 142.055 227.488C141.511 227.488 141.079 227.584 140.759 227.776C140.439 227.952 140.207 228.272 140.063 228.736C139.919 229.2 139.847 229.856 139.847 230.704ZM153.865 238.144C152.857 238.144 152.009 237.936 151.321 237.52C150.633 237.088 150.113 236.4 149.761 235.456C149.425 234.496 149.257 233.24 149.257 231.688C149.257 230.088 149.401 228.792 149.689 227.8C149.993 226.808 150.497 226.08 151.201 225.616C151.905 225.152 152.873 224.92 154.105 224.92C154.697 224.92 155.281 224.984 155.857 225.112C156.433 225.224 156.945 225.36 157.393 225.52V219.688H160.969V238H157.969L157.393 236.776C157.121 237.032 156.785 237.264 156.385 237.472C156.001 237.68 155.593 237.848 155.161 237.976C154.729 238.088 154.297 238.144 153.865 238.144ZM155.113 235.288C155.593 235.288 156.025 235.208 156.409 235.048C156.809 234.888 157.137 234.728 157.393 234.568V228.088C157.073 227.976 156.737 227.864 156.385 227.752C156.033 227.64 155.657 227.584 155.257 227.584C154.665 227.584 154.185 227.688 153.817 227.896C153.465 228.104 153.209 228.496 153.049 229.072C152.889 229.632 152.809 230.448 152.809 231.52C152.809 232.512 152.881 233.288 153.025 233.848C153.185 234.392 153.433 234.768 153.769 234.976C154.105 235.184 154.553 235.288 155.113 235.288ZM173.709 238V223.432H168.837V220.24H182.157V223.432H177.261V238H173.709ZM183.907 238V219.712H187.459V226.432C187.923 226.048 188.523 225.696 189.259 225.376C190.011 225.056 190.779 224.896 191.563 224.896C192.539 224.896 193.315 225.088 193.891 225.472C194.467 225.856 194.883 226.392 195.139 227.08C195.395 227.768 195.523 228.568 195.523 229.48V238H191.971V229.936C191.971 229.52 191.891 229.176 191.731 228.904C191.571 228.632 191.355 228.432 191.083 228.304C190.811 228.16 190.491 228.088 190.123 228.088C189.787 228.088 189.459 228.136 189.139 228.232C188.835 228.312 188.539 228.424 188.251 228.568C187.979 228.712 187.715 228.872 187.459 229.048V238H183.907ZM203.605 238.12C202.181 238.12 201.045 237.936 200.197 237.568C199.349 237.184 198.733 236.512 198.349 235.552C197.981 234.592 197.797 233.264 197.797 231.568C197.797 229.824 197.973 228.472 198.325 227.512C198.677 226.552 199.269 225.88 200.101 225.496C200.933 225.112 202.061 224.92 203.485 224.92C204.765 224.92 205.789 225.048 206.557 225.304C207.325 225.56 207.877 226.008 208.213 226.648C208.565 227.288 208.741 228.192 208.741 229.36C208.741 230.224 208.565 230.912 208.213 231.424C207.877 231.92 207.397 232.28 206.773 232.504C206.149 232.712 205.413 232.816 204.565 232.816H201.325C201.357 233.472 201.453 234 201.613 234.4C201.789 234.784 202.101 235.064 202.549 235.24C203.013 235.4 203.677 235.48 204.541 235.48H208.309V237.568C207.685 237.696 206.997 237.824 206.245 237.952C205.509 238.064 204.629 238.12 203.605 238.12ZM201.277 230.704H204.205C204.685 230.704 205.037 230.608 205.261 230.416C205.485 230.224 205.597 229.88 205.597 229.384C205.597 228.92 205.525 228.552 205.381 228.28C205.237 227.992 205.013 227.792 204.709 227.68C204.405 227.552 203.997 227.488 203.485 227.488C202.941 227.488 202.509 227.584 202.189 227.776C201.869 227.952 201.637 228.272 201.493 228.736C201.349 229.2 201.277 229.856 201.277 230.704ZM216.591 238.12C215.535 238.12 214.631 238.016 213.879 237.808C213.127 237.584 212.511 237.216 212.031 236.704C211.567 236.192 211.223 235.512 210.999 234.664C210.791 233.816 210.687 232.768 210.687 231.52C210.687 230.208 210.791 229.128 210.999 228.28C211.223 227.416 211.567 226.744 212.031 226.264C212.511 225.768 213.127 225.424 213.879 225.232C214.647 225.024 215.551 224.92 216.591 224.92C217.663 224.92 218.575 225.024 219.327 225.232C220.079 225.44 220.687 225.792 221.151 226.288C221.631 226.768 221.975 227.44 222.183 228.304C222.407 229.152 222.519 230.224 222.519 231.52C222.519 232.8 222.415 233.872 222.207 234.736C221.999 235.584 221.663 236.256 221.199 236.752C220.735 237.248 220.119 237.6 219.351 237.808C218.599 238.016 217.679 238.12 216.591 238.12ZM216.591 235.288C217.023 235.288 217.383 235.248 217.671 235.168C217.975 235.088 218.215 234.928 218.391 234.688C218.583 234.432 218.727 234.048 218.823 233.536C218.919 233.024 218.967 232.352 218.967 231.52C218.967 230.672 218.919 230 218.823 229.504C218.727 228.992 218.583 228.616 218.391 228.376C218.215 228.12 217.975 227.952 217.671 227.872C217.383 227.792 217.023 227.752 216.591 227.752C216.175 227.752 215.815 227.792 215.511 227.872C215.223 227.952 214.983 228.12 214.791 228.376C214.599 228.616 214.455 228.992 214.359 229.504C214.279 230 214.239 230.672 214.239 231.52C214.239 232.352 214.279 233.024 214.359 233.536C214.455 234.048 214.599 234.432 214.791 234.688C214.983 234.928 215.223 235.088 215.511 235.168C215.815 235.248 216.175 235.288 216.591 235.288ZM224.876 238V225.112H227.612L228.428 227.08C228.892 226.488 229.412 225.984 229.988 225.568C230.58 225.152 231.276 224.944 232.076 224.944C232.252 224.944 232.428 224.952 232.604 224.968C232.796 224.984 232.972 225.016 233.132 225.064V228.712C232.892 228.68 232.636 228.656 232.364 228.64C232.108 228.608 231.86 228.592 231.62 228.592C231.156 228.592 230.732 228.648 230.348 228.76C229.98 228.856 229.636 229.008 229.316 229.216C229.012 229.408 228.716 229.664 228.428 229.984V238H224.876ZM239.056 243.688L240.448 238C239.728 238 239.096 237.864 238.552 237.592C238.008 237.32 237.552 236.936 237.184 236.44C236.832 235.928 236.56 235.296 236.368 234.544L233.944 225.112H237.64L239.68 233.824C239.76 234.128 239.864 234.368 239.992 234.544C240.12 234.72 240.256 234.848 240.4 234.928C240.544 234.992 240.672 235.04 240.784 235.072C240.912 235.088 241.008 235.096 241.072 235.096L243.4 225.112H247L243.16 241.312L242.008 243.688H239.056Z" fill="#37679F"/>
<path d="M122.833 138.5H156.667V148.167H122.833V138.5ZM122.833 119.167H171.167V128.833H122.833V119.167ZM122.833 99.8335H171.167V109.5H122.833V99.8335ZM180.833 80.5002H160.63C158.6 74.8935 153.283 70.8335 147 70.8335C140.717 70.8335 135.4 74.8935 133.37 80.5002H113.167C112.49 80.5002 111.862 80.5485 111.233 80.6935C109.348 81.0802 107.657 82.0468 106.352 83.3518C105.482 84.2218 104.757 85.2852 104.273 86.4452C103.79 87.5568 103.5 88.8135 103.5 90.1668V157.833C103.5 159.138 103.79 160.443 104.273 161.603C104.757 162.763 105.482 163.778 106.352 164.697C107.657 166.002 109.348 166.968 111.233 167.355C111.862 167.452 112.49 167.5 113.167 167.5H180.833C186.15 167.5 190.5 163.15 190.5 157.833V90.1668C190.5 84.8502 186.15 80.5002 180.833 80.5002ZM147 79.2918C148.982 79.2918 150.625 80.9352 150.625 82.9168C150.625 84.8985 148.982 86.5418 147 86.5418C145.018 86.5418 143.375 84.8985 143.375 82.9168C143.375 80.9352 145.018 79.2918 147 79.2918ZM180.833 157.833H113.167V90.1668H180.833V157.833Z" fill="#0561AD"/>
<defs>
<filter id="filter0_d" x="0" y="0" width="313" height="307" filterUnits="userSpaceOnUse" color-interpolation-filters="sRGB">
<feFlood flood-opacity="0" result="BackgroundImageFix"/>
<feColorMatrix in="SourceAlpha" type="matrix" values="0 0 0 0 0 0 0 0 0 0 0 0 0 0 0 0 0 0 127 0"/>
<feOffset dx="10" dy="10"/>
<feGaussianBlur stdDeviation="5"/>
<feColorMatrix type="matrix" values="0 0 0 0 0 0 0 0 0 0 0 0 0 0 0 0 0 0 0.25 0"/>
<feBlend mode="normal" in2="BackgroundImageFix" result="effect1_dropShadow"/>
<feBlend mode="normal" in="SourceGraphic" in2="effect1_dropShadow" result="shape"/>
</filter>
</defs>
</svg>
