<svg width="385" height="234" viewBox="0 0 385 234" fill="none" xmlns="http://www.w3.org/2000/svg">
<g filter="url(#filter0_d)">
<rect width="376" height="225" rx="31" fill="white"/>
</g>
<path d="M28.408 47.3911L33.976 29.6311H38.464L44.032 47.3911H40.336L39.208 43.6711H33.16L32.056 47.3911H28.408ZM34 40.4791H38.368L36.184 32.6791L34 40.4791ZM50.4777 47.5351C50.0777 47.5351 49.6457 47.5191 49.1817 47.4871C48.7177 47.4711 48.2537 47.4391 47.7897 47.3911C47.3257 47.3431 46.8937 47.2871 46.4937 47.2231C46.0937 47.1431 45.7577 47.0551 45.4857 46.9591V44.8711H51.1977C51.5337 44.8711 51.8057 44.8471 52.0137 44.7991C52.2377 44.7351 52.3977 44.6311 52.4937 44.4871C52.6057 44.3271 52.6617 44.1031 52.6617 43.8151V43.4071C52.6617 43.0871 52.5577 42.8391 52.3497 42.6631C52.1417 42.4871 51.7577 42.3991 51.1977 42.3991H49.1817C48.4457 42.3991 47.7817 42.2871 47.1897 42.0631C46.5977 41.8391 46.1257 41.4711 45.7737 40.9591C45.4377 40.4471 45.2697 39.7591 45.2697 38.8951V38.1511C45.2697 37.3351 45.4297 36.6471 45.7497 36.0871C46.0697 35.5271 46.6057 35.1031 47.3577 34.8151C48.1097 34.5271 49.1417 34.3831 50.4537 34.3831C50.9817 34.3831 51.5417 34.4151 52.1337 34.4791C52.7417 34.5271 53.3097 34.5991 53.8377 34.6951C54.3817 34.7751 54.8137 34.8711 55.1337 34.9831V37.0711H49.7337C49.2697 37.0711 48.9177 37.1511 48.6777 37.3111C48.4377 37.4551 48.3177 37.7351 48.3177 38.1511V38.5351C48.3177 38.8231 48.3737 39.0391 48.4857 39.1831C48.5977 39.3111 48.7657 39.4071 48.9897 39.4711C49.2297 39.5191 49.5257 39.5431 49.8777 39.5431H51.9417C53.2537 39.5431 54.2057 39.8471 54.7977 40.4551C55.4057 41.0471 55.7097 41.8711 55.7097 42.9271V44.0791C55.7097 44.9431 55.5017 45.6311 55.0857 46.1431C54.6857 46.6391 54.0937 46.9991 53.3097 47.2231C52.5417 47.4311 51.5977 47.5351 50.4777 47.5351ZM57.9149 47.3911V29.0791H61.4669V38.9671H62.9789L65.8109 34.5031H69.4109L65.6189 40.5751L69.7949 47.3911H66.1949L62.9309 42.1831H61.4669V47.3911H57.9149ZM81.7834 47.3911V42.0151L76.4314 29.6311H80.1274L83.6314 38.3911L87.1114 29.6311H90.6634L85.3354 42.0151V47.3911H81.7834ZM96.2943 47.5111C95.2383 47.5111 94.3343 47.4071 93.5823 47.1991C92.8303 46.9751 92.2143 46.6071 91.7343 46.0951C91.2703 45.5831 90.9263 44.9031 90.7023 44.0551C90.4943 43.2071 90.3903 42.1591 90.3903 40.9111C90.3903 39.5991 90.4943 38.5191 90.7023 37.6711C90.9263 36.8071 91.2703 36.1351 91.7343 35.6551C92.2143 35.1591 92.8303 34.8151 93.5823 34.6231C94.3503 34.4151 95.2543 34.3111 96.2943 34.3111C97.3663 34.3111 98.2783 34.4151 99.0303 34.6231C99.7823 34.8311 100.39 35.1831 100.854 35.6791C101.334 36.1591 101.678 36.8311 101.886 37.6951C102.11 38.5431 102.222 39.6151 102.222 40.9111C102.222 42.1911 102.118 43.2631 101.91 44.1271C101.702 44.9751 101.366 45.6471 100.902 46.1431C100.438 46.6391 99.8223 46.9911 99.0543 47.1991C98.3023 47.4071 97.3823 47.5111 96.2943 47.5111ZM96.2943 44.6791C96.7263 44.6791 97.0863 44.6391 97.3743 44.5591C97.6783 44.4791 97.9183 44.3191 98.0943 44.0791C98.2863 43.8231 98.4303 43.4391 98.5263 42.9271C98.6223 42.4151 98.6703 41.7431 98.6703 40.9111C98.6703 40.0631 98.6223 39.3911 98.5263 38.8951C98.4303 38.3831 98.2863 38.0071 98.0943 37.7671C97.9183 37.5111 97.6783 37.3431 97.3743 37.2631C97.0863 37.1831 96.7263 37.1431 96.2943 37.1431C95.8783 37.1431 95.5183 37.1831 95.2143 37.2631C94.9263 37.3431 94.6863 37.5111 94.4943 37.7671C94.3023 38.0071 94.1583 38.3831 94.0623 38.8951C93.9823 39.3911 93.9423 40.0631 93.9423 40.9111C93.9423 41.7431 93.9823 42.4151 94.0623 42.9271C94.1583 43.4391 94.3023 43.8231 94.4943 44.0791C94.6863 44.3191 94.9263 44.4791 95.2143 44.5591C95.5183 44.6391 95.8783 44.6791 96.2943 44.6791ZM108.227 47.5351C107.075 47.5351 106.171 47.1991 105.515 46.5271C104.859 45.8391 104.531 44.8711 104.531 43.6231V34.5031H108.083V42.5671C108.083 43.2871 108.251 43.7751 108.587 44.0311C108.939 44.2711 109.395 44.3911 109.955 44.3911C110.403 44.3911 110.859 44.3111 111.323 44.1511C111.803 43.9751 112.227 43.7431 112.595 43.4551V34.5031H116.171V47.3911H113.219L112.595 46.0711C112.019 46.4551 111.355 46.7991 110.603 47.1031C109.851 47.3911 109.059 47.5351 108.227 47.5351ZM118.852 47.3911V34.5031H121.588L122.404 36.4711C122.868 35.8791 123.388 35.3751 123.964 34.9591C124.556 34.5431 125.252 34.3351 126.052 34.3351C126.228 34.3351 126.404 34.3431 126.58 34.3591C126.772 34.3751 126.948 34.4071 127.108 34.4551V38.1031C126.868 38.0711 126.612 38.0471 126.34 38.0311C126.084 37.9991 125.836 37.9831 125.596 37.9831C125.132 37.9831 124.708 38.0391 124.324 38.1511C123.956 38.2471 123.612 38.3991 123.292 38.6071C122.988 38.7991 122.692 39.0551 122.404 39.3751V47.3911H118.852ZM135.356 47.3911V29.6311H142.868C144.068 29.6311 145.068 29.8471 145.868 30.2791C146.668 30.6951 147.3 31.3031 147.764 32.1031C148.244 32.8871 148.58 33.8231 148.772 34.9111C148.964 35.9991 149.06 37.1991 149.06 38.5111C149.06 40.5111 148.828 42.1671 148.364 43.4791C147.916 44.7911 147.236 45.7751 146.324 46.4311C145.412 47.0711 144.26 47.3911 142.868 47.3911H135.356ZM138.908 44.1991H142.508C143.244 44.1991 143.828 43.9911 144.26 43.5751C144.692 43.1431 145.004 42.5031 145.196 41.6551C145.404 40.8071 145.508 39.7591 145.508 38.5111C145.508 37.3591 145.444 36.4151 145.316 35.6791C145.188 34.9271 144.996 34.3431 144.74 33.9271C144.5 33.5111 144.188 33.2231 143.804 33.0631C143.436 32.9031 143.004 32.8231 142.508 32.8231H138.908V44.1991ZM156.786 47.5111C155.73 47.5111 154.826 47.4071 154.074 47.1991C153.322 46.9751 152.706 46.6071 152.226 46.0951C151.762 45.5831 151.418 44.9031 151.194 44.0551C150.986 43.2071 150.882 42.1591 150.882 40.9111C150.882 39.5991 150.986 38.5191 151.194 37.6711C151.418 36.8071 151.762 36.1351 152.226 35.6551C152.706 35.1591 153.322 34.8151 154.074 34.6231C154.842 34.4151 155.746 34.3111 156.786 34.3111C157.858 34.3111 158.77 34.4151 159.522 34.6231C160.274 34.8311 160.882 35.1831 161.346 35.6791C161.826 36.1591 162.17 36.8311 162.378 37.6951C162.602 38.5431 162.714 39.6151 162.714 40.9111C162.714 42.1911 162.61 43.2631 162.402 44.1271C162.194 44.9751 161.858 45.6471 161.394 46.1431C160.93 46.6391 160.314 46.9911 159.546 47.1991C158.794 47.4071 157.874 47.5111 156.786 47.5111ZM156.786 44.6791C157.218 44.6791 157.578 44.6391 157.866 44.5591C158.17 44.4791 158.41 44.3191 158.586 44.0791C158.778 43.8231 158.922 43.4391 159.018 42.9271C159.114 42.4151 159.162 41.7431 159.162 40.9111C159.162 40.0631 159.114 39.3911 159.018 38.8951C158.922 38.3831 158.778 38.0071 158.586 37.7671C158.41 37.5111 158.17 37.3431 157.866 37.2631C157.578 37.1831 157.218 37.1431 156.786 37.1431C156.37 37.1431 156.01 37.1831 155.706 37.2631C155.418 37.3431 155.178 37.5111 154.986 37.7671C154.794 38.0071 154.65 38.3831 154.554 38.8951C154.474 39.3911 154.434 40.0631 154.434 40.9111C154.434 41.7431 154.474 42.4151 154.554 42.9271C154.65 43.4391 154.794 43.8231 154.986 44.0791C155.178 44.3191 155.418 44.4791 155.706 44.5591C156.01 44.6391 156.37 44.6791 156.786 44.6791ZM168.719 47.5351C167.567 47.5351 166.663 47.1991 166.007 46.5271C165.351 45.8391 165.023 44.8711 165.023 43.6231V34.5031H168.575V42.5671C168.575 43.2871 168.743 43.7751 169.079 44.0311C169.431 44.2711 169.887 44.3911 170.447 44.3911C170.895 44.3911 171.351 44.3111 171.815 44.1511C172.295 43.9751 172.719 43.7431 173.087 43.4551V34.5031H176.663V47.3911H173.711L173.087 46.0711C172.511 46.4551 171.847 46.7991 171.095 47.1031C170.343 47.3911 169.551 47.5351 168.719 47.5351ZM186.641 47.5351C186.081 47.5351 185.577 47.4711 185.129 47.3431C184.681 47.2151 184.273 47.0471 183.905 46.8391C183.553 46.6311 183.217 46.4071 182.897 46.1671L182.321 47.3911H179.345V29.0791H182.897V35.3911C183.409 35.1191 183.985 34.8711 184.625 34.6471C185.265 34.4231 185.881 34.3111 186.473 34.3111C187.577 34.3111 188.457 34.5431 189.113 35.0071C189.785 35.4711 190.273 36.1991 190.577 37.1911C190.881 38.1671 191.033 39.4631 191.033 41.0791C191.033 42.5191 190.873 43.7191 190.553 44.6791C190.249 45.6391 189.769 46.3591 189.113 46.8391C188.473 47.3031 187.649 47.5351 186.641 47.5351ZM185.321 44.6311C185.737 44.6311 186.105 44.5271 186.425 44.3191C186.761 44.0951 187.017 43.7111 187.193 43.1671C187.385 42.6231 187.481 41.8711 187.481 40.9111C187.481 39.7911 187.377 38.9751 187.169 38.4631C186.977 37.9351 186.713 37.5911 186.377 37.4311C186.057 37.2551 185.705 37.1671 185.321 37.1671C184.841 37.1671 184.393 37.2471 183.977 37.4071C183.577 37.5511 183.217 37.7111 182.897 37.8871V44.0071C183.201 44.1671 183.545 44.3111 183.929 44.4391C184.329 44.5671 184.793 44.6311 185.321 44.6311ZM198.28 47.3911C197.288 47.3911 196.48 47.2471 195.856 46.9591C195.248 46.6711 194.808 46.1911 194.536 45.5191C194.264 44.8471 194.144 43.9431 194.176 42.8071L194.296 37.3591H192.28V35.0791L194.416 34.5031L194.896 30.9031H197.704V34.5031H200.728V37.3591H197.704V42.7831C197.704 43.1351 197.736 43.4231 197.8 43.6471C197.864 43.8711 197.952 44.0551 198.064 44.1991C198.192 44.3271 198.336 44.4231 198.496 44.4871C198.656 44.5511 198.816 44.5911 198.976 44.6071L200.608 44.7511V47.3911H198.28ZM207.392 47.5351C206.992 47.5351 206.56 47.5191 206.096 47.4871C205.632 47.4711 205.168 47.4391 204.704 47.3911C204.24 47.3431 203.808 47.2871 203.408 47.2231C203.008 47.1431 202.672 47.0551 202.4 46.9591V44.8711H208.112C208.448 44.8711 208.72 44.8471 208.928 44.7991C209.152 44.7351 209.312 44.6311 209.408 44.4871C209.52 44.3271 209.576 44.1031 209.576 43.8151V43.4071C209.576 43.0871 209.472 42.8391 209.264 42.6631C209.056 42.4871 208.672 42.3991 208.112 42.3991H206.096C205.36 42.3991 204.696 42.2871 204.104 42.0631C203.512 41.8391 203.04 41.4711 202.688 40.9591C202.352 40.4471 202.184 39.7591 202.184 38.8951V38.1511C202.184 37.3351 202.344 36.6471 202.664 36.0871C202.984 35.5271 203.52 35.1031 204.272 34.8151C205.024 34.5271 206.056 34.3831 207.368 34.3831C207.896 34.3831 208.456 34.4151 209.048 34.4791C209.656 34.5271 210.224 34.5991 210.752 34.6951C211.296 34.7751 211.728 34.8711 212.048 34.9831V37.0711H206.648C206.184 37.0711 205.832 37.1511 205.592 37.3111C205.352 37.4551 205.232 37.7351 205.232 38.1511V38.5351C205.232 38.8231 205.288 39.0391 205.4 39.1831C205.512 39.3111 205.68 39.4071 205.904 39.4711C206.144 39.5191 206.44 39.5431 206.792 39.5431H208.856C210.168 39.5431 211.12 39.8471 211.712 40.4551C212.32 41.0471 212.624 41.8711 212.624 42.9271V44.0791C212.624 44.9431 212.416 45.6311 212 46.1431C211.6 46.6391 211.008 46.9991 210.224 47.2231C209.456 47.4311 208.512 47.5351 207.392 47.5351Z" fill="#37679F"/>
<path d="M206.512 193.144C205.472 193.144 204.552 193.024 203.752 192.784C202.968 192.544 202.296 192.104 201.736 191.464C201.192 190.824 200.776 189.912 200.488 188.728C200.216 187.528 200.08 185.976 200.08 184.072C200.08 182.232 200.224 180.728 200.512 179.56C200.816 178.376 201.248 177.464 201.808 176.824C202.368 176.168 203.048 175.712 203.848 175.456C204.648 175.2 205.552 175.072 206.56 175.072C207.36 175.072 208.104 175.12 208.792 175.216C209.496 175.296 210.128 175.4 210.688 175.528C211.248 175.64 211.72 175.768 212.104 175.912V178.672C211.816 178.608 211.424 178.544 210.928 178.48C210.448 178.416 209.896 178.368 209.272 178.336C208.648 178.288 207.992 178.264 207.304 178.264C206.632 178.264 206.056 178.344 205.576 178.504C205.112 178.648 204.736 178.928 204.448 179.344C204.176 179.744 203.968 180.328 203.824 181.096C203.696 181.864 203.632 182.864 203.632 184.096C203.632 185.28 203.688 186.256 203.8 187.024C203.928 187.792 204.128 188.392 204.4 188.824C204.672 189.24 205.04 189.536 205.504 189.712C205.984 189.872 206.584 189.952 207.304 189.952C208.52 189.952 209.504 189.928 210.256 189.88C211.024 189.832 211.64 189.776 212.104 189.712V192.448C211.672 192.592 211.176 192.72 210.616 192.832C210.056 192.928 209.44 193 208.768 193.048C208.096 193.112 207.344 193.144 206.512 193.144ZM219.716 193.12C218.66 193.12 217.756 193.016 217.004 192.808C216.252 192.584 215.636 192.216 215.156 191.704C214.692 191.192 214.348 190.512 214.124 189.664C213.916 188.816 213.812 187.768 213.812 186.52C213.812 185.208 213.916 184.128 214.124 183.28C214.348 182.416 214.692 181.744 215.156 181.264C215.636 180.768 216.252 180.424 217.004 180.232C217.772 180.024 218.676 179.92 219.716 179.92C220.788 179.92 221.7 180.024 222.452 180.232C223.204 180.44 223.812 180.792 224.276 181.288C224.756 181.768 225.1 182.44 225.308 183.304C225.532 184.152 225.644 185.224 225.644 186.52C225.644 187.8 225.54 188.872 225.332 189.736C225.124 190.584 224.788 191.256 224.324 191.752C223.86 192.248 223.244 192.6 222.476 192.808C221.724 193.016 220.804 193.12 219.716 193.12ZM219.716 190.288C220.148 190.288 220.508 190.248 220.796 190.168C221.1 190.088 221.34 189.928 221.516 189.688C221.708 189.432 221.852 189.048 221.948 188.536C222.044 188.024 222.092 187.352 222.092 186.52C222.092 185.672 222.044 185 221.948 184.504C221.852 183.992 221.708 183.616 221.516 183.376C221.34 183.12 221.1 182.952 220.796 182.872C220.508 182.792 220.148 182.752 219.716 182.752C219.3 182.752 218.94 182.792 218.636 182.872C218.348 182.952 218.108 183.12 217.916 183.376C217.724 183.616 217.58 183.992 217.484 184.504C217.404 185 217.364 185.672 217.364 186.52C217.364 187.352 217.404 188.024 217.484 188.536C217.58 189.048 217.724 189.432 217.916 189.688C218.108 189.928 218.348 190.088 218.636 190.168C218.94 190.248 219.3 190.288 219.716 190.288ZM228.001 193V180.112H230.929L231.553 181.432C232.113 181.016 232.721 180.656 233.377 180.352C234.049 180.048 234.873 179.896 235.849 179.896C236.665 179.896 237.337 180.064 237.865 180.4C238.409 180.736 238.817 181.176 239.089 181.72C239.457 181.432 239.881 181.152 240.361 180.88C240.857 180.608 241.385 180.376 241.945 180.184C242.505 179.992 243.057 179.896 243.601 179.896C244.641 179.896 245.457 180.096 246.049 180.496C246.657 180.88 247.081 181.432 247.321 182.152C247.561 182.856 247.681 183.688 247.681 184.648V193H244.129V184.96C244.129 184.544 244.049 184.2 243.889 183.928C243.745 183.656 243.537 183.448 243.265 183.304C242.993 183.16 242.665 183.088 242.281 183.088C241.801 183.088 241.313 183.192 240.817 183.4C240.337 183.592 239.905 183.824 239.521 184.096C239.553 184.256 239.577 184.416 239.593 184.576C239.609 184.72 239.617 184.872 239.617 185.032V193H236.065V184.96C236.065 184.544 235.985 184.2 235.825 183.928C235.681 183.656 235.473 183.448 235.201 183.304C234.929 183.16 234.601 183.088 234.217 183.088C233.881 183.088 233.553 183.128 233.233 183.208C232.929 183.288 232.633 183.4 232.345 183.544C232.073 183.688 231.809 183.856 231.553 184.048V193H228.001ZM250.769 178.216C250.433 178.216 250.265 178.056 250.265 177.736V175.384C250.265 175.048 250.433 174.88 250.769 174.88H253.505C253.649 174.88 253.761 174.928 253.841 175.024C253.921 175.12 253.961 175.24 253.961 175.384V177.736C253.961 178.056 253.809 178.216 253.505 178.216H250.769ZM250.337 193V180.112H253.889V193H250.337ZM256.618 193V180.112H259.546L260.17 181.432C260.65 181.032 261.25 180.68 261.97 180.376C262.706 180.056 263.458 179.896 264.226 179.896C265.282 179.896 266.098 180.104 266.674 180.52C267.25 180.936 267.65 181.496 267.874 182.2C268.114 182.888 268.234 183.656 268.234 184.504V193H264.682V184.96C264.682 184.544 264.602 184.2 264.442 183.928C264.298 183.656 264.09 183.448 263.818 183.304C263.546 183.16 263.218 183.088 262.834 183.088C262.498 183.088 262.17 183.128 261.85 183.208C261.546 183.288 261.25 183.4 260.962 183.544C260.69 183.688 260.426 183.856 260.17 184.048V193H256.618ZM274.227 198.952C273.411 198.952 272.683 198.832 272.043 198.592C271.419 198.352 270.923 198 270.555 197.536C270.187 197.088 270.003 196.528 270.003 195.856V195.472C270.003 194.784 270.195 194.192 270.579 193.696C270.979 193.216 271.491 192.848 272.115 192.592C272.739 192.336 273.403 192.208 274.107 192.208L275.163 193.312C274.811 193.312 274.499 193.368 274.227 193.48C273.955 193.592 273.739 193.752 273.579 193.96C273.435 194.184 273.363 194.456 273.363 194.776V195.04C273.363 195.504 273.523 195.856 273.843 196.096C274.163 196.336 274.619 196.456 275.211 196.456H277.659C278.251 196.456 278.723 196.336 279.075 196.096C279.443 195.872 279.627 195.528 279.627 195.064V194.68C279.627 194.392 279.555 194.144 279.411 193.936C279.283 193.744 279.083 193.592 278.811 193.48C278.555 193.368 278.203 193.312 277.755 193.312H274.899C273.459 193.312 272.387 193.048 271.683 192.52C270.995 191.976 270.651 191.312 270.651 190.528C270.651 189.872 270.835 189.328 271.203 188.896C271.587 188.448 272.115 188.152 272.787 188.008C272.275 187.736 271.867 187.408 271.563 187.024C271.259 186.624 271.043 186.2 270.915 185.752C270.787 185.288 270.723 184.808 270.723 184.312C270.723 183.368 270.915 182.584 271.299 181.96C271.699 181.336 272.291 180.872 273.075 180.568C273.875 180.264 274.875 180.112 276.075 180.112H283.059V182.056L281.091 182.416C281.235 182.576 281.379 182.768 281.523 182.992C281.667 183.2 281.787 183.48 281.883 183.832C281.995 184.168 282.051 184.592 282.051 185.104C282.051 185.84 281.891 186.504 281.571 187.096C281.267 187.688 280.771 188.16 280.083 188.512C279.411 188.864 278.515 189.04 277.395 189.04H275.115C274.683 189.04 274.331 189.104 274.059 189.232C273.787 189.36 273.651 189.592 273.651 189.928C273.651 190.2 273.763 190.392 273.987 190.504C274.227 190.6 274.491 190.648 274.779 190.648H278.331C279.323 190.648 280.163 190.776 280.851 191.032C281.539 191.288 282.067 191.704 282.435 192.28C282.803 192.84 282.987 193.584 282.987 194.512V194.872C282.987 196.136 282.587 197.128 281.787 197.848C280.987 198.584 279.755 198.952 278.091 198.952H274.227ZM275.619 186.376H276.987C277.483 186.376 277.859 186.304 278.115 186.16C278.387 186 278.571 185.792 278.667 185.536C278.779 185.264 278.835 184.952 278.835 184.6C278.835 184.152 278.763 183.792 278.619 183.52C278.491 183.248 278.299 183.056 278.043 182.944C277.787 182.832 277.467 182.776 277.083 182.776H275.739C275.131 182.776 274.675 182.912 274.371 183.184C274.067 183.44 273.915 183.896 273.915 184.552C273.915 185.176 274.059 185.64 274.347 185.944C274.635 186.232 275.059 186.376 275.619 186.376ZM296.568 193.144C296.104 193.144 295.624 193.128 295.128 193.096C294.648 193.08 294.152 193.048 293.64 193C293.144 192.936 292.672 192.872 292.224 192.808C291.776 192.728 291.368 192.64 291 192.544V189.736C291.48 189.784 292.024 189.824 292.632 189.856C293.24 189.888 293.872 189.912 294.528 189.928C295.184 189.944 295.808 189.952 296.4 189.952C297.008 189.952 297.528 189.904 297.96 189.808C298.408 189.696 298.752 189.512 298.992 189.256C299.232 188.984 299.352 188.616 299.352 188.152V187.504C299.352 186.976 299.192 186.576 298.872 186.304C298.568 186.016 298.128 185.872 297.552 185.872H296.04C294.344 185.872 293.04 185.504 292.128 184.768C291.232 184.016 290.784 182.744 290.784 180.952V180.088C290.784 178.36 291.28 177.096 292.272 176.296C293.264 175.496 294.68 175.096 296.52 175.096C297.176 175.096 297.824 175.128 298.464 175.192C299.12 175.256 299.744 175.336 300.336 175.432C300.944 175.512 301.464 175.6 301.896 175.696V178.504C301.16 178.456 300.336 178.408 299.424 178.36C298.528 178.312 297.696 178.288 296.928 178.288C296.384 178.288 295.896 178.344 295.464 178.456C295.048 178.552 294.728 178.744 294.504 179.032C294.28 179.32 294.168 179.728 294.168 180.256V180.736C294.168 181.36 294.344 181.808 294.696 182.08C295.048 182.352 295.568 182.488 296.256 182.488H298.008C299.08 182.488 299.96 182.688 300.648 183.088C301.352 183.472 301.872 184.008 302.208 184.696C302.56 185.384 302.736 186.168 302.736 187.048V188.056C302.736 189.448 302.472 190.512 301.944 191.248C301.432 191.984 300.712 192.488 299.784 192.76C298.872 193.016 297.8 193.144 296.568 193.144ZM310.701 193.12C309.645 193.12 308.741 193.016 307.989 192.808C307.237 192.584 306.621 192.216 306.141 191.704C305.677 191.192 305.333 190.512 305.109 189.664C304.901 188.816 304.797 187.768 304.797 186.52C304.797 185.208 304.901 184.128 305.109 183.28C305.333 182.416 305.677 181.744 306.141 181.264C306.621 180.768 307.237 180.424 307.989 180.232C308.757 180.024 309.661 179.92 310.701 179.92C311.773 179.92 312.685 180.024 313.437 180.232C314.189 180.44 314.797 180.792 315.261 181.288C315.741 181.768 316.085 182.44 316.293 183.304C316.517 184.152 316.629 185.224 316.629 186.52C316.629 187.8 316.525 188.872 316.317 189.736C316.109 190.584 315.773 191.256 315.309 191.752C314.845 192.248 314.229 192.6 313.461 192.808C312.709 193.016 311.789 193.12 310.701 193.12ZM310.701 190.288C311.133 190.288 311.493 190.248 311.781 190.168C312.085 190.088 312.325 189.928 312.501 189.688C312.693 189.432 312.837 189.048 312.933 188.536C313.029 188.024 313.077 187.352 313.077 186.52C313.077 185.672 313.029 185 312.933 184.504C312.837 183.992 312.693 183.616 312.501 183.376C312.325 183.12 312.085 182.952 311.781 182.872C311.493 182.792 311.133 182.752 310.701 182.752C310.285 182.752 309.925 182.792 309.621 182.872C309.333 182.952 309.093 183.12 308.901 183.376C308.709 183.616 308.565 183.992 308.469 184.504C308.389 185 308.349 185.672 308.349 186.52C308.349 187.352 308.389 188.024 308.469 188.536C308.565 189.048 308.709 189.432 308.901 189.688C309.093 189.928 309.333 190.088 309.621 190.168C309.925 190.248 310.285 190.288 310.701 190.288ZM324.505 193.12C323.449 193.12 322.545 193.016 321.793 192.808C321.041 192.584 320.425 192.216 319.945 191.704C319.481 191.192 319.137 190.512 318.913 189.664C318.705 188.816 318.601 187.768 318.601 186.52C318.601 185.208 318.705 184.128 318.913 183.28C319.137 182.416 319.481 181.744 319.945 181.264C320.425 180.768 321.041 180.424 321.793 180.232C322.561 180.024 323.465 179.92 324.505 179.92C325.577 179.92 326.489 180.024 327.241 180.232C327.993 180.44 328.601 180.792 329.065 181.288C329.545 181.768 329.889 182.44 330.097 183.304C330.321 184.152 330.433 185.224 330.433 186.52C330.433 187.8 330.329 188.872 330.121 189.736C329.913 190.584 329.577 191.256 329.113 191.752C328.649 192.248 328.033 192.6 327.265 192.808C326.513 193.016 325.593 193.12 324.505 193.12ZM324.505 190.288C324.937 190.288 325.297 190.248 325.585 190.168C325.889 190.088 326.129 189.928 326.305 189.688C326.497 189.432 326.641 189.048 326.737 188.536C326.833 188.024 326.881 187.352 326.881 186.52C326.881 185.672 326.833 185 326.737 184.504C326.641 183.992 326.497 183.616 326.305 183.376C326.129 183.12 325.889 182.952 325.585 182.872C325.297 182.792 324.937 182.752 324.505 182.752C324.089 182.752 323.729 182.792 323.425 182.872C323.137 182.952 322.897 183.12 322.705 183.376C322.513 183.616 322.369 183.992 322.273 184.504C322.193 185 322.153 185.672 322.153 186.52C322.153 187.352 322.193 188.024 322.273 188.536C322.369 189.048 322.513 189.432 322.705 189.688C322.897 189.928 323.137 190.088 323.425 190.168C323.729 190.248 324.089 190.288 324.505 190.288ZM332.79 193V180.112H335.718L336.342 181.432C336.822 181.032 337.422 180.68 338.142 180.376C338.878 180.056 339.63 179.896 340.398 179.896C341.454 179.896 342.27 180.104 342.846 180.52C343.422 180.936 343.822 181.496 344.046 182.2C344.286 182.888 344.406 183.656 344.406 184.504V193H340.854V184.96C340.854 184.544 340.774 184.2 340.614 183.928C340.47 183.656 340.262 183.448 339.99 183.304C339.718 183.16 339.39 183.088 339.006 183.088C338.67 183.088 338.342 183.128 338.022 183.208C337.718 183.288 337.422 183.4 337.134 183.544C336.862 183.688 336.598 183.856 336.342 184.048V193H332.79Z" fill="#37679F"/>
<path d="M100 130.322L92.5 132.55V135.891H113V132.55L106 130.322C105 129.765 101.167 129.951 100 130.322Z" fill="white"/>
<path d="M152.889 121.555V129.09C152.889 130.073 153.481 130.96 154.39 131.336C155.298 131.713 156.344 131.505 157.04 130.809L166.054 121.793H172.588C172.425 122.592 172.342 123.407 172.342 124.227V133.953C172.342 140.657 177.796 146.111 184.5 146.111H202.934L211.946 155.274C212.642 155.981 213.692 156.191 214.601 155.819C215.514 155.445 216.111 154.556 216.111 153.568V145.869C221.763 144.734 226 139.759 226 133.953V124.227C226 117.506 220.402 112.068 213.68 112.068H201.277C201.437 111.282 201.521 110.469 201.521 109.637V85.1582C201.521 78.4542 196.067 73 189.363 73H155.32C148.6 73 143 78.4362 143 85.1582V109.637C143 115.607 147.393 120.458 152.889 121.555ZM213.68 116.932C217.722 116.932 221.137 120.272 221.137 124.227V133.953C221.137 137.953 217.764 141.248 213.68 141.248C212.337 141.248 211.248 142.337 211.248 143.68V147.629L205.687 141.974C205.23 141.51 204.605 141.248 203.953 141.248H184.5C180.478 141.248 177.205 137.976 177.205 133.953V124.227C177.205 123.394 177.349 122.572 177.623 121.795H189.363C193.332 121.795 196.863 119.883 199.083 116.932H213.68ZM147.863 85.1582C147.863 81.2039 151.278 77.8633 155.32 77.8633H189.363C193.386 77.8633 196.658 81.1358 196.658 85.1582V109.637C196.658 113.659 193.386 116.932 189.363 116.932H165.047C164.402 116.932 163.784 117.188 163.328 117.644L157.752 123.219V119.363C157.752 118.02 156.663 116.932 155.32 116.932C151.278 116.932 147.863 113.591 147.863 109.637V85.1582Z" fill="#37679F"/>
<path d="M189.363 131.522C190.706 131.522 191.795 130.433 191.795 129.09C191.795 127.747 190.706 126.658 189.363 126.658C188.02 126.658 186.932 127.747 186.932 129.09C186.932 130.433 188.02 131.522 189.363 131.522Z" fill="#37679F"/>
<path d="M199.09 131.522C200.433 131.522 201.521 130.433 201.521 129.09C201.521 127.747 200.433 126.658 199.09 126.658C197.747 126.658 196.658 127.747 196.658 129.09C196.658 130.433 197.747 131.522 199.09 131.522Z" fill="#37679F"/>
<path d="M208.816 131.522C210.159 131.522 211.248 130.433 211.248 129.09C211.248 127.747 210.159 126.658 208.816 126.658C207.473 126.658 206.385 127.747 206.385 129.09C206.385 130.433 207.473 131.522 208.816 131.522Z" fill="#37679F"/>
<defs>
<filter id="filter0_d" x="0" y="0" width="385" height="234" filterUnits="userSpaceOnUse" color-interpolation-filters="sRGB">
<feFlood flood-opacity="0" result="BackgroundImageFix"/>
<feColorMatrix in="SourceAlpha" type="matrix" values="0 0 0 0 0 0 0 0 0 0 0 0 0 0 0 0 0 0 127 0"/>
<feOffset dx="5" dy="5"/>
<feGaussianBlur stdDeviation="2"/>
<feColorMatrix type="matrix" values="0 0 0 0 0 0 0 0 0 0 0 0 0 0 0 0 0 0 0.25 0"/>
<feBlend mode="normal" in2="BackgroundImageFix" result="effect1_dropShadow"/>
<feBlend mode="normal" in="SourceGraphic" in2="effect1_dropShadow" result="shape"/>
</filter>
</defs>
</svg>
