<svg width="520" height="290" viewBox="0 0 520 290" fill="none" xmlns="http://www.w3.org/2000/svg">
<g filter="url(#filter0_d)">
<rect width="500" height="270" rx="40" fill="white"/>
</g>
<path d="M40.9876 67.2L46.5556 49.44H51.0436L56.6116 67.2H52.9156L51.7876 63.48H45.7396L44.6356 67.2H40.9876ZM46.5796 60.288H50.9476L48.7636 52.488L46.5796 60.288ZM63.0573 67.344C62.5133 67.344 61.9213 67.32 61.2813 67.272C60.6573 67.24 60.0573 67.184 59.4813 67.104C58.9053 67.008 58.4333 66.896 58.0653 66.768V64.68H63.7773C64.2733 64.68 64.6413 64.616 64.8813 64.488C65.1213 64.344 65.2413 64.056 65.2413 63.624V63.216C65.2413 62.896 65.1373 62.648 64.9293 62.472C64.7213 62.296 64.3373 62.208 63.7773 62.208H61.7613C61.0253 62.208 60.3613 62.104 59.7693 61.896C59.1773 61.672 58.7053 61.304 58.3533 60.792C58.0173 60.28 57.8493 59.584 57.8493 58.704V57.96C57.8493 57.144 58.0093 56.456 58.3293 55.896C58.6493 55.336 59.1853 54.912 59.9373 54.624C60.6893 54.3359 61.7213 54.1919 63.0333 54.1919C63.5613 54.1919 64.1213 54.2239 64.7133 54.288C65.3213 54.336 65.8893 54.408 66.4173 54.504C66.9613 54.6 67.3933 54.696 67.7133 54.792V56.88H62.3133C61.8493 56.88 61.4973 56.96 61.2573 57.12C61.0173 57.264 60.8973 57.544 60.8973 57.96V58.344C60.8973 58.76 61.0253 59.032 61.2813 59.16C61.5373 59.288 61.9293 59.352 62.4573 59.352H64.5213C65.8333 59.352 66.7853 59.656 67.3773 60.264C67.9853 60.856 68.2893 61.68 68.2893 62.736V63.888C68.2893 65.2 67.8333 66.104 66.9213 66.6C66.0253 67.096 64.7373 67.344 63.0573 67.344ZM75.1745 67.344C74.6305 67.344 74.0385 67.32 73.3985 67.272C72.7745 67.24 72.1745 67.184 71.5985 67.104C71.0225 67.008 70.5505 66.896 70.1825 66.768V64.68H75.8945C76.3905 64.68 76.7585 64.616 76.9985 64.488C77.2385 64.344 77.3585 64.056 77.3585 63.624V63.216C77.3585 62.896 77.2545 62.648 77.0465 62.472C76.8385 62.296 76.4545 62.208 75.8945 62.208H73.8785C73.1425 62.208 72.4785 62.104 71.8865 61.896C71.2945 61.672 70.8225 61.304 70.4705 60.792C70.1345 60.28 69.9665 59.584 69.9665 58.704V57.96C69.9665 57.144 70.1265 56.456 70.4465 55.896C70.7665 55.336 71.3025 54.912 72.0545 54.624C72.8065 54.3359 73.8385 54.1919 75.1505 54.1919C75.6785 54.1919 76.2385 54.2239 76.8305 54.288C77.4385 54.336 78.0065 54.408 78.5345 54.504C79.0785 54.6 79.5105 54.696 79.8305 54.792V56.88H74.4305C73.9665 56.88 73.6145 56.96 73.3745 57.12C73.1345 57.264 73.0145 57.544 73.0145 57.96V58.344C73.0145 58.76 73.1425 59.032 73.3985 59.16C73.6545 59.288 74.0465 59.352 74.5745 59.352H76.6385C77.9505 59.352 78.9025 59.656 79.4945 60.264C80.1025 60.856 80.4065 61.68 80.4065 62.736V63.888C80.4065 65.2 79.9505 66.104 79.0385 66.6C78.1425 67.096 76.8545 67.344 75.1745 67.344ZM83.0437 52.4159C82.7077 52.4159 82.5397 52.2559 82.5397 51.936V49.584C82.5397 49.248 82.7077 49.0799 83.0437 49.0799H85.7797C86.0837 49.0799 86.2357 49.248 86.2357 49.584V51.936C86.2357 52.2559 86.0837 52.4159 85.7797 52.4159H83.0437ZM82.6117 67.2V54.312H86.1637V67.2H82.6117ZM92.2289 73.152C91.0129 73.152 90.0049 72.888 89.2049 72.36C88.4049 71.832 88.0049 71.064 88.0049 70.056V69.672C88.0049 69.016 88.1809 68.448 88.5329 67.968C88.9009 67.504 89.3729 67.136 89.9489 66.864C89.5169 66.608 89.1889 66.296 88.9649 65.928C88.7569 65.56 88.6529 65.16 88.6529 64.728C88.6529 64.072 88.8369 63.528 89.2049 63.096C89.5889 62.664 90.1169 62.368 90.7889 62.208C90.0209 61.792 89.4849 61.256 89.1809 60.6C88.8769 59.944 88.7249 59.248 88.7249 58.512C88.7249 57.088 89.1649 56.032 90.0449 55.344C90.9249 54.656 92.2689 54.312 94.0769 54.312H101.061V56.256L99.0929 56.616C99.3169 56.856 99.5329 57.176 99.7409 57.576C99.9489 57.96 100.053 58.536 100.053 59.304C100.053 60.04 99.8929 60.712 99.5729 61.32C99.2689 61.912 98.7729 62.384 98.0849 62.736C97.4129 63.072 96.5169 63.24 95.3969 63.24H93.1169C92.6849 63.24 92.3329 63.304 92.0609 63.432C91.7889 63.56 91.6529 63.792 91.6529 64.128C91.6529 64.4 91.7649 64.592 91.9889 64.704C92.2289 64.8 92.4929 64.848 92.7809 64.848H96.3329C97.8049 64.848 98.9489 65.144 99.7649 65.736C100.581 66.328 100.989 67.32 100.989 68.712V69.072C100.989 70.336 100.589 71.328 99.7889 72.048C98.9889 72.784 97.7569 73.152 96.0929 73.152H92.2289ZM93.6209 60.576H94.9889C95.7249 60.576 96.2129 60.416 96.4529 60.096C96.7089 59.76 96.8369 59.328 96.8369 58.8C96.8369 58.128 96.6849 57.656 96.3809 57.384C96.0769 57.112 95.6449 56.976 95.0849 56.976H93.7409C93.1329 56.976 92.6769 57.112 92.3729 57.384C92.0689 57.64 91.9169 58.096 91.9169 58.752C91.9169 59.392 92.0609 59.856 92.3489 60.144C92.6369 60.432 93.0609 60.576 93.6209 60.576ZM93.2129 70.656H95.6609C96.2529 70.656 96.7249 70.536 97.0769 70.296C97.4449 70.072 97.6289 69.728 97.6289 69.264V68.88C97.6289 68.464 97.4769 68.128 97.1729 67.872C96.8849 67.632 96.4129 67.512 95.7569 67.512H93.1649C92.6369 67.512 92.2049 67.632 91.8689 67.872C91.5329 68.128 91.3649 68.496 91.3649 68.976V69.24C91.3649 70.184 91.9809 70.656 93.2129 70.656ZM102.862 67.2V54.312H105.79L106.414 55.632C106.894 55.248 107.502 54.896 108.238 54.576C108.974 54.256 109.718 54.096 110.47 54.096C111.526 54.096 112.342 54.304 112.918 54.72C113.494 55.136 113.894 55.696 114.118 56.4C114.358 57.088 114.478 57.856 114.478 58.704V67.2H110.926V59.16C110.926 58.536 110.758 58.072 110.422 57.768C110.086 57.448 109.638 57.288 109.078 57.288C108.566 57.288 108.086 57.376 107.638 57.552C107.206 57.728 106.798 57.96 106.414 58.248V67.2H102.862ZM117.135 67.2V54.312H120.063L120.687 55.632C121.247 55.216 121.863 54.856 122.535 54.552C123.207 54.248 124.023 54.096 124.983 54.096C125.799 54.096 126.471 54.272 126.999 54.624C127.527 54.96 127.935 55.392 128.223 55.92C128.591 55.648 129.015 55.376 129.495 55.104C129.991 54.816 130.519 54.576 131.079 54.384C131.639 54.192 132.191 54.096 132.735 54.096C133.775 54.096 134.591 54.296 135.183 54.696C135.775 55.08 136.191 55.632 136.431 56.352C136.687 57.056 136.815 57.888 136.815 58.848V67.2H133.263V59.16C133.263 58.536 133.095 58.072 132.759 57.768C132.423 57.448 131.975 57.288 131.415 57.288C130.935 57.288 130.447 57.392 129.951 57.6C129.471 57.792 129.039 58.024 128.655 58.296C128.719 58.616 128.751 58.928 128.751 59.232V67.2H125.199V59.16C125.199 58.536 125.031 58.072 124.695 57.768C124.359 57.448 123.911 57.288 123.351 57.288C122.839 57.288 122.359 57.376 121.911 57.552C121.479 57.728 121.071 57.96 120.687 58.248V67.2H117.135ZM144.895 67.32C143.471 67.32 142.335 67.136 141.487 66.768C140.639 66.384 140.023 65.72 139.639 64.776C139.271 63.816 139.087 62.48 139.087 60.768C139.087 59.024 139.263 57.672 139.615 56.712C139.967 55.752 140.559 55.08 141.391 54.696C142.223 54.312 143.351 54.12 144.775 54.12C146.039 54.12 147.055 54.248 147.823 54.504C148.607 54.76 149.167 55.208 149.503 55.848C149.855 56.488 150.031 57.392 150.031 58.56C150.031 59.872 149.655 60.776 148.903 61.272C148.151 61.768 147.135 62.016 145.855 62.016H142.615C142.631 62.672 142.727 63.192 142.903 63.576C143.079 63.96 143.391 64.24 143.839 64.416C144.303 64.592 144.967 64.68 145.831 64.68H149.599V66.768C148.975 66.896 148.287 67.024 147.535 67.152C146.799 67.264 145.919 67.32 144.895 67.32ZM142.567 59.904H145.495C145.975 59.904 146.327 59.808 146.551 59.616C146.775 59.408 146.887 59.064 146.887 58.584C146.887 57.88 146.719 57.392 146.383 57.12C146.063 56.832 145.527 56.688 144.775 56.688C143.959 56.688 143.383 56.912 143.047 57.36C142.727 57.792 142.567 58.64 142.567 59.904ZM152.362 67.2V54.312H155.29L155.914 55.632C156.394 55.248 157.002 54.896 157.738 54.576C158.474 54.256 159.218 54.096 159.97 54.096C161.026 54.096 161.842 54.304 162.418 54.72C162.994 55.136 163.394 55.696 163.618 56.4C163.858 57.088 163.978 57.856 163.978 58.704V67.2H160.426V59.16C160.426 58.536 160.258 58.072 159.922 57.768C159.586 57.448 159.138 57.288 158.578 57.288C158.066 57.288 157.586 57.376 157.138 57.552C156.706 57.728 156.298 57.96 155.914 58.248V67.2H152.362ZM171.531 67.2C170.043 67.2 168.971 66.864 168.315 66.192C167.675 65.52 167.379 64.328 167.427 62.616L167.547 57.168H165.531V54.888L167.667 54.312L168.147 50.712H170.955V54.312H173.979V57.168H170.955V62.592C170.955 63.296 171.083 63.768 171.339 64.008C171.595 64.232 171.891 64.368 172.227 64.416L173.859 64.56V67.2H171.531Z" fill="#37679F"/>
<path d="M158.24 123.085H148.214V119.836C148.214 118.154 146.75 116.791 144.944 116.791H134.576C133.227 113.246 129.59 110.7 125.328 110.7C121.066 110.7 117.429 113.246 116.08 116.791H105.494C103.688 116.791 102.225 118.154 102.225 119.836V123.085H92.4165C87.0083 123.085 82.6084 127.183 82.6084 132.221V205.514C82.6084 210.551 87.0083 214.65 92.4165 214.65H158.24C163.648 214.65 168.048 210.551 168.048 205.514V132.221C168.048 127.183 163.648 123.085 158.24 123.085ZM108.763 122.882H118.789C120.595 122.882 122.059 121.518 122.059 119.836C122.059 118.157 123.525 116.791 125.328 116.791C127.131 116.791 128.597 118.157 128.597 119.836C128.597 121.518 130.061 122.882 131.867 122.882H141.675V126.13C141.675 127.809 140.208 129.175 138.406 129.175H112.033C110.23 129.175 108.763 127.809 108.763 126.13V122.882ZM161.509 205.514C161.509 207.193 160.042 208.559 158.24 208.559H92.4165C90.6138 208.559 89.1471 207.193 89.1471 205.514V132.221C89.1471 130.542 90.6138 129.175 92.4165 129.175H102.787C104.136 132.72 107.77 135.266 112.033 135.266H138.406C142.668 135.266 146.302 132.72 147.651 129.175H158.24C160.042 129.175 161.509 130.542 161.509 132.221V205.514Z" fill="#37679F"/>
<path d="M121.12 163.585C119.854 162.386 117.784 162.37 116.497 163.55L105.513 173.613L101.267 169.658C99.9906 168.469 97.9204 168.469 96.6436 169.658C95.3668 170.847 95.3668 172.776 96.6436 173.965L103.183 180.056C103.821 180.65 104.657 180.948 105.494 180.948C106.322 180.948 107.15 180.657 107.787 180.073L121.082 167.892C122.369 166.712 122.386 164.784 121.12 163.585Z" fill="#37679F"/>
<path d="M121.12 184.903C119.854 183.704 117.784 183.688 116.497 184.867L105.513 194.931L101.267 190.976C99.9906 189.787 97.9204 189.787 96.6436 190.976C95.3668 192.165 95.3668 194.093 96.6436 195.283L103.183 201.374C103.821 201.968 104.657 202.265 105.494 202.265C106.322 202.265 107.15 201.974 107.787 201.391L121.082 189.21C122.369 188.03 122.386 186.102 121.12 184.903Z" fill="#37679F"/>
<path d="M114.345 154.431L110.118 150.493L114.345 146.556C115.621 145.367 115.621 143.439 114.345 142.249C113.068 141.06 110.998 141.06 109.721 142.249L105.494 146.187L101.267 142.249C99.9906 141.06 97.9204 141.06 96.6436 142.249C95.3668 143.439 95.3668 145.367 96.6436 146.556L100.871 150.493L96.6438 154.431C95.3671 155.62 95.3671 157.548 96.6438 158.738C97.9204 159.927 99.9906 159.927 101.267 158.738L105.494 154.8L109.721 158.738C110.998 159.927 113.068 159.927 114.345 158.738C115.622 157.548 115.622 155.62 114.345 154.431Z" fill="#37679F"/>
<path d="M151.701 147.448H131.867C130.061 147.448 128.598 148.812 128.598 150.493C128.598 152.175 130.061 153.539 131.867 153.539H151.701C153.507 153.539 154.971 152.175 154.971 150.493C154.971 148.812 153.507 147.448 151.701 147.448Z" fill="#37679F"/>
<path d="M151.701 168.766H131.867C130.061 168.766 128.598 170.129 128.598 171.811C128.598 173.493 130.061 174.857 131.867 174.857H151.701C153.507 174.857 154.971 173.493 154.971 171.811C154.971 170.129 153.507 168.766 151.701 168.766Z" fill="#37679F"/>
<path d="M151.701 190.084H131.867C130.061 190.084 128.598 191.447 128.598 193.129C128.598 194.811 130.061 196.175 131.867 196.175H151.701C153.507 196.175 154.971 194.811 154.971 193.129C154.971 191.447 153.507 190.084 151.701 190.084Z" fill="#37679F"/>
<path d="M184.395 129.176C178.987 129.176 174.587 133.274 174.587 138.312C174.587 140.249 174.587 185.031 174.587 187.038C174.587 187.366 174.65 187.705 174.751 187.992L181.29 206.467C181.732 207.716 182.984 208.559 184.395 208.559C185.806 208.559 187.058 207.716 187.5 206.467L194.039 187.992C194.149 187.681 194.203 187.336 194.203 187.038C194.203 185.034 194.203 140.257 194.203 138.312C194.203 133.274 189.803 129.176 184.395 129.176ZM184.395 195.787L181.695 188.158C182.521 187.767 183.441 187.561 184.395 187.561C185.349 187.561 186.269 187.767 187.095 188.158L184.395 195.787ZM187.664 181.873C186.611 181.609 185.515 181.47 184.395 181.47C183.275 181.47 182.179 181.609 181.126 181.873V153.539H187.664V181.873ZM187.664 147.448H181.126V138.312C181.126 136.633 182.592 135.266 184.395 135.266C186.198 135.266 187.664 136.633 187.664 138.312V147.448Z" fill="#37679F"/>
<path d="M406.878 115.203H374.705C373.4 111.797 369.882 109.35 365.758 109.35C361.634 109.35 358.116 111.797 356.811 115.203H324.638V209.25H406.878V115.203ZM349.943 121.057H362.595V118.13C362.595 116.517 364.014 115.203 365.758 115.203C367.502 115.203 368.921 116.517 368.921 118.13V121.057H381.574V126.911H349.943V121.057ZM400.552 203.396H330.964V121.057H343.616V132.764H387.9V121.057H400.552V203.396Z" fill="#37679F"/>
<path d="M382.116 140.722L367.386 154.352L342.526 177.354L335.816 195.98L355.947 189.771L395.536 153.139L382.116 140.722ZM352.529 184.655L345.819 186.725L348.055 180.516L371.859 158.491L376.333 162.63L352.529 184.655ZM377.228 155.18L376.333 154.352L382.116 149L386.589 153.139L380.806 158.491L377.228 155.18Z" fill="#37679F"/>
<defs>
<filter id="filter0_d" x="0" y="0" width="520" height="290" filterUnits="userSpaceOnUse" color-interpolation-filters="sRGB">
<feFlood flood-opacity="0" result="BackgroundImageFix"/>
<feColorMatrix in="SourceAlpha" type="matrix" values="0 0 0 0 0 0 0 0 0 0 0 0 0 0 0 0 0 0 127 0"/>
<feOffset dx="10" dy="10"/>
<feGaussianBlur stdDeviation="5"/>
<feColorMatrix type="matrix" values="0 0 0 0 0 0 0 0 0 0 0 0 0 0 0 0 0 0 0.25 0"/>
<feBlend mode="normal" in2="BackgroundImageFix" result="effect1_dropShadow"/>
<feBlend mode="normal" in="SourceGraphic" in2="effect1_dropShadow" result="shape"/>
</filter>
</defs>
</svg>
