<svg width="313" height="307" viewBox="0 0 313 307" fill="none" xmlns="http://www.w3.org/2000/svg">
<g filter="url(#filter0_d)">
<rect width="293" height="287" rx="40" fill="url(#paint0_linear)"/>
</g>
<path d="M74.536 229V211.24H81.52C83.28 211.24 84.56 211.648 85.36 212.464C86.176 213.264 86.584 214.408 86.584 215.896C86.584 216.6 86.48 217.224 86.272 217.768C86.08 218.296 85.8 218.736 85.432 219.088C85.064 219.424 84.624 219.656 84.112 219.784C84.496 219.88 84.864 220.032 85.216 220.24C85.584 220.448 85.912 220.728 86.2 221.08C86.504 221.432 86.736 221.864 86.896 222.376C87.072 222.872 87.16 223.448 87.16 224.104C87.16 225.304 86.952 226.264 86.536 226.984C86.136 227.704 85.536 228.224 84.736 228.544C83.952 228.848 82.984 229 81.832 229H74.536ZM78.088 225.808H81.736C82.152 225.808 82.512 225.728 82.816 225.568C83.12 225.408 83.352 225.16 83.512 224.824C83.688 224.488 83.776 224.04 83.776 223.48C83.776 223.016 83.688 222.624 83.512 222.304C83.336 221.984 83.096 221.736 82.792 221.56C82.488 221.384 82.136 221.296 81.736 221.296H78.088V225.808ZM78.088 218.56H81.544C82.056 218.56 82.456 218.376 82.744 218.008C83.048 217.624 83.2 217.128 83.2 216.52C83.216 215.736 83.056 215.192 82.72 214.888C82.384 214.584 81.976 214.432 81.496 214.432H78.088V218.56ZM94.9349 229.12C93.8789 229.12 92.9749 229.016 92.2229 228.808C91.4709 228.584 90.8549 228.216 90.3749 227.704C89.9109 227.192 89.5669 226.512 89.3429 225.664C89.1349 224.816 89.0309 223.768 89.0309 222.52C89.0309 221.208 89.1349 220.128 89.3429 219.28C89.5669 218.416 89.9109 217.744 90.3749 217.264C90.8549 216.768 91.4709 216.424 92.2229 216.232C92.9909 216.024 93.8949 215.92 94.9349 215.92C96.0069 215.92 96.9189 216.024 97.6709 216.232C98.4229 216.44 99.0309 216.792 99.4949 217.288C99.9749 217.768 100.319 218.44 100.527 219.304C100.751 220.152 100.863 221.224 100.863 222.52C100.863 223.8 100.759 224.872 100.551 225.736C100.343 226.584 100.007 227.256 99.5429 227.752C99.0789 228.248 98.4629 228.6 97.6949 228.808C96.9429 229.016 96.0229 229.12 94.9349 229.12ZM94.9349 226.288C95.3669 226.288 95.7269 226.248 96.0149 226.168C96.3189 226.088 96.5589 225.928 96.7349 225.688C96.9269 225.432 97.0709 225.048 97.1669 224.536C97.2629 224.024 97.3109 223.352 97.3109 222.52C97.3109 221.672 97.2629 221 97.1669 220.504C97.0709 219.992 96.9269 219.616 96.7349 219.376C96.5589 219.12 96.3189 218.952 96.0149 218.872C95.7269 218.792 95.3669 218.752 94.9349 218.752C94.5189 218.752 94.1589 218.792 93.8549 218.872C93.5669 218.952 93.3269 219.12 93.1349 219.376C92.9429 219.616 92.7989 219.992 92.7029 220.504C92.6229 221 92.5829 221.672 92.5829 222.52C92.5829 223.352 92.6229 224.024 92.7029 224.536C92.7989 225.048 92.9429 225.432 93.1349 225.688C93.3269 225.928 93.5669 226.088 93.8549 226.168C94.1589 226.248 94.5189 226.288 94.9349 226.288ZM105.956 229.144C104.98 229.144 104.188 228.856 103.58 228.28C102.972 227.704 102.668 226.904 102.668 225.88V224.728C102.668 223.752 103.012 222.952 103.7 222.328C104.388 221.688 105.46 221.368 106.916 221.368H110.204V220.48C110.204 220.08 110.132 219.752 109.988 219.496C109.844 219.224 109.572 219.032 109.172 218.92C108.788 218.792 108.196 218.728 107.396 218.728H103.532V216.664C104.156 216.472 104.876 216.304 105.692 216.16C106.524 216.016 107.524 215.944 108.692 215.944C109.764 215.944 110.676 216.072 111.428 216.328C112.196 216.584 112.772 217.024 113.156 217.648C113.556 218.272 113.756 219.136 113.756 220.24V229H110.948L110.372 227.632C110.26 227.76 110.068 227.904 109.796 228.064C109.524 228.224 109.188 228.392 108.788 228.568C108.404 228.728 107.964 228.864 107.468 228.976C106.988 229.088 106.484 229.144 105.956 229.144ZM107.756 226.672C107.916 226.672 108.092 226.656 108.284 226.624C108.492 226.576 108.7 226.528 108.908 226.48C109.132 226.416 109.332 226.36 109.508 226.312C109.7 226.248 109.852 226.192 109.964 226.144C110.092 226.096 110.172 226.064 110.204 226.048V223.048L108.044 223.192C107.42 223.24 106.956 223.4 106.652 223.672C106.364 223.944 106.22 224.312 106.22 224.776V225.304C106.22 225.624 106.284 225.888 106.412 226.096C106.556 226.304 106.74 226.456 106.964 226.552C107.204 226.632 107.468 226.672 107.756 226.672ZM116.415 229V216.112H119.151L119.967 218.08C120.431 217.488 120.951 216.984 121.527 216.568C122.119 216.152 122.815 215.944 123.615 215.944C123.791 215.944 123.967 215.952 124.143 215.968C124.335 215.984 124.511 216.016 124.671 216.064V219.712C124.431 219.68 124.175 219.656 123.903 219.64C123.647 219.608 123.399 219.592 123.159 219.592C122.695 219.592 122.271 219.648 121.887 219.76C121.519 219.856 121.175 220.008 120.855 220.216C120.551 220.408 120.255 220.664 119.967 220.984V229H116.415ZM130.787 229.144C129.779 229.144 128.931 228.936 128.243 228.52C127.555 228.088 127.035 227.4 126.683 226.456C126.347 225.496 126.179 224.24 126.179 222.688C126.179 221.088 126.323 219.792 126.611 218.8C126.915 217.808 127.419 217.08 128.123 216.616C128.827 216.152 129.795 215.92 131.027 215.92C131.619 215.92 132.203 215.984 132.779 216.112C133.355 216.224 133.867 216.36 134.315 216.52V210.688H137.891V229H134.891L134.315 227.776C134.043 228.032 133.707 228.264 133.307 228.472C132.923 228.68 132.515 228.848 132.083 228.976C131.651 229.088 131.219 229.144 130.787 229.144ZM132.035 226.288C132.515 226.288 132.947 226.208 133.331 226.048C133.731 225.888 134.059 225.728 134.315 225.568V219.088C133.995 218.976 133.659 218.864 133.307 218.752C132.955 218.64 132.579 218.584 132.179 218.584C131.587 218.584 131.107 218.688 130.739 218.896C130.387 219.104 130.131 219.496 129.971 220.072C129.811 220.632 129.731 221.448 129.731 222.52C129.731 223.512 129.803 224.288 129.947 224.848C130.107 225.392 130.355 225.768 130.691 225.976C131.027 226.184 131.475 226.288 132.035 226.288ZM152.887 229.144C151.847 229.144 150.927 229.024 150.127 228.784C149.343 228.544 148.671 228.104 148.111 227.464C147.567 226.824 147.151 225.912 146.863 224.728C146.591 223.528 146.455 221.976 146.455 220.072C146.455 218.232 146.599 216.728 146.887 215.56C147.191 214.376 147.623 213.464 148.183 212.824C148.743 212.168 149.423 211.712 150.223 211.456C151.023 211.2 151.927 211.072 152.935 211.072C153.735 211.072 154.479 211.12 155.167 211.216C155.871 211.296 156.503 211.4 157.063 211.528C157.623 211.64 158.095 211.768 158.479 211.912V214.672C158.191 214.608 157.799 214.544 157.303 214.48C156.823 214.416 156.271 214.368 155.647 214.336C155.023 214.288 154.367 214.264 153.679 214.264C153.007 214.264 152.431 214.344 151.951 214.504C151.487 214.648 151.111 214.928 150.823 215.344C150.551 215.744 150.343 216.328 150.199 217.096C150.071 217.864 150.007 218.864 150.007 220.096C150.007 221.28 150.063 222.256 150.175 223.024C150.303 223.792 150.503 224.392 150.775 224.824C151.047 225.24 151.415 225.536 151.879 225.712C152.359 225.872 152.959 225.952 153.679 225.952C154.895 225.952 155.879 225.928 156.631 225.88C157.399 225.832 158.015 225.776 158.479 225.712V228.448C158.047 228.592 157.551 228.72 156.991 228.832C156.431 228.928 155.815 229 155.143 229.048C154.471 229.112 153.719 229.144 152.887 229.144ZM166.091 229.12C165.035 229.12 164.131 229.016 163.379 228.808C162.627 228.584 162.011 228.216 161.531 227.704C161.067 227.192 160.723 226.512 160.499 225.664C160.291 224.816 160.187 223.768 160.187 222.52C160.187 221.208 160.291 220.128 160.499 219.28C160.723 218.416 161.067 217.744 161.531 217.264C162.011 216.768 162.627 216.424 163.379 216.232C164.147 216.024 165.051 215.92 166.091 215.92C167.163 215.92 168.075 216.024 168.827 216.232C169.579 216.44 170.187 216.792 170.651 217.288C171.131 217.768 171.475 218.44 171.683 219.304C171.907 220.152 172.019 221.224 172.019 222.52C172.019 223.8 171.915 224.872 171.707 225.736C171.499 226.584 171.163 227.256 170.699 227.752C170.235 228.248 169.619 228.6 168.851 228.808C168.099 229.016 167.179 229.12 166.091 229.12ZM166.091 226.288C166.523 226.288 166.883 226.248 167.171 226.168C167.475 226.088 167.715 225.928 167.891 225.688C168.083 225.432 168.227 225.048 168.323 224.536C168.419 224.024 168.467 223.352 168.467 222.52C168.467 221.672 168.419 221 168.323 220.504C168.227 219.992 168.083 219.616 167.891 219.376C167.715 219.12 167.475 218.952 167.171 218.872C166.883 218.792 166.523 218.752 166.091 218.752C165.675 218.752 165.315 218.792 165.011 218.872C164.723 218.952 164.483 219.12 164.291 219.376C164.099 219.616 163.955 219.992 163.859 220.504C163.779 221 163.739 221.672 163.739 222.52C163.739 223.352 163.779 224.024 163.859 224.536C163.955 225.048 164.099 225.432 164.291 225.688C164.483 225.928 164.723 226.088 165.011 226.168C165.315 226.248 165.675 226.288 166.091 226.288ZM174.376 229V216.112H177.112L177.928 218.08C178.392 217.488 178.912 216.984 179.488 216.568C180.08 216.152 180.776 215.944 181.576 215.944C181.752 215.944 181.928 215.952 182.104 215.968C182.296 215.984 182.472 216.016 182.632 216.064V219.712C182.392 219.68 182.136 219.656 181.864 219.64C181.608 219.608 181.36 219.592 181.12 219.592C180.656 219.592 180.232 219.648 179.848 219.76C179.48 219.856 179.136 220.008 178.816 220.216C178.512 220.408 178.216 220.664 177.928 220.984V229H174.376ZM184.524 229V216.112H187.452L188.076 217.432C188.556 217.032 189.156 216.68 189.876 216.376C190.612 216.056 191.364 215.896 192.132 215.896C193.188 215.896 194.004 216.104 194.58 216.52C195.156 216.936 195.556 217.496 195.78 218.2C196.02 218.888 196.14 219.656 196.14 220.504V229H192.588V220.96C192.588 220.544 192.508 220.2 192.348 219.928C192.204 219.656 191.996 219.448 191.724 219.304C191.452 219.16 191.124 219.088 190.74 219.088C190.404 219.088 190.076 219.128 189.756 219.208C189.452 219.288 189.156 219.4 188.868 219.544C188.596 219.688 188.332 219.856 188.076 220.048V229H184.524ZM204.222 229.12C202.798 229.12 201.662 228.936 200.814 228.568C199.966 228.184 199.35 227.512 198.966 226.552C198.598 225.592 198.414 224.264 198.414 222.568C198.414 220.824 198.59 219.472 198.942 218.512C199.294 217.552 199.886 216.88 200.718 216.496C201.55 216.112 202.678 215.92 204.102 215.92C205.382 215.92 206.406 216.048 207.174 216.304C207.942 216.56 208.494 217.008 208.83 217.648C209.182 218.288 209.358 219.192 209.358 220.36C209.358 221.224 209.182 221.912 208.83 222.424C208.494 222.92 208.014 223.28 207.39 223.504C206.766 223.712 206.03 223.816 205.182 223.816H201.942C201.974 224.472 202.07 225 202.23 225.4C202.406 225.784 202.718 226.064 203.166 226.24C203.63 226.4 204.294 226.48 205.158 226.48H208.926V228.568C208.302 228.696 207.614 228.824 206.862 228.952C206.126 229.064 205.246 229.12 204.222 229.12ZM201.894 221.704H204.822C205.302 221.704 205.654 221.608 205.878 221.416C206.102 221.224 206.214 220.88 206.214 220.384C206.214 219.92 206.142 219.552 205.998 219.28C205.854 218.992 205.63 218.792 205.326 218.68C205.022 218.552 204.614 218.488 204.102 218.488C203.558 218.488 203.126 218.584 202.806 218.776C202.486 218.952 202.254 219.272 202.11 219.736C201.966 220.2 201.894 220.856 201.894 221.704ZM211.688 229V216.112H214.424L215.24 218.08C215.704 217.488 216.224 216.984 216.8 216.568C217.392 216.152 218.088 215.944 218.888 215.944C219.064 215.944 219.24 215.952 219.416 215.968C219.608 215.984 219.784 216.016 219.944 216.064V219.712C219.704 219.68 219.448 219.656 219.176 219.64C218.92 219.608 218.672 219.592 218.432 219.592C217.968 219.592 217.544 219.648 217.16 219.76C216.792 219.856 216.448 220.008 216.128 220.216C215.824 220.408 215.528 220.664 215.24 220.984V229H211.688Z" fill="white"/>
<path d="M108 93.0002H98.9995V156C98.9995 160.95 103.05 165 108 165H171V156H108V93.0002ZM180 75.0002H126C121.05 75.0002 117 79.0502 117 84.0002V138C117 142.95 121.05 147 126 147H180C184.95 147 189 142.95 189 138V84.0002C189 79.0502 184.95 75.0002 180 75.0002ZM180 138H126V84.0002H180V138ZM135 106.5H171V115.5H135V106.5ZM135 120H153V129H135V120ZM135 93.0002H171V102H135V93.0002Z" fill="white"/>
<defs>
<filter id="filter0_d" x="0" y="0" width="313" height="307" filterUnits="userSpaceOnUse" color-interpolation-filters="sRGB">
<feFlood flood-opacity="0" result="BackgroundImageFix"/>
<feColorMatrix in="SourceAlpha" type="matrix" values="0 0 0 0 0 0 0 0 0 0 0 0 0 0 0 0 0 0 127 0"/>
<feOffset dx="10" dy="10"/>
<feGaussianBlur stdDeviation="5"/>
<feColorMatrix type="matrix" values="0 0 0 0 0 0 0 0 0 0 0 0 0 0 0 0 0 0 0.25 0"/>
<feBlend mode="normal" in2="BackgroundImageFix" result="effect1_dropShadow"/>
<feBlend mode="normal" in="SourceGraphic" in2="effect1_dropShadow" result="shape"/>
</filter>
<linearGradient id="paint0_linear" x1="44.9593" y1="27.1487" x2="436.176" y2="185.293" gradientUnits="userSpaceOnUse">
<stop stop-color="#0071BC"/>
<stop offset="1" stop-color="#1B1464"/>
</linearGradient>
</defs>
</svg>
