<svg width="313" height="307" viewBox="0 0 313 307" fill="none" xmlns="http://www.w3.org/2000/svg">
<g filter="url(#filter0_d)">
<rect width="293" height="287" rx="40" fill="url(#paint0_linear)"/>
</g>
<path d="M59.512 240.144C58.488 240.144 57.576 240.024 56.776 239.784C55.976 239.544 55.304 239.104 54.76 238.464C54.216 237.824 53.8 236.912 53.512 235.728C53.224 234.528 53.08 232.976 53.08 231.072C53.08 229.232 53.224 227.728 53.512 226.56C53.816 225.392 54.248 224.48 54.808 223.824C55.368 223.168 56.048 222.712 56.848 222.456C57.648 222.2 58.552 222.072 59.56 222.072C60.744 222.072 61.816 222.168 62.776 222.36C63.752 222.536 64.528 222.72 65.104 222.912V225.672C64.672 225.576 64.016 225.488 63.136 225.408C62.272 225.312 61.328 225.264 60.304 225.264C59.632 225.264 59.056 225.344 58.576 225.504C58.112 225.648 57.736 225.928 57.448 226.344C57.176 226.744 56.968 227.328 56.824 228.096C56.696 228.864 56.632 229.864 56.632 231.096C56.632 232.696 56.736 233.92 56.944 234.768C57.152 235.6 57.52 236.176 58.048 236.496C58.576 236.8 59.328 236.952 60.304 236.952C61.504 236.952 62.488 236.928 63.256 236.88C64.024 236.832 64.64 236.776 65.104 236.712V239.448C64.448 239.672 63.656 239.848 62.728 239.976C61.816 240.088 60.744 240.144 59.512 240.144ZM71.4625 240.048C70.1025 240.048 69.0865 239.712 68.4145 239.04C67.7585 238.368 67.4305 237.304 67.4305 235.848V221.688H70.9825V235.32C70.9825 236.04 71.0945 236.544 71.3185 236.832C71.5425 237.104 71.8785 237.272 72.3265 237.336L73.3105 237.48V240.048H71.4625ZM77.6899 240.144C76.7139 240.144 75.9219 239.856 75.3139 239.28C74.7059 238.704 74.4019 237.904 74.4019 236.88V235.728C74.4019 234.752 74.7459 233.952 75.4339 233.328C76.1219 232.688 77.1939 232.368 78.6499 232.368H81.9379V231.48C81.9379 231.08 81.8659 230.752 81.7219 230.496C81.5939 230.224 81.3299 230.032 80.9299 229.92C80.5299 229.792 79.9299 229.728 79.1299 229.728H75.2659V227.664C75.9059 227.472 76.6339 227.304 77.4499 227.16C78.2659 227.016 79.2579 226.944 80.4259 226.944C81.4979 226.944 82.4099 227.072 83.1619 227.328C83.9139 227.584 84.4899 228.024 84.8899 228.648C85.2899 229.272 85.4899 230.136 85.4899 231.24V240H82.6819L82.1059 238.632C81.9619 238.792 81.6739 238.992 81.2419 239.232C80.8099 239.456 80.2819 239.664 79.6579 239.856C79.0499 240.048 78.3939 240.144 77.6899 240.144ZM79.4899 237.672C79.7619 237.672 80.0739 237.632 80.4259 237.552C80.7939 237.456 81.1219 237.36 81.4099 237.264C81.7139 237.152 81.8899 237.08 81.9379 237.048V234.048L79.7779 234.192C78.5619 234.288 77.9539 234.816 77.9539 235.776V236.304C77.9539 236.816 78.0979 237.176 78.3859 237.384C78.6899 237.576 79.0579 237.672 79.4899 237.672ZM92.8293 240.144C92.2853 240.144 91.6933 240.12 91.0533 240.072C90.4293 240.04 89.8293 239.984 89.2533 239.904C88.6773 239.808 88.2053 239.696 87.8373 239.568V237.48H93.5493C94.0453 237.48 94.4133 237.416 94.6533 237.288C94.8933 237.144 95.0133 236.856 95.0133 236.424V236.016C95.0133 235.696 94.9093 235.448 94.7013 235.272C94.4933 235.096 94.1093 235.008 93.5493 235.008H91.5333C90.7973 235.008 90.1333 234.904 89.5413 234.696C88.9493 234.472 88.4773 234.104 88.1253 233.592C87.7893 233.08 87.6213 232.384 87.6213 231.504V230.76C87.6213 229.944 87.7813 229.256 88.1013 228.696C88.4213 228.136 88.9573 227.712 89.7093 227.424C90.4613 227.136 91.4933 226.992 92.8053 226.992C93.3333 226.992 93.8933 227.024 94.4853 227.088C95.0933 227.136 95.6613 227.208 96.1893 227.304C96.7333 227.4 97.1653 227.496 97.4853 227.592V229.68H92.0853C91.6213 229.68 91.2693 229.76 91.0293 229.92C90.7893 230.064 90.6693 230.344 90.6693 230.76V231.144C90.6693 231.56 90.7973 231.832 91.0533 231.96C91.3093 232.088 91.7013 232.152 92.2293 232.152H94.2933C95.6053 232.152 96.5573 232.456 97.1493 233.064C97.7573 233.656 98.0613 234.48 98.0613 235.536V236.688C98.0613 238 97.6053 238.904 96.6933 239.4C95.7973 239.896 94.5093 240.144 92.8293 240.144ZM104.946 240.144C104.402 240.144 103.81 240.12 103.17 240.072C102.546 240.04 101.946 239.984 101.37 239.904C100.794 239.808 100.322 239.696 99.9544 239.568V237.48H105.666C106.162 237.48 106.53 237.416 106.77 237.288C107.01 237.144 107.13 236.856 107.13 236.424V236.016C107.13 235.696 107.026 235.448 106.818 235.272C106.61 235.096 106.226 235.008 105.666 235.008H103.65C102.914 235.008 102.25 234.904 101.658 234.696C101.066 234.472 100.594 234.104 100.242 233.592C99.9064 233.08 99.7384 232.384 99.7384 231.504V230.76C99.7384 229.944 99.8984 229.256 100.218 228.696C100.538 228.136 101.074 227.712 101.826 227.424C102.578 227.136 103.61 226.992 104.922 226.992C105.45 226.992 106.01 227.024 106.602 227.088C107.21 227.136 107.778 227.208 108.306 227.304C108.85 227.4 109.282 227.496 109.602 227.592V229.68H104.202C103.738 229.68 103.386 229.76 103.146 229.92C102.906 230.064 102.786 230.344 102.786 230.76V231.144C102.786 231.56 102.914 231.832 103.17 231.96C103.426 232.088 103.818 232.152 104.346 232.152H106.41C107.722 232.152 108.674 232.456 109.266 233.064C109.874 233.656 110.178 234.48 110.178 235.536V236.688C110.178 238 109.722 238.904 108.81 239.4C107.914 239.896 106.626 240.144 104.946 240.144ZM112.384 240V227.112H115.12L115.936 229.08C116.4 228.488 116.92 227.984 117.496 227.568C118.088 227.152 118.784 226.944 119.584 226.944C119.76 226.944 119.936 226.952 120.112 226.968C120.304 226.984 120.48 227.016 120.64 227.064V230.712C120.384 230.68 120.12 230.656 119.848 230.64C119.592 230.608 119.352 230.592 119.128 230.592C118.424 230.592 117.824 230.712 117.328 230.952C116.832 231.176 116.368 231.52 115.936 231.984V240H112.384ZM128.052 240.12C126.628 240.12 125.484 239.92 124.62 239.52C123.756 239.104 123.124 238.416 122.724 237.456C122.34 236.496 122.148 235.184 122.148 233.52C122.148 231.76 122.348 230.408 122.748 229.464C123.148 228.504 123.78 227.84 124.644 227.472C125.508 227.104 126.644 226.92 128.052 226.92C129.476 226.92 130.62 227.112 131.484 227.496C132.364 227.88 132.996 228.552 133.38 229.512C133.78 230.472 133.98 231.808 133.98 233.52C133.98 235.232 133.788 236.568 133.404 237.528C133.02 238.488 132.396 239.16 131.532 239.544C130.668 239.928 129.508 240.12 128.052 240.12ZM128.052 237.288C128.612 237.288 129.068 237.208 129.42 237.048C129.772 236.888 130.028 236.544 130.188 236.016C130.348 235.472 130.428 234.64 130.428 233.52C130.428 232.384 130.348 231.552 130.188 231.024C130.028 230.496 129.772 230.152 129.42 229.992C129.068 229.832 128.612 229.752 128.052 229.752C127.492 229.752 127.036 229.832 126.684 229.992C126.348 230.152 126.1 230.496 125.94 231.024C125.78 231.552 125.7 232.384 125.7 233.52C125.7 234.64 125.78 235.472 125.94 236.016C126.1 236.544 126.348 236.888 126.684 237.048C127.036 237.208 127.492 237.288 128.052 237.288ZM141.857 240.12C140.433 240.12 139.289 239.92 138.425 239.52C137.561 239.104 136.929 238.416 136.529 237.456C136.145 236.496 135.953 235.184 135.953 233.52C135.953 231.76 136.153 230.408 136.553 229.464C136.953 228.504 137.585 227.84 138.449 227.472C139.313 227.104 140.449 226.92 141.857 226.92C143.281 226.92 144.425 227.112 145.289 227.496C146.169 227.88 146.801 228.552 147.185 229.512C147.585 230.472 147.785 231.808 147.785 233.52C147.785 235.232 147.593 236.568 147.209 237.528C146.825 238.488 146.201 239.16 145.337 239.544C144.473 239.928 143.313 240.12 141.857 240.12ZM141.857 237.288C142.417 237.288 142.873 237.208 143.225 237.048C143.577 236.888 143.833 236.544 143.993 236.016C144.153 235.472 144.233 234.64 144.233 233.52C144.233 232.384 144.153 231.552 143.993 231.024C143.833 230.496 143.577 230.152 143.225 229.992C142.873 229.832 142.417 229.752 141.857 229.752C141.297 229.752 140.841 229.832 140.489 229.992C140.153 230.152 139.905 230.496 139.745 231.024C139.585 231.552 139.505 232.384 139.505 233.52C139.505 234.64 139.585 235.472 139.745 236.016C139.905 236.544 140.153 236.888 140.489 237.048C140.841 237.208 141.297 237.288 141.857 237.288ZM150.141 240V227.112H153.069L153.693 228.432C154.253 228.016 154.869 227.656 155.541 227.352C156.213 227.048 157.029 226.896 157.989 226.896C158.805 226.896 159.477 227.072 160.005 227.424C160.533 227.76 160.941 228.192 161.229 228.72C161.597 228.448 162.021 228.176 162.501 227.904C162.997 227.616 163.525 227.376 164.085 227.184C164.645 226.992 165.197 226.896 165.741 226.896C166.781 226.896 167.597 227.096 168.189 227.496C168.781 227.88 169.197 228.432 169.437 229.152C169.693 229.856 169.821 230.688 169.821 231.648V240H166.269V231.96C166.269 231.336 166.101 230.872 165.765 230.568C165.429 230.248 164.981 230.088 164.421 230.088C163.941 230.088 163.453 230.192 162.957 230.4C162.477 230.592 162.045 230.824 161.661 231.096C161.725 231.416 161.757 231.728 161.757 232.032V240H158.205V231.96C158.205 231.336 158.037 230.872 157.701 230.568C157.365 230.248 156.917 230.088 156.357 230.088C155.845 230.088 155.365 230.176 154.917 230.352C154.485 230.528 154.077 230.76 153.693 231.048V240H150.141ZM181.953 240L177.705 222.24H181.377L184.233 234.768L187.569 222.24H190.833L194.145 234.768L197.001 222.24H200.673L196.425 240H192.801L189.201 227.472L185.577 240H181.953ZM207.013 240.12C205.589 240.12 204.445 239.92 203.581 239.52C202.717 239.104 202.085 238.416 201.685 237.456C201.301 236.496 201.109 235.184 201.109 233.52C201.109 231.76 201.309 230.408 201.709 229.464C202.109 228.504 202.741 227.84 203.605 227.472C204.469 227.104 205.605 226.92 207.013 226.92C208.437 226.92 209.581 227.112 210.445 227.496C211.325 227.88 211.957 228.552 212.341 229.512C212.741 230.472 212.941 231.808 212.941 233.52C212.941 235.232 212.749 236.568 212.365 237.528C211.981 238.488 211.357 239.16 210.493 239.544C209.629 239.928 208.469 240.12 207.013 240.12ZM207.013 237.288C207.573 237.288 208.029 237.208 208.381 237.048C208.733 236.888 208.989 236.544 209.149 236.016C209.309 235.472 209.389 234.64 209.389 233.52C209.389 232.384 209.309 231.552 209.149 231.024C208.989 230.496 208.733 230.152 208.381 229.992C208.029 229.832 207.573 229.752 207.013 229.752C206.453 229.752 205.997 229.832 205.645 229.992C205.309 230.152 205.061 230.496 204.901 231.024C204.741 231.552 204.661 232.384 204.661 233.52C204.661 234.64 204.741 235.472 204.901 236.016C205.061 236.544 205.309 236.888 205.645 237.048C205.997 237.208 206.453 237.288 207.013 237.288ZM215.298 240V227.112H218.034L218.85 229.08C219.314 228.488 219.834 227.984 220.41 227.568C221.002 227.152 221.698 226.944 222.498 226.944C222.674 226.944 222.85 226.952 223.026 226.968C223.218 226.984 223.394 227.016 223.554 227.064V230.712C223.298 230.68 223.034 230.656 222.762 230.64C222.506 230.608 222.266 230.592 222.042 230.592C221.338 230.592 220.738 230.712 220.242 230.952C219.746 231.176 219.282 231.52 218.85 231.984V240H215.298ZM225.446 240V221.688H228.998V231.576H230.51L233.342 227.112H236.942L233.15 233.184L237.326 240H233.726L230.462 234.768H228.998V240H225.446Z" fill="white"/>
<path d="M169.625 75H119.375C114.769 75 111 78.78 111 83.4V150.6C111 155.22 114.769 159 119.375 159H169.625C174.231 159 178 155.22 178 150.6V83.4C178 78.78 174.231 75 169.625 75ZM131.938 83.4H140.312V104.4L136.125 101.25L131.938 104.4V83.4ZM169.625 150.6H119.375V83.4H123.562V121.2L136.125 111.75L148.688 121.2V83.4H169.625V150.6Z" fill="white"/>
<defs>
<filter id="filter0_d" x="0" y="0" width="313" height="307" filterUnits="userSpaceOnUse" color-interpolation-filters="sRGB">
<feFlood flood-opacity="0" result="BackgroundImageFix"/>
<feColorMatrix in="SourceAlpha" type="matrix" values="0 0 0 0 0 0 0 0 0 0 0 0 0 0 0 0 0 0 127 0"/>
<feOffset dx="10" dy="10"/>
<feGaussianBlur stdDeviation="5"/>
<feColorMatrix type="matrix" values="0 0 0 0 0 0 0 0 0 0 0 0 0 0 0 0 0 0 0.25 0"/>
<feBlend mode="normal" in2="BackgroundImageFix" result="effect1_dropShadow"/>
<feBlend mode="normal" in="SourceGraphic" in2="effect1_dropShadow" result="shape"/>
</filter>
<linearGradient id="paint0_linear" x1="44.9593" y1="27.1487" x2="436.176" y2="185.293" gradientUnits="userSpaceOnUse">
<stop stop-color="#0071BC"/>
<stop offset="1" stop-color="#1B1464"/>
</linearGradient>
</defs>
</svg>
