<svg width="313" height="307" viewBox="0 0 313 307" fill="none" xmlns="http://www.w3.org/2000/svg">
<g filter="url(#filter0_d)">
<rect width="293" height="287" rx="40" fill="white"/>
</g>
<path d="M111.39 247.18C110.09 247.18 108.94 247.03 107.94 246.73C106.96 246.43 106.12 245.88 105.42 245.08C104.74 244.28 104.22 243.14 103.86 241.66C103.52 240.16 103.35 238.22 103.35 235.84C103.35 233.54 103.53 231.66 103.89 230.2C104.27 228.72 104.81 227.58 105.51 226.78C106.21 225.96 107.06 225.39 108.06 225.07C109.06 224.75 110.19 224.59 111.45 224.59C112.45 224.59 113.38 224.65 114.24 224.77C115.12 224.87 115.91 225 116.61 225.16C117.31 225.3 117.9 225.46 118.38 225.64V229.09C118.02 229.01 117.53 228.93 116.91 228.85C116.31 228.77 115.62 228.71 114.84 228.67C114.06 228.61 113.24 228.58 112.38 228.58C111.54 228.58 110.82 228.68 110.22 228.88C109.64 229.06 109.17 229.41 108.81 229.93C108.47 230.43 108.21 231.16 108.03 232.12C107.87 233.08 107.79 234.33 107.79 235.87C107.79 237.35 107.86 238.57 108 239.53C108.16 240.49 108.41 241.24 108.75 241.78C109.09 242.3 109.55 242.67 110.13 242.89C110.73 243.09 111.48 243.19 112.38 243.19C113.9 243.19 115.13 243.16 116.07 243.1C117.03 243.04 117.8 242.97 118.38 242.89V246.31C117.84 246.49 117.22 246.65 116.52 246.79C115.82 246.91 115.05 247 114.21 247.06C113.37 247.14 112.43 247.18 111.39 247.18ZM126.328 247.06C125.188 247.06 124.238 246.88 123.478 246.52C122.738 246.14 122.188 245.57 121.828 244.81C121.468 244.03 121.288 243.03 121.288 241.81V224.11H125.728V241.15C125.728 241.75 125.788 242.23 125.908 242.59C126.028 242.93 126.208 243.18 126.448 243.34C126.708 243.5 127.028 243.61 127.408 243.67L128.638 243.85V247.06H126.328ZM134.112 247.18C132.892 247.18 131.902 246.82 131.142 246.1C130.382 245.38 130.002 244.38 130.002 243.1V241.66C130.002 240.44 130.432 239.44 131.292 238.66C132.152 237.86 133.492 237.46 135.312 237.46H139.422V236.35C139.422 235.85 139.332 235.44 139.152 235.12C138.972 234.78 138.632 234.54 138.132 234.4C137.652 234.24 136.912 234.16 135.912 234.16H131.082V231.58C131.862 231.34 132.762 231.13 133.782 230.95C134.822 230.77 136.072 230.68 137.532 230.68C138.872 230.68 140.012 230.84 140.952 231.16C141.912 231.48 142.632 232.03 143.112 232.81C143.612 233.59 143.862 234.67 143.862 236.05V247H140.352L139.632 245.29C139.492 245.45 139.252 245.63 138.912 245.83C138.572 246.03 138.152 246.24 137.652 246.46C137.172 246.66 136.622 246.83 136.002 246.97C135.402 247.11 134.772 247.18 134.112 247.18ZM136.362 244.09C136.562 244.09 136.782 244.07 137.022 244.03C137.282 243.97 137.542 243.91 137.802 243.85C138.082 243.77 138.332 243.7 138.552 243.64C138.792 243.56 138.982 243.49 139.122 243.43C139.282 243.37 139.382 243.33 139.422 243.31V239.56L136.722 239.74C135.942 239.8 135.362 240 134.982 240.34C134.622 240.68 134.442 241.14 134.442 241.72V242.38C134.442 242.78 134.522 243.11 134.682 243.37C134.862 243.63 135.092 243.82 135.372 243.94C135.672 244.04 136.002 244.09 136.362 244.09ZM153.037 247.18C152.537 247.18 151.997 247.16 151.417 247.12C150.837 247.1 150.257 247.06 149.677 247C149.097 246.94 148.557 246.87 148.057 246.79C147.557 246.69 147.137 246.58 146.797 246.46V243.85H153.937C154.357 243.85 154.697 243.82 154.957 243.76C155.237 243.68 155.437 243.55 155.557 243.37C155.697 243.17 155.767 242.89 155.767 242.53V242.02C155.767 241.62 155.637 241.31 155.377 241.09C155.117 240.87 154.637 240.76 153.937 240.76H151.417C150.497 240.76 149.667 240.62 148.927 240.34C148.187 240.06 147.597 239.6 147.157 238.96C146.737 238.32 146.527 237.46 146.527 236.38V235.45C146.527 234.43 146.727 233.57 147.127 232.87C147.527 232.17 148.197 231.64 149.137 231.28C150.077 230.92 151.367 230.74 153.007 230.74C153.667 230.74 154.367 230.78 155.107 230.86C155.867 230.92 156.577 231.01 157.237 231.13C157.917 231.23 158.457 231.35 158.857 231.49V234.1H152.107C151.527 234.1 151.087 234.2 150.787 234.4C150.487 234.58 150.337 234.93 150.337 235.45V235.93C150.337 236.29 150.407 236.56 150.547 236.74C150.687 236.9 150.897 237.02 151.177 237.1C151.477 237.16 151.847 237.19 152.287 237.19H154.867C156.507 237.19 157.697 237.57 158.437 238.33C159.197 239.07 159.577 240.1 159.577 241.42V242.86C159.577 243.94 159.317 244.8 158.797 245.44C158.297 246.06 157.557 246.51 156.577 246.79C155.617 247.05 154.437 247.18 153.037 247.18ZM168.183 247.18C167.683 247.18 167.143 247.16 166.563 247.12C165.983 247.1 165.403 247.06 164.823 247C164.243 246.94 163.703 246.87 163.203 246.79C162.703 246.69 162.283 246.58 161.943 246.46V243.85H169.083C169.503 243.85 169.843 243.82 170.103 243.76C170.383 243.68 170.583 243.55 170.703 243.37C170.843 243.17 170.913 242.89 170.913 242.53V242.02C170.913 241.62 170.783 241.31 170.523 241.09C170.263 240.87 169.783 240.76 169.083 240.76H166.563C165.643 240.76 164.813 240.62 164.073 240.34C163.333 240.06 162.743 239.6 162.303 238.96C161.883 238.32 161.673 237.46 161.673 236.38V235.45C161.673 234.43 161.873 233.57 162.273 232.87C162.673 232.17 163.343 231.64 164.283 231.28C165.223 230.92 166.513 230.74 168.153 230.74C168.813 230.74 169.513 230.78 170.253 230.86C171.013 230.92 171.723 231.01 172.383 231.13C173.063 231.23 173.603 231.35 174.003 231.49V234.1H167.253C166.673 234.1 166.233 234.2 165.933 234.4C165.633 234.58 165.483 234.93 165.483 235.45V235.93C165.483 236.29 165.553 236.56 165.693 236.74C165.833 236.9 166.043 237.02 166.323 237.1C166.623 237.16 166.993 237.19 167.433 237.19H170.013C171.653 237.19 172.843 237.57 173.583 238.33C174.343 239.07 174.723 240.1 174.723 241.42V242.86C174.723 243.94 174.463 244.8 173.943 245.44C173.443 246.06 172.703 246.51 171.723 246.79C170.763 247.05 169.583 247.18 168.183 247.18ZM188.364 247V228.85L184.434 229.36V226.51L188.844 224.59H192.804V247H188.364ZM196.046 247V243.43L203.456 236.08C204.056 235.5 204.546 234.96 204.926 234.46C205.306 233.96 205.586 233.47 205.766 232.99C205.966 232.49 206.066 231.96 206.066 231.4C206.066 230.86 205.956 230.4 205.736 230.02C205.536 229.62 205.196 229.32 204.716 229.12C204.256 228.92 203.616 228.82 202.796 228.82H196.556V225.34C197.516 225.16 198.576 225 199.736 224.86C200.916 224.7 202.226 224.62 203.666 224.62C205.406 224.62 206.766 224.86 207.746 225.34C208.746 225.82 209.456 226.51 209.876 227.41C210.296 228.31 210.506 229.4 210.506 230.68C210.506 231.68 210.366 232.59 210.086 233.41C209.826 234.23 209.436 235.02 208.916 235.78C208.396 236.52 207.736 237.27 206.936 238.03L201.956 242.98H211.196V247H196.046Z" fill="#37679F"/>
<rect x="77" y="55" width="139" height="139" rx="11" stroke="#37679F" stroke-width="2"/>
<path d="M181.397 143.453L174.495 141.428L159.448 131.604V129.349C163.797 126.059 166.788 121.044 167.34 115.292C169.526 114.947 171.205 113.037 171.205 110.759V104.57C171.205 104.547 171.205 104.524 171.205 104.501V96.656C172.079 96.0348 172.632 95.0225 172.632 93.8721V86.6938L183.008 84.9222C184.71 84.6231 185.93 83.2657 186.068 81.5402C186.183 79.8146 185.171 78.2961 183.514 77.767L148.497 66.6774C147.761 66.4474 147.001 66.4474 146.265 66.6774L111.271 77.79C109.615 78.3191 108.602 79.8376 108.717 81.5632C108.786 82.6675 109.315 83.6108 110.121 84.232V93.619H110.029C108.05 93.619 106.463 95.2295 106.463 97.1851V101.833L104.162 115.384C103.771 117.731 105.565 119.87 107.958 119.87H115.757C118.127 119.87 119.945 117.731 119.554 115.384L117.253 101.833V97.1851C117.253 95.2065 115.642 93.619 113.687 93.619H113.595V85.2443L122.177 86.7168V93.8721C122.177 94.9994 122.729 96.0118 123.603 96.633V104.547V110.736C123.603 113.014 125.283 114.924 127.468 115.269C128.02 121.021 131.011 126.036 135.36 129.326V131.581L120.313 141.405L113.411 143.43C106.025 145.593 100.803 152.38 100.803 160.271V165.425C100.803 166.368 101.585 167.15 102.528 167.15C103.472 167.15 104.254 166.368 104.254 165.425V160.271C104.254 154.059 108.418 148.491 114.377 146.743L120.819 144.856L146.541 160.133C147.07 160.432 147.761 160.455 148.313 160.133L174.035 144.856L180.477 146.743C186.436 148.491 190.6 154.059 190.6 160.271V176.929C190.6 179.068 188.852 180.817 186.712 180.817H179.097V173.385C179.097 172.442 178.314 171.66 177.371 171.66C176.428 171.66 175.646 172.442 175.646 173.385V180.84H119.163V173.408C119.163 172.465 118.38 171.683 117.437 171.683C116.494 171.683 115.711 172.465 115.711 173.408V180.84H108.119C105.979 180.84 104.254 179.091 104.254 176.952V173.5C104.254 172.557 103.472 171.775 102.528 171.775C101.585 171.775 100.803 172.557 100.803 173.5V176.952C100.803 181.001 104.093 184.268 108.119 184.268H186.689C190.738 184.268 194.005 180.978 194.005 176.952V160.294C194.005 152.587 188.967 145.685 181.397 143.453ZM141.204 144.902C145.276 145.478 149.509 145.478 153.559 144.902C152.776 146.835 151.81 148.699 150.66 150.47L147.393 155.509L144.103 150.47C142.952 148.699 141.986 146.835 141.204 144.902ZM166.074 86.3947L169.157 86.7858V93.8491H125.605V86.7628L143.458 84.5541C146.058 84.232 148.704 84.232 151.304 84.5541L158.068 85.3824L166.074 86.3947ZM130.827 114.395C130.735 112.991 129.562 111.887 128.158 111.887C127.537 111.887 127.031 111.381 127.031 110.759V106.296H129.056C132.093 106.296 134.577 103.834 134.577 100.774V97.3002H160.208V100.774C160.208 103.811 162.669 106.296 165.729 106.296H167.754V110.759C167.754 111.381 167.248 111.887 166.627 111.887C165.223 111.887 164.05 112.991 163.958 114.395C163.406 123.114 156.135 129.925 147.393 129.925C138.65 129.925 131.379 123.114 130.827 114.395ZM147.393 133.399C150.453 133.399 153.374 132.708 155.997 131.443V132.547C155.997 135.492 155.606 138.414 154.824 141.221C150.13 142.118 144.839 142.141 139.961 141.221C139.202 138.414 138.788 135.515 138.788 132.547C138.788 132.501 138.788 132.478 138.788 132.432V132.409V131.443C141.411 132.685 144.31 133.399 147.393 133.399Z" fill="#37679F"/>
<defs>
<filter id="filter0_d" x="0" y="0" width="313" height="307" filterUnits="userSpaceOnUse" color-interpolation-filters="sRGB">
<feFlood flood-opacity="0" result="BackgroundImageFix"/>
<feColorMatrix in="SourceAlpha" type="matrix" values="0 0 0 0 0 0 0 0 0 0 0 0 0 0 0 0 0 0 127 0"/>
<feOffset dx="10" dy="10"/>
<feGaussianBlur stdDeviation="5"/>
<feColorMatrix type="matrix" values="0 0 0 0 0 0 0 0 0 0 0 0 0 0 0 0 0 0 0.25 0"/>
<feBlend mode="normal" in2="BackgroundImageFix" result="effect1_dropShadow"/>
<feBlend mode="normal" in="SourceGraphic" in2="effect1_dropShadow" result="shape"/>
</filter>
</defs>
</svg>
