<svg width="313" height="307" viewBox="0 0 313 307" fill="none" xmlns="http://www.w3.org/2000/svg">
<g filter="url(#filter0_d)">
<rect width="293" height="287" rx="40" fill="url(#paint0_linear)"/>
</g>
<path d="M101.39 233.18C100.09 233.18 98.94 233.03 97.94 232.73C96.96 232.43 96.12 231.88 95.42 231.08C94.74 230.28 94.22 229.14 93.86 227.66C93.52 226.16 93.35 224.22 93.35 221.84C93.35 219.54 93.53 217.66 93.89 216.2C94.27 214.72 94.81 213.58 95.51 212.78C96.21 211.96 97.06 211.39 98.06 211.07C99.06 210.75 100.19 210.59 101.45 210.59C102.45 210.59 103.38 210.65 104.24 210.77C105.12 210.87 105.91 211 106.61 211.16C107.31 211.3 107.9 211.46 108.38 211.64V215.09C108.02 215.01 107.53 214.93 106.91 214.85C106.31 214.77 105.62 214.71 104.84 214.67C104.06 214.61 103.24 214.58 102.38 214.58C101.54 214.58 100.82 214.68 100.22 214.88C99.64 215.06 99.17 215.41 98.81 215.93C98.47 216.43 98.21 217.16 98.03 218.12C97.87 219.08 97.79 220.33 97.79 221.87C97.79 223.35 97.86 224.57 98 225.53C98.16 226.49 98.41 227.24 98.75 227.78C99.09 228.3 99.55 228.67 100.13 228.89C100.73 229.09 101.48 229.19 102.38 229.19C103.9 229.19 105.13 229.16 106.07 229.1C107.03 229.04 107.8 228.97 108.38 228.89V232.31C107.84 232.49 107.22 232.65 106.52 232.79C105.82 232.91 105.05 233 104.21 233.06C103.37 233.14 102.43 233.18 101.39 233.18ZM116.328 233.06C115.188 233.06 114.238 232.88 113.478 232.52C112.738 232.14 112.188 231.57 111.828 230.81C111.468 230.03 111.288 229.03 111.288 227.81V210.11H115.728V227.15C115.728 227.75 115.788 228.23 115.908 228.59C116.028 228.93 116.208 229.18 116.448 229.34C116.708 229.5 117.028 229.61 117.408 229.67L118.638 229.85V233.06H116.328ZM124.112 233.18C122.892 233.18 121.902 232.82 121.142 232.1C120.382 231.38 120.002 230.38 120.002 229.1V227.66C120.002 226.44 120.432 225.44 121.292 224.66C122.152 223.86 123.492 223.46 125.312 223.46H129.422V222.35C129.422 221.85 129.332 221.44 129.152 221.12C128.972 220.78 128.632 220.54 128.132 220.4C127.652 220.24 126.912 220.16 125.912 220.16H121.082V217.58C121.862 217.34 122.762 217.13 123.782 216.95C124.822 216.77 126.072 216.68 127.532 216.68C128.872 216.68 130.012 216.84 130.952 217.16C131.912 217.48 132.632 218.03 133.112 218.81C133.612 219.59 133.862 220.67 133.862 222.05V233H130.352L129.632 231.29C129.492 231.45 129.252 231.63 128.912 231.83C128.572 232.03 128.152 232.24 127.652 232.46C127.172 232.66 126.622 232.83 126.002 232.97C125.402 233.11 124.772 233.18 124.112 233.18ZM126.362 230.09C126.562 230.09 126.782 230.07 127.022 230.03C127.282 229.97 127.542 229.91 127.802 229.85C128.082 229.77 128.332 229.7 128.552 229.64C128.792 229.56 128.982 229.49 129.122 229.43C129.282 229.37 129.382 229.33 129.422 229.31V225.56L126.722 225.74C125.942 225.8 125.362 226 124.982 226.34C124.622 226.68 124.442 227.14 124.442 227.72V228.38C124.442 228.78 124.522 229.11 124.682 229.37C124.862 229.63 125.092 229.82 125.372 229.94C125.672 230.04 126.002 230.09 126.362 230.09ZM143.037 233.18C142.537 233.18 141.997 233.16 141.417 233.12C140.837 233.1 140.257 233.06 139.677 233C139.097 232.94 138.557 232.87 138.057 232.79C137.557 232.69 137.137 232.58 136.797 232.46V229.85H143.937C144.357 229.85 144.697 229.82 144.957 229.76C145.237 229.68 145.437 229.55 145.557 229.37C145.697 229.17 145.767 228.89 145.767 228.53V228.02C145.767 227.62 145.637 227.31 145.377 227.09C145.117 226.87 144.637 226.76 143.937 226.76H141.417C140.497 226.76 139.667 226.62 138.927 226.34C138.187 226.06 137.597 225.6 137.157 224.96C136.737 224.32 136.527 223.46 136.527 222.38V221.45C136.527 220.43 136.727 219.57 137.127 218.87C137.527 218.17 138.197 217.64 139.137 217.28C140.077 216.92 141.367 216.74 143.007 216.74C143.667 216.74 144.367 216.78 145.107 216.86C145.867 216.92 146.577 217.01 147.237 217.13C147.917 217.23 148.457 217.35 148.857 217.49V220.1H142.107C141.527 220.1 141.087 220.2 140.787 220.4C140.487 220.58 140.337 220.93 140.337 221.45V221.93C140.337 222.29 140.407 222.56 140.547 222.74C140.687 222.9 140.897 223.02 141.177 223.1C141.477 223.16 141.847 223.19 142.287 223.19H144.867C146.507 223.19 147.697 223.57 148.437 224.33C149.197 225.07 149.577 226.1 149.577 227.42V228.86C149.577 229.94 149.317 230.8 148.797 231.44C148.297 232.06 147.557 232.51 146.577 232.79C145.617 233.05 144.437 233.18 143.037 233.18ZM158.183 233.18C157.683 233.18 157.143 233.16 156.563 233.12C155.983 233.1 155.403 233.06 154.823 233C154.243 232.94 153.703 232.87 153.203 232.79C152.703 232.69 152.283 232.58 151.943 232.46V229.85H159.083C159.503 229.85 159.843 229.82 160.103 229.76C160.383 229.68 160.583 229.55 160.703 229.37C160.843 229.17 160.913 228.89 160.913 228.53V228.02C160.913 227.62 160.783 227.31 160.523 227.09C160.263 226.87 159.783 226.76 159.083 226.76H156.563C155.643 226.76 154.813 226.62 154.073 226.34C153.333 226.06 152.743 225.6 152.303 224.96C151.883 224.32 151.673 223.46 151.673 222.38V221.45C151.673 220.43 151.873 219.57 152.273 218.87C152.673 218.17 153.343 217.64 154.283 217.28C155.223 216.92 156.513 216.74 158.153 216.74C158.813 216.74 159.513 216.78 160.253 216.86C161.013 216.92 161.723 217.01 162.383 217.13C163.063 217.23 163.603 217.35 164.003 217.49V220.1H157.253C156.673 220.1 156.233 220.2 155.933 220.4C155.633 220.58 155.483 220.93 155.483 221.45V221.93C155.483 222.29 155.553 222.56 155.693 222.74C155.833 222.9 156.043 223.02 156.323 223.1C156.623 223.16 156.993 223.19 157.433 223.19H160.013C161.653 223.19 162.843 223.57 163.583 224.33C164.343 225.07 164.723 226.1 164.723 227.42V228.86C164.723 229.94 164.463 230.8 163.943 231.44C163.443 232.06 162.703 232.51 161.723 232.79C160.763 233.05 159.583 233.18 158.183 233.18ZM178.364 233V214.85L174.434 215.36V212.51L178.844 210.59H182.804V233H178.364ZM189.526 233V214.85L185.596 215.36V212.51L190.006 210.59H193.966V233H189.526Z" fill="white"/>
<path d="M153.785 97.147C152.636 97.835 151.326 98.1834 149.999 98.1539C148.672 98.1698 147.364 97.8224 146.21 97.147L129.063 86.3739C129.063 86.3739 127.514 85.4045 127.514 87.5935V98.3322C127.514 103.977 137.562 110.081 149.999 110.081C162.435 110.081 172.487 103.98 172.487 98.3353V86.9868C172.487 85.2169 171.383 86.0706 171.383 86.0706L153.785 97.147Z" stroke="white" stroke-width="1.5" stroke-miterlimit="10"/>
<path d="M178.424 77.2158C179.733 76.3792 179.733 75.0144 178.424 74.1427L152.38 60.5488C151.071 59.709 148.929 59.709 147.593 60.5488L121.576 74.1427C120.268 74.9825 120.268 76.3473 121.576 77.2158L147.623 93.886C148.929 94.7227 151.071 94.7227 152.41 93.886L178.424 77.2158Z" fill="white"/>
<path d="M179.638 102.292V84.7491C179.638 84.7491 179.638 83.9214 179.23 84.1882C178.718 84.5028 178.226 84.8584 177.756 85.2525C177.425 85.6072 177.498 86.3773 177.498 86.3773V102.322C177.498 102.559 177.322 102.647 177.239 102.707C176.851 102.974 176.528 103.353 176.301 103.809C176.075 104.265 175.952 104.781 175.946 105.309C175.946 106.116 176.22 106.89 176.706 107.46C177.193 108.031 177.853 108.351 178.541 108.351C179.229 108.351 179.889 108.031 180.376 107.46C180.862 106.89 181.135 106.116 181.135 105.309C181.132 104.777 181.011 104.254 180.785 103.793C180.558 103.332 180.234 102.947 179.843 102.677C179.814 102.62 179.638 102.529 179.638 102.292Z" fill="white"/>
<path d="M121.822 110.081C121.433 110.081 121.048 110.16 120.689 110.311C120.329 110.462 120.003 110.684 119.729 110.963C119.454 111.243 119.236 111.574 119.088 111.939C118.94 112.304 118.864 112.694 118.865 113.089V157.779C118.872 158.57 119.187 159.326 119.741 159.883C120.294 160.44 121.042 160.753 121.822 160.755C128.737 160.787 140.294 162.228 148.27 170.622V123.829C148.269 123.3 148.129 122.782 147.865 122.327C141.323 111.708 128.737 110.113 121.822 110.081Z" stroke="white" stroke-width="1.5" stroke-miterlimit="10"/>
<path d="M181.135 157.779V113.089C181.136 112.694 181.06 112.303 180.911 111.938C180.763 111.573 180.545 111.242 180.27 110.962C179.995 110.683 179.668 110.461 179.309 110.31C178.949 110.159 178.564 110.081 178.175 110.081V110.081C171.26 110.113 158.677 111.708 152.136 122.294C151.857 122.745 151.716 123.268 151.731 123.8V170.622C159.703 162.228 171.26 160.787 178.175 160.755C178.955 160.754 179.704 160.441 180.258 159.884C180.812 159.327 181.127 158.57 181.135 157.779V157.779Z" stroke="white" stroke-width="1.5" stroke-miterlimit="10"/>
<path d="M187.417 127.488H185.719V159.012C185.711 160.72 185.077 162.355 183.956 163.558C182.836 164.761 181.32 165.433 179.741 165.427C175.119 165.427 167.491 166.404 162.108 171.897C171.454 169.443 181.291 171.026 186.899 172.398C187.244 172.481 187.602 172.482 187.947 172.4C188.293 172.318 188.618 172.156 188.899 171.924C189.176 171.694 189.399 171.398 189.553 171.059C189.706 170.721 189.785 170.348 189.784 169.97V130.023C189.774 129.35 189.52 128.707 189.078 128.233C188.635 127.76 188.039 127.492 187.417 127.488Z" fill="white"/>
<path d="M114.337 159.061V127.532H112.642C112.026 127.533 111.435 127.797 110.997 128.267C110.559 128.736 110.31 129.374 110.304 130.041V169.995C110.301 170.373 110.378 170.746 110.53 171.087C110.682 171.427 110.904 171.725 111.179 171.957C111.457 172.196 111.782 172.363 112.128 172.446C112.475 172.528 112.835 172.524 113.18 172.433C118.789 171.059 128.629 169.475 137.979 171.93C132.59 166.439 124.976 165.486 120.339 165.462C118.76 165.473 117.24 164.805 116.115 163.605C114.99 162.405 114.351 160.771 114.337 159.061Z" fill="white"/>
<path d="M104.286 53H195.717C205.816 53 214 61.189 214 71.2791V162.721C214 172.821 205.816 181 195.717 181H104.286C94.1873 181 86 172.811 86 162.721V71.289C86 61.189 94.1873 53 104.286 53Z" stroke="white" stroke-width="2"/>
<defs>
<filter id="filter0_d" x="0" y="0" width="313" height="307" filterUnits="userSpaceOnUse" color-interpolation-filters="sRGB">
<feFlood flood-opacity="0" result="BackgroundImageFix"/>
<feColorMatrix in="SourceAlpha" type="matrix" values="0 0 0 0 0 0 0 0 0 0 0 0 0 0 0 0 0 0 127 0"/>
<feOffset dx="10" dy="10"/>
<feGaussianBlur stdDeviation="5"/>
<feColorMatrix type="matrix" values="0 0 0 0 0 0 0 0 0 0 0 0 0 0 0 0 0 0 0.25 0"/>
<feBlend mode="normal" in2="BackgroundImageFix" result="effect1_dropShadow"/>
<feBlend mode="normal" in="SourceGraphic" in2="effect1_dropShadow" result="shape"/>
</filter>
<linearGradient id="paint0_linear" x1="44.9593" y1="27.1487" x2="436.176" y2="185.293" gradientUnits="userSpaceOnUse">
<stop stop-color="#0071BC"/>
<stop offset="1" stop-color="#1B1464"/>
</linearGradient>
</defs>
</svg>
