<svg width="313" height="307" viewBox="0 0 313 307" fill="none" xmlns="http://www.w3.org/2000/svg">
<g filter="url(#filter0_d)">
<rect width="293" height="287" rx="40" fill="url(#paint0_linear)"/>
</g>
<path d="M76.9 252.084C76.1907 252.084 75.57 252.019 75.038 251.888C74.506 251.748 74.0627 251.496 73.708 251.132C73.3533 250.759 73.0827 250.227 72.896 249.536C72.7187 248.845 72.63 247.945 72.63 246.834C72.63 245.723 72.7187 244.823 72.896 244.132C73.0827 243.432 73.3533 242.895 73.708 242.522C74.072 242.149 74.5153 241.892 75.038 241.752C75.57 241.612 76.1907 241.542 76.9 241.542C77.6093 241.542 78.23 241.612 78.762 241.752C79.294 241.892 79.7373 242.149 80.092 242.522C80.4467 242.895 80.7127 243.432 80.89 244.132C81.0673 244.823 81.156 245.723 81.156 246.834C81.156 247.945 81.0673 248.845 80.89 249.536C80.7127 250.227 80.4467 250.759 80.092 251.132C79.7373 251.496 79.2893 251.748 78.748 251.888C78.216 252.019 77.6 252.084 76.9 252.084ZM76.9 250.222C77.3107 250.222 77.656 250.18 77.936 250.096C78.2253 250.003 78.4493 249.835 78.608 249.592C78.776 249.349 78.8973 249.009 78.972 248.57C79.0467 248.122 79.084 247.543 79.084 246.834C79.084 246.097 79.0467 245.504 78.972 245.056C78.8973 244.599 78.776 244.253 78.608 244.02C78.44 243.777 78.216 243.614 77.936 243.53C77.656 243.446 77.3107 243.404 76.9 243.404C76.4893 243.404 76.144 243.446 75.864 243.53C75.5933 243.614 75.3693 243.777 75.192 244.02C75.024 244.253 74.898 244.599 74.814 245.056C74.7393 245.504 74.702 246.097 74.702 246.834C74.702 247.543 74.7347 248.122 74.8 248.57C74.8747 249.009 74.996 249.349 75.164 249.592C75.332 249.835 75.556 250.003 75.836 250.096C76.116 250.18 76.4707 250.222 76.9 250.222ZM82.5871 252V244.482H84.2951L84.6591 245.252C84.9391 245.028 85.2937 244.823 85.7231 244.636C86.1524 244.449 86.5864 244.356 87.0251 244.356C87.6411 244.356 88.1171 244.477 88.4531 244.72C88.7891 244.963 89.0224 245.289 89.1531 245.7C89.2931 246.101 89.3631 246.549 89.3631 247.044V252H87.2911V247.31C87.2911 246.946 87.1931 246.675 86.9971 246.498C86.8011 246.311 86.5397 246.218 86.2131 246.218C85.9144 246.218 85.6344 246.269 85.3731 246.372C85.1211 246.475 84.8831 246.61 84.6591 246.778V252H82.5871ZM93.2652 252.028C92.4719 252.028 91.8792 251.832 91.4872 251.44C91.1046 251.048 90.9132 250.427 90.9132 249.578V241.318H92.9852V249.27C92.9852 249.69 93.0506 249.984 93.1812 250.152C93.3119 250.311 93.5079 250.409 93.7692 250.446L94.3432 250.53V252.028H93.2652ZM97.6539 255.318L98.4659 252C97.8312 252 97.3179 251.827 96.9259 251.482C96.5339 251.137 96.2539 250.637 96.0859 249.984L94.6719 244.482H96.8279L98.0179 249.564C98.0739 249.797 98.1579 249.965 98.2699 250.068C98.3819 250.171 98.4892 250.236 98.5919 250.264C98.6946 250.292 98.7739 250.306 98.8299 250.306L100.188 244.482H102.288L100.048 253.932L99.3759 255.318H97.6539ZM107.4 252V246.148H106.336V244.818L107.4 244.482V243.978C107.4 243.026 107.591 242.331 107.974 241.892C108.366 241.453 109.01 241.234 109.906 241.234C110.223 241.234 110.517 241.257 110.788 241.304C111.059 241.351 111.283 241.397 111.46 241.444V242.928H110.312C109.995 242.928 109.775 243.003 109.654 243.152C109.542 243.301 109.486 243.539 109.486 243.866V244.482H111.39V246.148H109.486V252H107.4ZM115.598 252.07C114.767 252.07 114.1 251.953 113.596 251.72C113.092 251.477 112.723 251.076 112.49 250.516C112.266 249.956 112.154 249.191 112.154 248.22C112.154 247.193 112.271 246.405 112.504 245.854C112.737 245.294 113.106 244.907 113.61 244.692C114.114 244.477 114.777 244.37 115.598 244.37C116.429 244.37 117.096 244.482 117.6 244.706C118.113 244.93 118.482 245.322 118.706 245.882C118.939 246.442 119.056 247.221 119.056 248.22C119.056 249.219 118.944 249.998 118.72 250.558C118.496 251.118 118.132 251.51 117.628 251.734C117.124 251.958 116.447 252.07 115.598 252.07ZM115.598 250.418C115.925 250.418 116.191 250.371 116.396 250.278C116.601 250.185 116.751 249.984 116.844 249.676C116.937 249.359 116.984 248.873 116.984 248.22C116.984 247.557 116.937 247.072 116.844 246.764C116.751 246.456 116.601 246.255 116.396 246.162C116.191 246.069 115.925 246.022 115.598 246.022C115.271 246.022 115.005 246.069 114.8 246.162C114.604 246.255 114.459 246.456 114.366 246.764C114.273 247.072 114.226 247.557 114.226 248.22C114.226 248.873 114.273 249.359 114.366 249.676C114.459 249.984 114.604 250.185 114.8 250.278C115.005 250.371 115.271 250.418 115.598 250.418ZM120.431 252V244.482H122.027L122.503 245.63C122.773 245.285 123.077 244.991 123.413 244.748C123.758 244.505 124.164 244.384 124.631 244.384C124.733 244.384 124.836 244.389 124.939 244.398C125.051 244.407 125.153 244.426 125.247 244.454V246.582C125.097 246.563 124.943 246.549 124.785 246.54C124.635 246.521 124.495 246.512 124.365 246.512C123.954 246.512 123.604 246.582 123.315 246.722C123.025 246.853 122.755 247.053 122.503 247.324V252H120.431ZM133.544 252.084C132.947 252.084 132.415 252.014 131.948 251.874C131.481 251.734 131.089 251.477 130.772 251.104C130.455 250.731 130.212 250.199 130.044 249.508C129.876 248.808 129.792 247.903 129.792 246.792C129.792 245.719 129.876 244.841 130.044 244.16C130.221 243.479 130.473 242.947 130.8 242.564C131.127 242.181 131.523 241.915 131.99 241.766C132.457 241.617 132.984 241.542 133.572 241.542C134.263 241.542 134.888 241.598 135.448 241.71C136.017 241.813 136.47 241.92 136.806 242.032V243.642C136.554 243.586 136.171 243.535 135.658 243.488C135.154 243.432 134.603 243.404 134.006 243.404C133.614 243.404 133.278 243.451 132.998 243.544C132.727 243.628 132.508 243.791 132.34 244.034C132.181 244.267 132.06 244.608 131.976 245.056C131.901 245.504 131.864 246.087 131.864 246.806C131.864 247.739 131.925 248.453 132.046 248.948C132.167 249.433 132.382 249.769 132.69 249.956C132.998 250.133 133.437 250.222 134.006 250.222C134.706 250.222 135.28 250.208 135.728 250.18C136.176 250.152 136.535 250.119 136.806 250.082V251.678C136.423 251.809 135.961 251.911 135.42 251.986C134.888 252.051 134.263 252.084 133.544 252.084ZM140.515 252.028C139.722 252.028 139.129 251.832 138.737 251.44C138.355 251.048 138.163 250.427 138.163 249.578V241.318H140.235V249.27C140.235 249.69 140.301 249.984 140.431 250.152C140.562 250.311 140.758 250.409 141.019 250.446L141.593 250.53V252.028H140.515ZM144.148 252.084C143.579 252.084 143.117 251.916 142.762 251.58C142.407 251.244 142.23 250.777 142.23 250.18V249.508C142.23 248.939 142.431 248.472 142.832 248.108C143.233 247.735 143.859 247.548 144.708 247.548H146.626V247.03C146.626 246.797 146.584 246.605 146.5 246.456C146.425 246.297 146.271 246.185 146.038 246.12C145.805 246.045 145.455 246.008 144.988 246.008H142.734V244.804C143.107 244.692 143.532 244.594 144.008 244.51C144.484 244.426 145.063 244.384 145.744 244.384C146.369 244.384 146.901 244.459 147.34 244.608C147.779 244.757 148.115 245.014 148.348 245.378C148.581 245.742 148.698 246.246 148.698 246.89V252H147.06L146.724 251.202C146.64 251.295 146.472 251.412 146.22 251.552C145.968 251.683 145.66 251.804 145.296 251.916C144.941 252.028 144.559 252.084 144.148 252.084ZM145.198 250.642C145.357 250.642 145.539 250.619 145.744 250.572C145.959 250.516 146.15 250.46 146.318 250.404C146.495 250.339 146.598 250.297 146.626 250.278V248.528L145.366 248.612C144.657 248.668 144.302 248.976 144.302 249.536V249.844C144.302 250.143 144.386 250.353 144.554 250.474C144.731 250.586 144.946 250.642 145.198 250.642ZM152.979 252.084C152.662 252.084 152.317 252.07 151.943 252.042C151.579 252.023 151.229 251.991 150.893 251.944C150.557 251.888 150.282 251.823 150.067 251.748V250.53H153.399C153.689 250.53 153.903 250.493 154.043 250.418C154.183 250.334 154.253 250.166 154.253 249.914V249.676C154.253 249.489 154.193 249.345 154.071 249.242C153.95 249.139 153.726 249.088 153.399 249.088H152.223C151.794 249.088 151.407 249.027 151.061 248.906C150.716 248.775 150.441 248.561 150.235 248.262C150.039 247.963 149.941 247.557 149.941 247.044V246.61C149.941 246.134 150.035 245.733 150.221 245.406C150.408 245.079 150.721 244.832 151.159 244.664C151.598 244.496 152.2 244.412 152.965 244.412C153.273 244.412 153.6 244.431 153.945 244.468C154.3 244.496 154.631 244.538 154.939 244.594C155.257 244.65 155.509 244.706 155.695 244.762V245.98H152.545C152.275 245.98 152.069 246.027 151.929 246.12C151.789 246.204 151.719 246.367 151.719 246.61V246.834C151.719 247.077 151.794 247.235 151.943 247.31C152.093 247.385 152.321 247.422 152.629 247.422H153.833C154.599 247.422 155.154 247.599 155.499 247.954C155.854 248.299 156.031 248.78 156.031 249.396V250.068C156.031 250.833 155.765 251.361 155.233 251.65C154.711 251.939 153.959 252.084 152.979 252.084ZM160.048 252.084C159.73 252.084 159.385 252.07 159.012 252.042C158.648 252.023 158.298 251.991 157.962 251.944C157.626 251.888 157.35 251.823 157.136 251.748V250.53H160.468C160.757 250.53 160.972 250.493 161.112 250.418C161.252 250.334 161.322 250.166 161.322 249.914V249.676C161.322 249.489 161.261 249.345 161.14 249.242C161.018 249.139 160.794 249.088 160.468 249.088H159.292C158.862 249.088 158.475 249.027 158.13 248.906C157.784 248.775 157.509 248.561 157.304 248.262C157.108 247.963 157.01 247.557 157.01 247.044V246.61C157.01 246.134 157.103 245.733 157.29 245.406C157.476 245.079 157.789 244.832 158.228 244.664C158.666 244.496 159.268 244.412 160.034 244.412C160.342 244.412 160.668 244.431 161.014 244.468C161.368 244.496 161.7 244.538 162.008 244.594C162.325 244.65 162.577 244.706 162.764 244.762V245.98H159.614C159.343 245.98 159.138 246.027 158.998 246.12C158.858 246.204 158.788 246.367 158.788 246.61V246.834C158.788 247.077 158.862 247.235 159.012 247.31C159.161 247.385 159.39 247.422 159.698 247.422H160.902C161.667 247.422 162.222 247.599 162.568 247.954C162.922 248.299 163.1 248.78 163.1 249.396V250.068C163.1 250.833 162.834 251.361 162.302 251.65C161.779 251.939 161.028 252.084 160.048 252.084ZM171.103 252.07C170.646 252.07 170.184 252.051 169.717 252.014C169.26 251.977 168.845 251.921 168.471 251.846V250.208H170.907C171.607 250.208 172.121 249.993 172.447 249.564C172.774 249.125 172.937 248.481 172.937 247.632C172.62 247.725 172.265 247.791 171.873 247.828C171.491 247.856 171.066 247.87 170.599 247.87C169.573 247.87 168.859 247.66 168.457 247.24C168.056 246.811 167.855 246.227 167.855 245.49V244.006C167.855 243.129 168.093 242.503 168.569 242.13C169.045 241.757 169.661 241.57 170.417 241.57H171.915C172.419 241.57 172.863 241.649 173.245 241.808C173.637 241.957 173.964 242.223 174.225 242.606C174.487 242.979 174.683 243.497 174.813 244.16C174.953 244.823 175.023 245.663 175.023 246.68C175.023 248.033 174.865 249.102 174.547 249.886C174.239 250.67 173.791 251.23 173.203 251.566C172.625 251.902 171.925 252.07 171.103 252.07ZM171.187 246.106H172.937C172.937 245.397 172.886 244.851 172.783 244.468C172.681 244.076 172.522 243.805 172.307 243.656C172.102 243.507 171.836 243.432 171.509 243.432H170.879C170.581 243.432 170.347 243.507 170.179 243.656C170.011 243.805 169.927 244.062 169.927 244.426V245.098C169.927 245.509 170.025 245.779 170.221 245.91C170.427 246.041 170.749 246.106 171.187 246.106ZM181.705 252.084C181.135 252.084 180.673 251.916 180.319 251.58C179.964 251.244 179.787 250.777 179.787 250.18V249.508C179.787 248.939 179.987 248.472 180.389 248.108C180.79 247.735 181.415 247.548 182.265 247.548H184.183V247.03C184.183 246.797 184.141 246.605 184.057 246.456C183.982 246.297 183.828 246.185 183.595 246.12C183.361 246.045 183.011 246.008 182.545 246.008H180.291V244.804C180.664 244.692 181.089 244.594 181.565 244.51C182.041 244.426 182.619 244.384 183.301 244.384C183.926 244.384 184.458 244.459 184.897 244.608C185.335 244.757 185.671 245.014 185.905 245.378C186.138 245.742 186.255 246.246 186.255 246.89V252H184.617L184.281 251.202C184.197 251.295 184.029 251.412 183.777 251.552C183.525 251.683 183.217 251.804 182.853 251.916C182.498 252.028 182.115 252.084 181.705 252.084ZM182.755 250.642C182.913 250.642 183.095 250.619 183.301 250.572C183.515 250.516 183.707 250.46 183.875 250.404C184.052 250.339 184.155 250.297 184.183 250.278V248.528L182.923 248.612C182.213 248.668 181.859 248.976 181.859 249.536V249.844C181.859 250.143 181.943 250.353 182.111 250.474C182.288 250.586 182.503 250.642 182.755 250.642ZM187.806 252V244.482H189.514L189.878 245.252C190.158 245.028 190.512 244.823 190.942 244.636C191.371 244.449 191.805 244.356 192.244 244.356C192.86 244.356 193.336 244.477 193.672 244.72C194.008 244.963 194.241 245.289 194.372 245.7C194.512 246.101 194.582 246.549 194.582 247.044V252H192.51V247.31C192.51 246.946 192.412 246.675 192.216 246.498C192.02 246.311 191.758 246.218 191.432 246.218C191.133 246.218 190.853 246.269 190.592 246.372C190.34 246.475 190.102 246.61 189.878 246.778V252H187.806ZM198.596 252.084C197.709 252.084 197.037 251.799 196.58 251.23C196.132 250.651 195.908 249.681 195.908 248.318C195.908 247.394 195.992 246.643 196.16 246.064C196.337 245.476 196.631 245.047 197.042 244.776C197.453 244.505 198.017 244.37 198.736 244.37C199.072 244.37 199.408 244.407 199.744 244.482C200.089 244.547 200.393 244.627 200.654 244.72V241.318H202.74V252H200.99L200.654 251.286C200.411 251.501 200.099 251.687 199.716 251.846C199.343 252.005 198.969 252.084 198.596 252.084ZM199.324 250.418C199.604 250.418 199.856 250.371 200.08 250.278C200.313 250.185 200.505 250.091 200.654 249.998V246.218C200.477 246.143 200.281 246.078 200.066 246.022C199.861 245.957 199.641 245.924 199.408 245.924C199.063 245.924 198.783 245.985 198.568 246.106C198.363 246.227 198.213 246.456 198.12 246.792C198.027 247.119 197.98 247.595 197.98 248.22C197.98 248.808 198.022 249.261 198.106 249.578C198.199 249.895 198.344 250.115 198.54 250.236C198.736 250.357 198.997 250.418 199.324 250.418ZM209.373 252V243.53L207.539 243.768V242.438L209.597 241.542H211.445V252H209.373ZM215.8 252.056C214.932 252.056 214.26 251.832 213.784 251.384C213.318 250.927 213.084 250.259 213.084 249.382V244.342C213.084 243.437 213.327 242.746 213.812 242.27C214.298 241.794 214.965 241.556 215.814 241.556H217.97C218.848 241.556 219.506 241.803 219.944 242.298C220.383 242.783 220.602 243.465 220.602 244.342V249.382C220.602 250.25 220.369 250.913 219.902 251.37C219.445 251.827 218.801 252.056 217.97 252.056H215.8ZM216.29 250.194H217.41C218.157 250.194 218.53 249.821 218.53 249.074V244.538C218.53 244.127 218.437 243.838 218.25 243.67C218.064 243.502 217.812 243.418 217.494 243.418H216.22C215.511 243.418 215.156 243.791 215.156 244.538V249.06C215.156 249.461 215.254 249.751 215.45 249.928C215.646 250.105 215.926 250.194 216.29 250.194Z" fill="white"/>
<path d="M80.664 227V212.154C80.664 211.01 80.8893 210.117 81.34 209.476C81.7907 208.835 82.354 208.393 83.03 208.15C83.706 207.89 84.382 207.76 85.058 207.76C85.682 207.76 86.4533 207.769 87.372 207.786C88.308 207.803 89.296 207.838 90.336 207.89C91.3933 207.925 92.4073 207.994 93.378 208.098V211.322H86.124C85.5867 211.322 85.1793 211.469 84.902 211.764C84.642 212.041 84.512 212.405 84.512 212.856V216.158L92.13 216.366V219.408L84.512 219.616V227H80.664ZM100.96 227.13C99.4174 227.13 98.178 226.913 97.242 226.48C96.306 226.029 95.6214 225.284 95.188 224.244C94.772 223.204 94.564 221.783 94.564 219.98C94.564 218.073 94.7807 216.609 95.214 215.586C95.6474 214.546 96.332 213.827 97.268 213.428C98.204 213.029 99.4347 212.83 100.96 212.83C102.503 212.83 103.742 213.038 104.678 213.454C105.631 213.87 106.316 214.598 106.732 215.638C107.165 216.678 107.382 218.125 107.382 219.98C107.382 221.835 107.174 223.282 106.758 224.322C106.342 225.362 105.666 226.09 104.73 226.506C103.794 226.922 102.537 227.13 100.96 227.13ZM100.96 224.062C101.567 224.062 102.061 223.975 102.442 223.802C102.823 223.629 103.101 223.256 103.274 222.684C103.447 222.095 103.534 221.193 103.534 219.98C103.534 218.749 103.447 217.848 103.274 217.276C103.101 216.704 102.823 216.331 102.442 216.158C102.061 215.985 101.567 215.898 100.96 215.898C100.353 215.898 99.8594 215.985 99.478 216.158C99.114 216.331 98.8454 216.704 98.672 217.276C98.4987 217.848 98.412 218.749 98.412 219.98C98.412 221.193 98.4987 222.095 98.672 222.684C98.8454 223.256 99.114 223.629 99.478 223.802C99.8594 223.975 100.353 224.062 100.96 224.062ZM113.887 227.156C112.622 227.156 111.634 226.792 110.923 226.064C110.23 225.319 109.883 224.27 109.883 222.918V213.038H113.731V221.774C113.731 222.554 113.913 223.083 114.277 223.36C114.641 223.62 115.135 223.75 115.759 223.75C116.244 223.75 116.738 223.663 117.241 223.49C117.761 223.299 118.22 223.048 118.619 222.736V213.038H122.493V227H119.295L118.619 225.57C117.978 225.986 117.25 226.359 116.435 226.688C115.638 227 114.788 227.156 113.887 227.156ZM125.398 227V213.038H128.57L129.246 214.468C129.766 214.052 130.425 213.671 131.222 213.324C132.019 212.977 132.825 212.804 133.64 212.804C134.784 212.804 135.668 213.029 136.292 213.48C136.916 213.931 137.349 214.537 137.592 215.3C137.852 216.045 137.982 216.877 137.982 217.796V227H134.134V218.29C134.134 217.614 133.952 217.111 133.588 216.782C133.224 216.435 132.739 216.262 132.132 216.262C131.577 216.262 131.057 216.357 130.572 216.548C130.104 216.739 129.662 216.99 129.246 217.302V227H125.398ZM145.437 227.156C143.79 227.156 142.542 226.627 141.693 225.57C140.861 224.495 140.445 222.693 140.445 220.162C140.445 218.446 140.601 217.051 140.913 215.976C141.242 214.884 141.788 214.087 142.551 213.584C143.314 213.081 144.362 212.83 145.697 212.83C146.321 212.83 146.945 212.899 147.569 213.038C148.21 213.159 148.774 213.307 149.259 213.48V207.162H153.133V227H149.883L149.259 225.674C148.808 226.073 148.228 226.419 147.517 226.714C146.824 227.009 146.13 227.156 145.437 227.156ZM146.789 224.062C147.309 224.062 147.777 223.975 148.193 223.802C148.626 223.629 148.982 223.455 149.259 223.282V216.262C148.93 216.123 148.566 216.002 148.167 215.898C147.786 215.777 147.378 215.716 146.945 215.716C146.304 215.716 145.784 215.829 145.385 216.054C145.004 216.279 144.726 216.704 144.553 217.328C144.38 217.935 144.293 218.819 144.293 219.98C144.293 221.072 144.371 221.913 144.527 222.502C144.7 223.091 144.969 223.499 145.333 223.724C145.697 223.949 146.182 224.062 146.789 224.062ZM158.983 227.156C157.926 227.156 157.068 226.844 156.409 226.22C155.75 225.596 155.421 224.729 155.421 223.62V222.372C155.421 221.315 155.794 220.448 156.539 219.772C157.284 219.079 158.446 218.732 160.023 218.732H163.585V217.77C163.585 217.337 163.507 216.981 163.351 216.704C163.212 216.409 162.926 216.201 162.493 216.08C162.06 215.941 161.41 215.872 160.543 215.872H156.357V213.636C157.05 213.428 157.839 213.246 158.723 213.09C159.607 212.934 160.682 212.856 161.947 212.856C163.108 212.856 164.096 212.995 164.911 213.272C165.726 213.549 166.35 214.026 166.783 214.702C167.216 215.378 167.433 216.314 167.433 217.51V227H164.391L163.767 225.518C163.611 225.691 163.299 225.908 162.831 226.168C162.363 226.411 161.791 226.636 161.115 226.844C160.456 227.052 159.746 227.156 158.983 227.156ZM160.933 224.478C161.228 224.478 161.566 224.435 161.947 224.348C162.346 224.244 162.701 224.14 163.013 224.036C163.342 223.915 163.533 223.837 163.585 223.802V220.552L161.245 220.708C159.928 220.812 159.269 221.384 159.269 222.424V222.996C159.269 223.551 159.425 223.941 159.737 224.166C160.066 224.374 160.465 224.478 160.933 224.478ZM175.618 227C174.006 227 172.845 226.636 172.134 225.908C171.441 225.18 171.12 223.889 171.172 222.034L171.302 216.132H169.118V213.662L171.432 213.038L171.952 209.138H174.994V213.038H178.27V216.132H174.994V222.008C174.994 222.771 175.133 223.282 175.41 223.542C175.687 223.785 176.008 223.932 176.372 223.984L178.14 224.14V227H175.618ZM180.888 210.984C180.524 210.984 180.342 210.811 180.342 210.464V207.916C180.342 207.552 180.524 207.37 180.888 207.37H183.852C184.181 207.37 184.346 207.552 184.346 207.916V210.464C184.346 210.811 184.181 210.984 183.852 210.984H180.888ZM180.42 227V213.038H184.268V227H180.42ZM193.204 227.13C191.662 227.13 190.422 226.913 189.486 226.48C188.55 226.029 187.866 225.284 187.432 224.244C187.016 223.204 186.808 221.783 186.808 219.98C186.808 218.073 187.025 216.609 187.458 215.586C187.892 214.546 188.576 213.827 189.512 213.428C190.448 213.029 191.679 212.83 193.204 212.83C194.747 212.83 195.986 213.038 196.922 213.454C197.876 213.87 198.56 214.598 198.976 215.638C199.41 216.678 199.626 218.125 199.626 219.98C199.626 221.835 199.418 223.282 199.002 224.322C198.586 225.362 197.91 226.09 196.974 226.506C196.038 226.922 194.782 227.13 193.204 227.13ZM193.204 224.062C193.811 224.062 194.305 223.975 194.686 223.802C195.068 223.629 195.345 223.256 195.518 222.684C195.692 222.095 195.778 221.193 195.778 219.98C195.778 218.749 195.692 217.848 195.518 217.276C195.345 216.704 195.068 216.331 194.686 216.158C194.305 215.985 193.811 215.898 193.204 215.898C192.598 215.898 192.104 215.985 191.722 216.158C191.358 216.331 191.09 216.704 190.916 217.276C190.743 217.848 190.656 218.749 190.656 219.98C190.656 221.193 190.743 222.095 190.916 222.684C191.09 223.256 191.358 223.629 191.722 223.802C192.104 223.975 192.598 224.062 193.204 224.062ZM202.179 227V213.038H205.351L206.027 214.468C206.547 214.052 207.206 213.671 208.003 213.324C208.801 212.977 209.607 212.804 210.421 212.804C211.565 212.804 212.449 213.029 213.073 213.48C213.697 213.931 214.131 214.537 214.373 215.3C214.633 216.045 214.763 216.877 214.763 217.796V227H210.915V218.29C210.915 217.614 210.733 217.111 210.369 216.782C210.005 216.435 209.52 216.262 208.913 216.262C208.359 216.262 207.839 216.357 207.353 216.548C206.885 216.739 206.443 216.99 206.027 217.302V227H202.179Z" fill="white"/>
<path d="M180.639 134.333V123.089L176.029 124.938L176.008 124.916L175.902 124.72C174.126 121.893 171.272 119.914 168.058 119.327L156.958 117.239V116.348C161.102 113.868 164.147 109.649 165.098 104.647C168.164 103.995 170.49 101.189 170.49 97.8401V80.6158C170.49 75.766 167.403 71.5252 162.92 70.1551L162.074 69.2851C158.121 65.2183 152.898 63 147.337 63C135.856 63 126.511 72.6126 126.511 84.4217V97.7966C126.511 101.146 128.836 103.951 131.902 104.604C132.854 109.606 135.898 113.825 140.043 116.304V117.196L128.942 119.262C125.728 119.871 122.874 121.828 121.098 124.655L120.992 124.916L116.362 123.068V134.333C113.571 134.333 111.287 136.682 111.287 139.553V146.512C111.287 149.383 113.571 151.731 116.362 151.731V158.147L148.5 171L180.639 158.147V151.731C183.43 151.731 185.713 149.383 185.713 146.512V139.553C185.713 136.682 183.43 134.333 180.639 134.333Z" fill="#37679F"/>
<path d="M160.129 121.35L167.445 122.72C169.601 123.133 171.504 124.394 172.794 126.221L156.429 132.767L160.129 121.35Z" fill="white"/>
<path d="M143.573 117.913C145.138 118.414 146.787 118.675 148.5 118.675C150.212 118.675 151.862 118.414 153.426 117.913L148.5 121.719L143.573 117.913Z" fill="white"/>
<path d="M145.921 124.09L142.474 127.635L140.233 120.719L141.311 120.523L145.921 124.09Z" fill="#37679F"/>
<path d="M155.689 120.523L156.767 120.719L154.526 127.635L151.08 124.09L155.689 120.523Z" fill="#37679F"/>
<path d="M165.415 100.798V94.7954C166.43 95.4044 167.107 96.5135 167.107 97.7966C167.107 99.0797 166.43 100.189 165.415 100.798Z" fill="white"/>
<path d="M131.585 100.798C130.57 100.189 129.894 99.0797 129.894 97.7966C129.894 96.5135 130.57 95.4044 131.585 94.7954V100.798Z" fill="white"/>
<path d="M131.585 89.0975V91.0765C130.993 91.2288 130.422 91.4897 129.894 91.7942V84.4217C129.894 74.5264 137.717 66.4797 147.337 66.4797C151.989 66.4797 156.387 68.35 159.664 71.7426L161.165 73.2867L161.63 73.3955C164.865 74.2219 167.107 77.2014 167.107 80.6158V91.8159C166.578 91.5115 166.007 91.2505 165.415 91.0983V89.0975H160.045C155.456 89.0975 151.08 86.8357 148.331 83.0733L146.978 81.2247L143.616 84.6826C140.846 87.5316 137.167 89.0975 133.255 89.0975H131.585Z" fill="white"/>
<path d="M134.968 101.276V92.4901C139.154 92.0987 143.024 90.2284 146.026 87.1402L146.681 86.466C150.064 90.3153 154.949 92.5771 160.044 92.5771H162.032V101.276C162.032 108.953 155.964 115.195 148.5 115.195C141.036 115.195 134.968 108.953 134.968 101.276Z" fill="white"/>
<path d="M129.555 122.72L136.871 121.35L140.571 132.767L124.206 126.221C125.474 124.394 127.398 123.133 129.555 122.72Z" fill="white"/>
<path d="M114.67 146.512V139.553C114.67 138.596 115.431 137.813 116.361 137.813C119.152 137.813 121.436 140.161 121.436 143.032C121.436 145.903 119.152 148.252 116.361 148.252C115.431 148.252 114.67 147.469 114.67 146.512Z" fill="white"/>
<path d="M146.809 166.585L119.745 155.755V150.992C122.726 149.644 124.819 146.599 124.819 143.032C124.819 139.466 122.726 136.421 119.745 135.072V128.178L146.809 139.009V166.585Z" fill="white"/>
<path d="M141.776 133.267L148.5 126.352L155.203 133.267L148.5 135.942L141.776 133.267Z" fill="white"/>
<path d="M177.255 155.755L150.191 166.585V139.009L177.255 128.178V135.072C174.274 136.421 172.181 139.466 172.181 143.032C172.181 146.599 174.274 149.644 177.255 150.992V155.755Z" fill="white"/>
<path d="M182.33 146.512C182.33 147.469 181.569 148.252 180.638 148.252C177.847 148.252 175.564 145.903 175.564 143.032C175.564 140.161 177.847 137.813 180.638 137.813C181.569 137.813 182.33 138.596 182.33 139.553V146.512Z" fill="white"/>
<path d="M104.286 53H195.717C205.816 53 214 61.189 214 71.2791V162.721C214 172.821 205.816 181 195.717 181H104.286C94.1873 181 86 172.811 86 162.721V71.289C86 61.189 94.1873 53 104.286 53Z" stroke="white" stroke-width="2"/>
<defs>
<filter id="filter0_d" x="0" y="0" width="313" height="307" filterUnits="userSpaceOnUse" color-interpolation-filters="sRGB">
<feFlood flood-opacity="0" result="BackgroundImageFix"/>
<feColorMatrix in="SourceAlpha" type="matrix" values="0 0 0 0 0 0 0 0 0 0 0 0 0 0 0 0 0 0 127 0"/>
<feOffset dx="10" dy="10"/>
<feGaussianBlur stdDeviation="5"/>
<feColorMatrix type="matrix" values="0 0 0 0 0 0 0 0 0 0 0 0 0 0 0 0 0 0 0.25 0"/>
<feBlend mode="normal" in2="BackgroundImageFix" result="effect1_dropShadow"/>
<feBlend mode="normal" in="SourceGraphic" in2="effect1_dropShadow" result="shape"/>
</filter>
<linearGradient id="paint0_linear" x1="44.9593" y1="27.1487" x2="436.176" y2="185.293" gradientUnits="userSpaceOnUse">
<stop stop-color="#0071BC"/>
<stop offset="1" stop-color="#1B1464"/>
</linearGradient>
</defs>
</svg>
