<svg width="313" height="307" viewBox="0 0 313 307" fill="none" xmlns="http://www.w3.org/2000/svg">
<g filter="url(#filter0_d)">
<rect width="293" height="287" rx="40" fill="white"/>
</g>
<rect x="77" y="55" width="139" height="139" rx="11" stroke="#37679F" stroke-width="2"/>
<path d="M181.397 143.453L174.495 141.428L159.448 131.604V129.35C163.797 126.059 166.788 121.044 167.34 115.292C169.526 114.947 171.205 113.037 171.205 110.76V104.571C171.205 104.548 171.205 104.525 171.205 104.502V96.6561C172.079 96.0349 172.632 95.0226 172.632 93.8722V86.6939L183.008 84.9224C184.71 84.6233 185.93 83.2658 186.068 81.5403C186.183 79.8147 185.171 78.2963 183.514 77.7671L148.497 66.6776C147.761 66.4475 147.001 66.4475 146.265 66.6776L111.271 77.7901C109.615 78.3193 108.602 79.8377 108.717 81.5633C108.786 82.6676 109.315 83.6109 110.121 84.2321V93.6191H110.029C108.05 93.6191 106.463 95.2296 106.463 97.1853V101.833L104.162 115.384C103.771 117.731 105.565 119.87 107.958 119.87H115.757C118.127 119.87 119.945 117.731 119.554 115.384L117.253 101.833V97.1853C117.253 95.2066 115.642 93.6191 113.687 93.6191H113.595V85.2445L122.177 86.7169V93.8722C122.177 94.9996 122.729 96.0119 123.603 96.6331V104.548V110.737C123.603 113.014 125.283 114.924 127.468 115.269C128.02 121.021 131.011 126.036 135.36 129.326V131.581L120.313 141.405L113.411 143.43C106.025 145.593 100.803 152.38 100.803 160.271V165.425C100.803 166.368 101.585 167.151 102.528 167.151C103.472 167.151 104.254 166.368 104.254 165.425V160.271C104.254 154.059 108.418 148.492 114.377 146.743L120.819 144.856L146.541 160.133C147.07 160.432 147.761 160.455 148.313 160.133L174.035 144.856L180.477 146.743C186.436 148.492 190.6 154.059 190.6 160.271V176.929C190.6 179.068 188.852 180.817 186.712 180.817H179.097V173.386C179.097 172.442 178.314 171.66 177.371 171.66C176.428 171.66 175.646 172.442 175.646 173.386V180.84H119.163V173.409C119.163 172.465 118.38 171.683 117.437 171.683C116.494 171.683 115.711 172.465 115.711 173.409V180.84H108.119C105.979 180.84 104.254 179.091 104.254 176.952V173.501C104.254 172.557 103.472 171.775 102.528 171.775C101.585 171.775 100.803 172.557 100.803 173.501V176.952C100.803 181.001 104.093 184.268 108.119 184.268H186.689C190.738 184.268 194.005 180.978 194.005 176.952V160.294C194.005 152.587 188.967 145.685 181.397 143.453ZM141.204 144.902C145.276 145.478 149.509 145.478 153.559 144.902C152.776 146.835 151.81 148.699 150.66 150.47L147.393 155.509L144.103 150.47C142.952 148.699 141.986 146.835 141.204 144.902ZM166.074 86.3948L169.157 86.786V93.8492H125.605V86.7629L143.458 84.5542C146.058 84.2321 148.704 84.2321 151.304 84.5542L158.068 85.3825L166.074 86.3948ZM130.827 114.395C130.735 112.991 129.562 111.887 128.158 111.887C127.537 111.887 127.031 111.381 127.031 110.76V106.296H129.056C132.093 106.296 134.577 103.834 134.577 100.774V97.3003H160.208V100.774C160.208 103.811 162.669 106.296 165.729 106.296H167.754V110.76C167.754 111.381 167.248 111.887 166.627 111.887C165.223 111.887 164.05 112.991 163.958 114.395C163.406 123.115 156.135 129.925 147.393 129.925C138.65 129.925 131.379 123.115 130.827 114.395ZM147.393 133.399C150.453 133.399 153.374 132.709 155.997 131.443V132.548C155.997 135.492 155.606 138.414 154.824 141.221C150.13 142.119 144.839 142.142 139.961 141.221C139.202 138.414 138.788 135.515 138.788 132.548C138.788 132.502 138.788 132.478 138.788 132.432V132.409V131.443C141.411 132.686 144.31 133.399 147.393 133.399Z" fill="#37679F"/>
<path d="M63.8795 256.084C63.1702 256.084 62.5495 256.019 62.0175 255.888C61.4855 255.748 61.0422 255.496 60.6875 255.132C60.3328 254.759 60.0622 254.227 59.8755 253.536C59.6982 252.845 59.6095 251.945 59.6095 250.834C59.6095 249.723 59.6982 248.823 59.8755 248.132C60.0622 247.432 60.3328 246.895 60.6875 246.522C61.0515 246.149 61.4948 245.892 62.0175 245.752C62.5495 245.612 63.1702 245.542 63.8795 245.542C64.5888 245.542 65.2095 245.612 65.7415 245.752C66.2735 245.892 66.7168 246.149 67.0715 246.522C67.4262 246.895 67.6922 247.432 67.8695 248.132C68.0468 248.823 68.1355 249.723 68.1355 250.834C68.1355 251.945 68.0468 252.845 67.8695 253.536C67.6922 254.227 67.4262 254.759 67.0715 255.132C66.7168 255.496 66.2688 255.748 65.7275 255.888C65.1955 256.019 64.5795 256.084 63.8795 256.084ZM63.8795 254.222C64.2902 254.222 64.6355 254.18 64.9155 254.096C65.2048 254.003 65.4288 253.835 65.5875 253.592C65.7555 253.349 65.8768 253.009 65.9515 252.57C66.0262 252.122 66.0635 251.543 66.0635 250.834C66.0635 250.097 66.0262 249.504 65.9515 249.056C65.8768 248.599 65.7555 248.253 65.5875 248.02C65.4195 247.777 65.1955 247.614 64.9155 247.53C64.6355 247.446 64.2902 247.404 63.8795 247.404C63.4688 247.404 63.1235 247.446 62.8435 247.53C62.5728 247.614 62.3488 247.777 62.1715 248.02C62.0035 248.253 61.8775 248.599 61.7935 249.056C61.7188 249.504 61.6815 250.097 61.6815 250.834C61.6815 251.543 61.7142 252.122 61.7795 252.57C61.8542 253.009 61.9755 253.349 62.1435 253.592C62.3115 253.835 62.5355 254.003 62.8155 254.096C63.0955 254.18 63.4502 254.222 63.8795 254.222ZM69.5666 256V248.482H71.2746L71.6386 249.252C71.9186 249.028 72.2732 248.823 72.7026 248.636C73.1319 248.449 73.5659 248.356 74.0046 248.356C74.6206 248.356 75.0966 248.477 75.4326 248.72C75.7686 248.963 76.0019 249.289 76.1326 249.7C76.2726 250.101 76.3426 250.549 76.3426 251.044V256H74.2706V251.31C74.2706 250.946 74.1726 250.675 73.9766 250.498C73.7806 250.311 73.5192 250.218 73.1926 250.218C72.8939 250.218 72.6139 250.269 72.3526 250.372C72.1006 250.475 71.8626 250.61 71.6386 250.778V256H69.5666ZM79.8387 259.472C79.1294 259.472 78.5414 259.318 78.0747 259.01C77.6081 258.702 77.3747 258.254 77.3747 257.666V257.442C77.3747 257.059 77.4774 256.728 77.6827 256.448C77.8974 256.177 78.1727 255.963 78.5087 255.804C78.2567 255.655 78.0654 255.473 77.9347 255.258C77.8134 255.043 77.7527 254.81 77.7527 254.558C77.7527 254.175 77.8601 253.858 78.0747 253.606C78.2987 253.354 78.6067 253.181 78.9987 253.088C78.5507 252.845 78.2381 252.533 78.0607 252.15C77.8834 251.767 77.7947 251.361 77.7947 250.932C77.7947 250.101 78.0514 249.485 78.5647 249.084C79.0781 248.683 79.8621 248.482 80.9167 248.482H84.9907V249.616L83.8427 249.826C83.9734 249.966 84.0994 250.153 84.2207 250.386C84.3421 250.61 84.4027 250.946 84.4027 251.394C84.4027 251.823 84.3094 252.215 84.1227 252.57C83.9454 252.915 83.6561 253.191 83.2547 253.396C82.8627 253.592 82.3401 253.69 81.6867 253.69H80.3567C80.1047 253.69 79.8994 253.727 79.7407 253.802C79.5821 253.877 79.5027 254.012 79.5027 254.208C79.5027 254.367 79.5681 254.479 79.6987 254.544C79.8387 254.6 79.9927 254.628 80.1607 254.628H82.2327C83.0914 254.628 83.7587 254.801 84.2347 255.146C84.7107 255.491 84.9487 256.07 84.9487 256.882V257.092C84.9487 257.829 84.7154 258.408 84.2487 258.828C83.7821 259.257 83.0634 259.472 82.0927 259.472H79.8387ZM80.6507 252.136H81.4487C81.8781 252.136 82.1627 252.043 82.3027 251.856C82.4521 251.66 82.5267 251.408 82.5267 251.1C82.5267 250.708 82.4381 250.433 82.2607 250.274C82.0834 250.115 81.8314 250.036 81.5047 250.036H80.7207C80.3661 250.036 80.1001 250.115 79.9227 250.274C79.7454 250.423 79.6567 250.689 79.6567 251.072C79.6567 251.445 79.7407 251.716 79.9087 251.884C80.0767 252.052 80.3241 252.136 80.6507 252.136ZM80.4127 258.016H81.8407C82.1861 258.016 82.4614 257.946 82.6667 257.806C82.8814 257.675 82.9887 257.475 82.9887 257.204V256.98C82.9887 256.737 82.9001 256.541 82.7227 256.392C82.5547 256.252 82.2794 256.182 81.8967 256.182H80.3847C80.0767 256.182 79.8247 256.252 79.6287 256.392C79.4327 256.541 79.3347 256.756 79.3347 257.036V257.19C79.3347 257.741 79.6941 258.016 80.4127 258.016ZM89.2612 256.07C88.4305 256.07 87.7632 255.953 87.2592 255.72C86.7552 255.477 86.3865 255.076 86.1532 254.516C85.9292 253.956 85.8172 253.191 85.8172 252.22C85.8172 251.193 85.9338 250.405 86.1672 249.854C86.4005 249.294 86.7692 248.907 87.2732 248.692C87.7772 248.477 88.4398 248.37 89.2612 248.37C90.0918 248.37 90.7592 248.482 91.2632 248.706C91.7765 248.93 92.1452 249.322 92.3692 249.882C92.6025 250.442 92.7192 251.221 92.7192 252.22C92.7192 253.219 92.6072 253.998 92.3832 254.558C92.1592 255.118 91.7952 255.51 91.2912 255.734C90.7872 255.958 90.1105 256.07 89.2612 256.07ZM89.2612 254.418C89.5878 254.418 89.8538 254.371 90.0592 254.278C90.2645 254.185 90.4138 253.984 90.5072 253.676C90.6005 253.359 90.6472 252.873 90.6472 252.22C90.6472 251.557 90.6005 251.072 90.5072 250.764C90.4138 250.456 90.2645 250.255 90.0592 250.162C89.8538 250.069 89.5878 250.022 89.2612 250.022C88.9345 250.022 88.6685 250.069 88.4632 250.162C88.2672 250.255 88.1225 250.456 88.0292 250.764C87.9358 251.072 87.8892 251.557 87.8892 252.22C87.8892 252.873 87.9358 253.359 88.0292 253.676C88.1225 253.984 88.2672 254.185 88.4632 254.278C88.6685 254.371 88.9345 254.418 89.2612 254.418ZM94.3459 247.376C94.1499 247.376 94.0519 247.283 94.0519 247.096V245.724C94.0519 245.528 94.1499 245.43 94.3459 245.43H95.9419C96.1192 245.43 96.2079 245.528 96.2079 245.724V247.096C96.2079 247.283 96.1192 247.376 95.9419 247.376H94.3459ZM94.0939 256V248.482H96.1659V256H94.0939ZM97.758 256V248.482H99.466L99.83 249.252C100.11 249.028 100.465 248.823 100.894 248.636C101.323 248.449 101.757 248.356 102.196 248.356C102.812 248.356 103.288 248.477 103.624 248.72C103.96 248.963 104.193 249.289 104.324 249.7C104.464 250.101 104.534 250.549 104.534 251.044V256H102.462V251.31C102.462 250.946 102.364 250.675 102.168 250.498C101.972 250.311 101.711 250.218 101.384 250.218C101.085 250.218 100.805 250.269 100.544 250.372C100.292 250.475 100.054 250.61 99.83 250.778V256H97.758ZM108.03 259.472C107.321 259.472 106.733 259.318 106.266 259.01C105.799 258.702 105.566 258.254 105.566 257.666V257.442C105.566 257.059 105.669 256.728 105.874 256.448C106.089 256.177 106.364 255.963 106.7 255.804C106.448 255.655 106.257 255.473 106.126 255.258C106.005 255.043 105.944 254.81 105.944 254.558C105.944 254.175 106.051 253.858 106.266 253.606C106.49 253.354 106.798 253.181 107.19 253.088C106.742 252.845 106.429 252.533 106.252 252.15C106.075 251.767 105.986 251.361 105.986 250.932C105.986 250.101 106.243 249.485 106.756 249.084C107.269 248.683 108.053 248.482 109.108 248.482H113.182V249.616L112.034 249.826C112.165 249.966 112.291 250.153 112.412 250.386C112.533 250.61 112.594 250.946 112.594 251.394C112.594 251.823 112.501 252.215 112.314 252.57C112.137 252.915 111.847 253.191 111.446 253.396C111.054 253.592 110.531 253.69 109.878 253.69H108.548C108.296 253.69 108.091 253.727 107.932 253.802C107.773 253.877 107.694 254.012 107.694 254.208C107.694 254.367 107.759 254.479 107.89 254.544C108.03 254.6 108.184 254.628 108.352 254.628H110.424C111.283 254.628 111.95 254.801 112.426 255.146C112.902 255.491 113.14 256.07 113.14 256.882V257.092C113.14 257.829 112.907 258.408 112.44 258.828C111.973 259.257 111.255 259.472 110.284 259.472H108.03ZM108.842 252.136H109.64C110.069 252.136 110.354 252.043 110.494 251.856C110.643 251.66 110.718 251.408 110.718 251.1C110.718 250.708 110.629 250.433 110.452 250.274C110.275 250.115 110.023 250.036 109.696 250.036H108.912C108.557 250.036 108.291 250.115 108.114 250.274C107.937 250.423 107.848 250.689 107.848 251.072C107.848 251.445 107.932 251.716 108.1 251.884C108.268 252.052 108.515 252.136 108.842 252.136ZM108.604 258.016H110.032C110.377 258.016 110.653 257.946 110.858 257.806C111.073 257.675 111.18 257.475 111.18 257.204V256.98C111.18 256.737 111.091 256.541 110.914 256.392C110.746 256.252 110.471 256.182 110.088 256.182H108.576C108.268 256.182 108.016 256.252 107.82 256.392C107.624 256.541 107.526 256.756 107.526 257.036V257.19C107.526 257.741 107.885 258.016 108.604 258.016ZM121.426 256.084C120.829 256.084 120.297 256.014 119.83 255.874C119.363 255.734 118.971 255.477 118.654 255.104C118.337 254.731 118.094 254.199 117.926 253.508C117.758 252.808 117.674 251.903 117.674 250.792C117.674 249.719 117.758 248.841 117.926 248.16C118.103 247.479 118.355 246.947 118.682 246.564C119.009 246.181 119.405 245.915 119.872 245.766C120.339 245.617 120.866 245.542 121.454 245.542C122.145 245.542 122.77 245.598 123.33 245.71C123.899 245.813 124.352 245.92 124.688 246.032V247.642C124.436 247.586 124.053 247.535 123.54 247.488C123.036 247.432 122.485 247.404 121.888 247.404C121.496 247.404 121.16 247.451 120.88 247.544C120.609 247.628 120.39 247.791 120.222 248.034C120.063 248.267 119.942 248.608 119.858 249.056C119.783 249.504 119.746 250.087 119.746 250.806C119.746 251.739 119.807 252.453 119.928 252.948C120.049 253.433 120.264 253.769 120.572 253.956C120.88 254.133 121.319 254.222 121.888 254.222C122.588 254.222 123.162 254.208 123.61 254.18C124.058 254.152 124.417 254.119 124.688 254.082V255.678C124.305 255.809 123.843 255.911 123.302 255.986C122.77 256.051 122.145 256.084 121.426 256.084ZM128.397 256.028C127.604 256.028 127.011 255.832 126.619 255.44C126.236 255.048 126.045 254.427 126.045 253.578V245.318H128.117V253.27C128.117 253.69 128.182 253.984 128.313 254.152C128.444 254.311 128.64 254.409 128.901 254.446L129.475 254.53V256.028H128.397ZM132.03 256.084C131.46 256.084 130.998 255.916 130.644 255.58C130.289 255.244 130.112 254.777 130.112 254.18V253.508C130.112 252.939 130.312 252.472 130.714 252.108C131.115 251.735 131.74 251.548 132.59 251.548H134.508V251.03C134.508 250.797 134.466 250.605 134.382 250.456C134.307 250.297 134.153 250.185 133.92 250.12C133.686 250.045 133.336 250.008 132.87 250.008H130.616V248.804C130.989 248.692 131.414 248.594 131.89 248.51C132.366 248.426 132.944 248.384 133.626 248.384C134.251 248.384 134.783 248.459 135.222 248.608C135.66 248.757 135.996 249.014 136.23 249.378C136.463 249.742 136.58 250.246 136.58 250.89V256H134.942L134.606 255.202C134.522 255.295 134.354 255.412 134.102 255.552C133.85 255.683 133.542 255.804 133.178 255.916C132.823 256.028 132.44 256.084 132.03 256.084ZM133.08 254.642C133.238 254.642 133.42 254.619 133.626 254.572C133.84 254.516 134.032 254.46 134.2 254.404C134.377 254.339 134.48 254.297 134.508 254.278V252.528L133.248 252.612C132.538 252.668 132.184 252.976 132.184 253.536V253.844C132.184 254.143 132.268 254.353 132.436 254.474C132.613 254.586 132.828 254.642 133.08 254.642ZM140.861 256.084C140.544 256.084 140.198 256.07 139.825 256.042C139.461 256.023 139.111 255.991 138.775 255.944C138.439 255.888 138.164 255.823 137.949 255.748V254.53H141.281C141.57 254.53 141.785 254.493 141.925 254.418C142.065 254.334 142.135 254.166 142.135 253.914V253.676C142.135 253.489 142.074 253.345 141.953 253.242C141.832 253.139 141.608 253.088 141.281 253.088H140.105C139.676 253.088 139.288 253.027 138.943 252.906C138.598 252.775 138.322 252.561 138.117 252.262C137.921 251.963 137.823 251.557 137.823 251.044V250.61C137.823 250.134 137.916 249.733 138.103 249.406C138.29 249.079 138.602 248.832 139.041 248.664C139.48 248.496 140.082 248.412 140.847 248.412C141.155 248.412 141.482 248.431 141.827 248.468C142.182 248.496 142.513 248.538 142.821 248.594C143.138 248.65 143.39 248.706 143.577 248.762V249.98H140.427C140.156 249.98 139.951 250.027 139.811 250.12C139.671 250.204 139.601 250.367 139.601 250.61V250.834C139.601 251.077 139.676 251.235 139.825 251.31C139.974 251.385 140.203 251.422 140.511 251.422H141.715C142.48 251.422 143.036 251.599 143.381 251.954C143.736 252.299 143.913 252.78 143.913 253.396V254.068C143.913 254.833 143.647 255.361 143.115 255.65C142.592 255.939 141.841 256.084 140.861 256.084ZM147.929 256.084C147.612 256.084 147.267 256.07 146.893 256.042C146.529 256.023 146.179 255.991 145.843 255.944C145.507 255.888 145.232 255.823 145.017 255.748V254.53H148.349C148.639 254.53 148.853 254.493 148.993 254.418C149.133 254.334 149.203 254.166 149.203 253.914V253.676C149.203 253.489 149.143 253.345 149.021 253.242C148.9 253.139 148.676 253.088 148.349 253.088H147.173C146.744 253.088 146.357 253.027 146.011 252.906C145.666 252.775 145.391 252.561 145.185 252.262C144.989 251.963 144.891 251.557 144.891 251.044V250.61C144.891 250.134 144.985 249.733 145.171 249.406C145.358 249.079 145.671 248.832 146.109 248.664C146.548 248.496 147.15 248.412 147.915 248.412C148.223 248.412 148.55 248.431 148.895 248.468C149.25 248.496 149.581 248.538 149.889 248.594C150.207 248.65 150.459 248.706 150.645 248.762V249.98H147.495C147.225 249.98 147.019 250.027 146.879 250.12C146.739 250.204 146.669 250.367 146.669 250.61V250.834C146.669 251.077 146.744 251.235 146.893 251.31C147.043 251.385 147.271 251.422 147.579 251.422H148.783C149.549 251.422 150.104 251.599 150.449 251.954C150.804 252.299 150.981 252.78 150.981 253.396V254.068C150.981 254.833 150.715 255.361 150.183 255.65C149.661 255.939 148.909 256.084 147.929 256.084ZM157.347 256V247.53L155.513 247.768V246.438L157.571 245.542H159.419V256H157.347ZM162.556 256V247.53L160.722 247.768V246.438L162.78 245.542H164.628V256H162.556ZM166.967 257.246C166.79 257.246 166.636 257.232 166.505 257.204C166.374 257.176 166.309 257.162 166.309 257.162V256.504C166.44 256.504 166.533 256.485 166.589 256.448C166.654 256.411 166.687 256.336 166.687 256.224V255.86H166.547C166.351 255.86 166.253 255.757 166.253 255.552V254.334C166.253 254.119 166.351 254.012 166.547 254.012H167.723C167.835 254.012 167.91 254.045 167.947 254.11C167.994 254.166 168.017 254.241 168.017 254.334V256.252C168.017 256.532 167.961 256.742 167.849 256.882C167.746 257.022 167.611 257.115 167.443 257.162C167.284 257.218 167.126 257.246 166.967 257.246ZM173.16 256.084C172.563 256.084 172.031 256.014 171.564 255.874C171.098 255.734 170.706 255.477 170.388 255.104C170.071 254.731 169.828 254.199 169.66 253.508C169.492 252.808 169.408 251.903 169.408 250.792C169.408 249.719 169.492 248.841 169.66 248.16C169.838 247.479 170.09 246.947 170.416 246.564C170.743 246.181 171.14 245.915 171.606 245.766C172.073 245.617 172.6 245.542 173.188 245.542C173.879 245.542 174.504 245.598 175.064 245.71C175.634 245.813 176.086 245.92 176.422 246.032V247.642C176.17 247.586 175.788 247.535 175.274 247.488C174.77 247.432 174.22 247.404 173.622 247.404C173.23 247.404 172.894 247.451 172.614 247.544C172.344 247.628 172.124 247.791 171.956 248.034C171.798 248.267 171.676 248.608 171.592 249.056C171.518 249.504 171.48 250.087 171.48 250.806C171.48 251.739 171.541 252.453 171.662 252.948C171.784 253.433 171.998 253.769 172.306 253.956C172.614 254.133 173.053 254.222 173.622 254.222C174.322 254.222 174.896 254.208 175.344 254.18C175.792 254.152 176.152 254.119 176.422 254.082V255.678C176.04 255.809 175.578 255.911 175.036 255.986C174.504 256.051 173.879 256.084 173.16 256.084ZM180.131 256.028C179.338 256.028 178.745 255.832 178.353 255.44C177.971 255.048 177.779 254.427 177.779 253.578V245.318H179.851V253.27C179.851 253.69 179.917 253.984 180.047 254.152C180.178 254.311 180.374 254.409 180.635 254.446L181.209 254.53V256.028H180.131ZM183.764 256.084C183.195 256.084 182.733 255.916 182.378 255.58C182.023 255.244 181.846 254.777 181.846 254.18V253.508C181.846 252.939 182.047 252.472 182.448 252.108C182.849 251.735 183.475 251.548 184.324 251.548H186.242V251.03C186.242 250.797 186.2 250.605 186.116 250.456C186.041 250.297 185.887 250.185 185.654 250.12C185.421 250.045 185.071 250.008 184.604 250.008H182.35V248.804C182.723 248.692 183.148 248.594 183.624 248.51C184.1 248.426 184.679 248.384 185.36 248.384C185.985 248.384 186.517 248.459 186.956 248.608C187.395 248.757 187.731 249.014 187.964 249.378C188.197 249.742 188.314 250.246 188.314 250.89V256H186.676L186.34 255.202C186.256 255.295 186.088 255.412 185.836 255.552C185.584 255.683 185.276 255.804 184.912 255.916C184.557 256.028 184.175 256.084 183.764 256.084ZM184.814 254.642C184.973 254.642 185.155 254.619 185.36 254.572C185.575 254.516 185.766 254.46 185.934 254.404C186.111 254.339 186.214 254.297 186.242 254.278V252.528L184.982 252.612C184.273 252.668 183.918 252.976 183.918 253.536V253.844C183.918 254.143 184.002 254.353 184.17 254.474C184.347 254.586 184.562 254.642 184.814 254.642ZM192.595 256.084C192.278 256.084 191.933 256.07 191.559 256.042C191.195 256.023 190.845 255.991 190.509 255.944C190.173 255.888 189.898 255.823 189.683 255.748V254.53H193.015C193.305 254.53 193.519 254.493 193.659 254.418C193.799 254.334 193.869 254.166 193.869 253.914V253.676C193.869 253.489 193.809 253.345 193.687 253.242C193.566 253.139 193.342 253.088 193.015 253.088H191.839C191.41 253.088 191.023 253.027 190.677 252.906C190.332 252.775 190.057 252.561 189.851 252.262C189.655 251.963 189.557 251.557 189.557 251.044V250.61C189.557 250.134 189.651 249.733 189.837 249.406C190.024 249.079 190.337 248.832 190.775 248.664C191.214 248.496 191.816 248.412 192.581 248.412C192.889 248.412 193.216 248.431 193.561 248.468C193.916 248.496 194.247 248.538 194.555 248.594C194.873 248.65 195.125 248.706 195.311 248.762V249.98H192.161C191.891 249.98 191.685 250.027 191.545 250.12C191.405 250.204 191.335 250.367 191.335 250.61V250.834C191.335 251.077 191.41 251.235 191.559 251.31C191.709 251.385 191.937 251.422 192.245 251.422H193.449C194.215 251.422 194.77 251.599 195.115 251.954C195.47 252.299 195.647 252.78 195.647 253.396V254.068C195.647 254.833 195.381 255.361 194.849 255.65C194.327 255.939 193.575 256.084 192.595 256.084ZM199.664 256.084C199.346 256.084 199.001 256.07 198.628 256.042C198.264 256.023 197.914 255.991 197.578 255.944C197.242 255.888 196.966 255.823 196.752 255.748V254.53H200.084C200.373 254.53 200.588 254.493 200.728 254.418C200.868 254.334 200.938 254.166 200.938 253.914V253.676C200.938 253.489 200.877 253.345 200.756 253.242C200.634 253.139 200.41 253.088 200.084 253.088H198.908C198.478 253.088 198.091 253.027 197.746 252.906C197.4 252.775 197.125 252.561 196.92 252.262C196.724 251.963 196.626 251.557 196.626 251.044V250.61C196.626 250.134 196.719 249.733 196.906 249.406C197.092 249.079 197.405 248.832 197.844 248.664C198.282 248.496 198.884 248.412 199.65 248.412C199.958 248.412 200.284 248.431 200.63 248.468C200.984 248.496 201.316 248.538 201.624 248.594C201.941 248.65 202.193 248.706 202.38 248.762V249.98H199.23C198.959 249.98 198.754 250.027 198.614 250.12C198.474 250.204 198.404 250.367 198.404 250.61V250.834C198.404 251.077 198.478 251.235 198.628 251.31C198.777 251.385 199.006 251.422 199.314 251.422H200.518C201.283 251.422 201.838 251.599 202.184 251.954C202.538 252.299 202.716 252.78 202.716 253.396V254.068C202.716 254.833 202.45 255.361 201.918 255.65C201.395 255.939 200.644 256.084 199.664 256.084ZM209.081 256V247.53L207.247 247.768V246.438L209.305 245.542H211.153V256H209.081ZM212.666 256V254.334L216.124 250.904C216.535 250.503 216.838 250.139 217.034 249.812C217.24 249.476 217.342 249.112 217.342 248.72C217.342 248.347 217.23 248.053 217.006 247.838C216.782 247.623 216.386 247.516 215.816 247.516H212.904V245.892C213.352 245.808 213.847 245.733 214.388 245.668C214.939 245.593 215.55 245.556 216.222 245.556C217.034 245.556 217.669 245.668 218.126 245.892C218.593 246.116 218.924 246.438 219.12 246.858C219.316 247.278 219.414 247.787 219.414 248.384C219.414 249.084 219.274 249.695 218.994 250.218C218.714 250.741 218.299 251.273 217.748 251.814L215.424 254.124H219.736V256H212.666ZM226.229 256.084C225.66 256.084 225.198 255.916 224.843 255.58C224.488 255.244 224.311 254.777 224.311 254.18V253.508C224.311 252.939 224.512 252.472 224.913 252.108C225.314 251.735 225.94 251.548 226.789 251.548H228.707V251.03C228.707 250.797 228.665 250.605 228.581 250.456C228.506 250.297 228.352 250.185 228.119 250.12C227.886 250.045 227.536 250.008 227.069 250.008H224.815V248.804C225.188 248.692 225.613 248.594 226.089 248.51C226.565 248.426 227.144 248.384 227.825 248.384C228.45 248.384 228.982 248.459 229.421 248.608C229.86 248.757 230.196 249.014 230.429 249.378C230.662 249.742 230.779 250.246 230.779 250.89V256H229.141L228.805 255.202C228.721 255.295 228.553 255.412 228.301 255.552C228.049 255.683 227.741 255.804 227.377 255.916C227.022 256.028 226.64 256.084 226.229 256.084ZM227.279 254.642C227.438 254.642 227.62 254.619 227.825 254.572C228.04 254.516 228.231 254.46 228.399 254.404C228.576 254.339 228.679 254.297 228.707 254.278V252.528L227.447 252.612C226.738 252.668 226.383 252.976 226.383 253.536V253.844C226.383 254.143 226.467 254.353 226.635 254.474C226.812 254.586 227.027 254.642 227.279 254.642ZM232.33 256V248.482H234.038L234.402 249.252C234.682 249.028 235.037 248.823 235.466 248.636C235.896 248.449 236.33 248.356 236.768 248.356C237.384 248.356 237.86 248.477 238.196 248.72C238.532 248.963 238.766 249.289 238.896 249.7C239.036 250.101 239.106 250.549 239.106 251.044V256H237.034V251.31C237.034 250.946 236.936 250.675 236.74 250.498C236.544 250.311 236.283 250.218 235.956 250.218C235.658 250.218 235.378 250.269 235.116 250.372C234.864 250.475 234.626 250.61 234.402 250.778V256H232.33ZM243.12 256.084C242.234 256.084 241.562 255.799 241.104 255.23C240.656 254.651 240.432 253.681 240.432 252.318C240.432 251.394 240.516 250.643 240.684 250.064C240.862 249.476 241.156 249.047 241.566 248.776C241.977 248.505 242.542 248.37 243.26 248.37C243.596 248.37 243.932 248.407 244.268 248.482C244.614 248.547 244.917 248.627 245.178 248.72V245.318H247.264V256H245.514L245.178 255.286C244.936 255.501 244.623 255.687 244.24 255.846C243.867 256.005 243.494 256.084 243.12 256.084ZM243.848 254.418C244.128 254.418 244.38 254.371 244.604 254.278C244.838 254.185 245.029 254.091 245.178 253.998V250.218C245.001 250.143 244.805 250.078 244.59 250.022C244.385 249.957 244.166 249.924 243.932 249.924C243.587 249.924 243.307 249.985 243.092 250.106C242.887 250.227 242.738 250.456 242.644 250.792C242.551 251.119 242.504 251.595 242.504 252.22C242.504 252.808 242.546 253.261 242.63 253.578C242.724 253.895 242.868 254.115 243.064 254.236C243.26 254.357 243.522 254.418 243.848 254.418ZM125.172 275V264.64H129.456C129.998 264.64 130.492 264.733 130.94 264.92C131.388 265.097 131.743 265.429 132.004 265.914C132.275 266.39 132.41 267.071 132.41 267.958C132.41 268.602 132.331 269.115 132.172 269.498C132.014 269.871 131.808 270.161 131.556 270.366C131.304 270.571 131.043 270.73 130.772 270.842L132.704 275H130.59L128.924 271.164C128.691 271.164 128.416 271.164 128.098 271.164C127.781 271.155 127.496 271.145 127.244 271.136V275H125.172ZM127.244 269.498H129.092C129.466 269.498 129.764 269.395 129.988 269.19C130.222 268.975 130.338 268.565 130.338 267.958C130.338 267.37 130.222 266.983 129.988 266.796C129.755 266.6 129.456 266.502 129.092 266.502H127.244V269.498ZM136.879 275.07C136.048 275.07 135.386 274.963 134.891 274.748C134.396 274.524 134.037 274.137 133.813 273.586C133.598 273.026 133.491 272.247 133.491 271.248C133.491 270.231 133.594 269.442 133.799 268.882C134.004 268.322 134.35 267.93 134.835 267.706C135.32 267.482 135.978 267.37 136.809 267.37C137.546 267.37 138.139 267.445 138.587 267.594C139.044 267.743 139.371 268.005 139.567 268.378C139.772 268.751 139.875 269.279 139.875 269.96C139.875 270.725 139.656 271.253 139.217 271.542C138.778 271.831 138.186 271.976 137.439 271.976H135.549C135.558 272.359 135.614 272.662 135.717 272.886C135.82 273.11 136.002 273.273 136.263 273.376C136.534 273.479 136.921 273.53 137.425 273.53H139.623V274.748C139.259 274.823 138.858 274.897 138.419 274.972C137.99 275.037 137.476 275.07 136.879 275.07ZM135.521 270.744H137.229C137.509 270.744 137.714 270.688 137.845 270.576C137.976 270.455 138.041 270.254 138.041 269.974C138.041 269.563 137.943 269.279 137.747 269.12C137.56 268.952 137.248 268.868 136.809 268.868C136.333 268.868 135.997 268.999 135.801 269.26C135.614 269.512 135.521 270.007 135.521 270.744ZM141.235 278.318V267.482H142.971L143.307 268.196C143.568 267.991 143.871 267.804 144.217 267.636C144.571 267.459 144.963 267.37 145.393 267.37C146.326 267.37 147.003 267.715 147.423 268.406C147.843 269.097 148.053 270.044 148.053 271.248C148.053 272.051 147.973 272.741 147.815 273.32C147.656 273.899 147.381 274.342 146.989 274.65C146.606 274.949 146.074 275.098 145.393 275.098C145.038 275.098 144.674 275.056 144.301 274.972C143.937 274.888 143.605 274.767 143.307 274.608V278.318H141.235ZM144.721 273.39C144.935 273.39 145.136 273.334 145.323 273.222C145.519 273.101 145.677 272.886 145.799 272.578C145.92 272.27 145.981 271.827 145.981 271.248C145.981 270.408 145.859 269.829 145.617 269.512C145.383 269.195 145.085 269.036 144.721 269.036C144.431 269.036 144.165 269.083 143.923 269.176C143.68 269.269 143.475 269.363 143.307 269.456V273.026C143.493 273.138 143.713 273.227 143.965 273.292C144.217 273.357 144.469 273.39 144.721 273.39ZM152.588 275.07C151.757 275.07 151.095 274.963 150.6 274.748C150.105 274.524 149.746 274.137 149.522 273.586C149.307 273.026 149.2 272.247 149.2 271.248C149.2 270.231 149.303 269.442 149.508 268.882C149.713 268.322 150.059 267.93 150.544 267.706C151.029 267.482 151.687 267.37 152.518 267.37C153.255 267.37 153.848 267.445 154.296 267.594C154.753 267.743 155.08 268.005 155.276 268.378C155.481 268.751 155.584 269.279 155.584 269.96C155.584 270.725 155.365 271.253 154.926 271.542C154.487 271.831 153.895 271.976 153.148 271.976H151.258C151.267 272.359 151.323 272.662 151.426 272.886C151.529 273.11 151.711 273.273 151.972 273.376C152.243 273.479 152.63 273.53 153.134 273.53H155.332V274.748C154.968 274.823 154.567 274.897 154.128 274.972C153.699 275.037 153.185 275.07 152.588 275.07ZM151.23 270.744H152.938C153.218 270.744 153.423 270.688 153.554 270.576C153.685 270.455 153.75 270.254 153.75 269.974C153.75 269.563 153.652 269.279 153.456 269.12C153.269 268.952 152.957 268.868 152.518 268.868C152.042 268.868 151.706 268.999 151.51 269.26C151.323 269.512 151.23 270.007 151.23 270.744ZM158.54 275.084C157.97 275.084 157.508 274.916 157.154 274.58C156.799 274.244 156.622 273.777 156.622 273.18V272.508C156.622 271.939 156.822 271.472 157.224 271.108C157.625 270.735 158.25 270.548 159.1 270.548H161.018V270.03C161.018 269.797 160.976 269.605 160.892 269.456C160.817 269.297 160.663 269.185 160.43 269.12C160.196 269.045 159.846 269.008 159.38 269.008H157.126V267.804C157.499 267.692 157.924 267.594 158.4 267.51C158.876 267.426 159.454 267.384 160.136 267.384C160.761 267.384 161.293 267.459 161.732 267.608C162.17 267.757 162.506 268.014 162.74 268.378C162.973 268.742 163.09 269.246 163.09 269.89V275H161.452L161.116 274.202C161.032 274.295 160.864 274.412 160.612 274.552C160.36 274.683 160.052 274.804 159.688 274.916C159.333 275.028 158.95 275.084 158.54 275.084ZM159.59 273.642C159.748 273.642 159.93 273.619 160.136 273.572C160.35 273.516 160.542 273.46 160.71 273.404C160.887 273.339 160.99 273.297 161.018 273.278V271.528L159.758 271.612C159.048 271.668 158.694 271.976 158.694 272.536V272.844C158.694 273.143 158.778 273.353 158.946 273.474C159.123 273.586 159.338 273.642 159.59 273.642ZM167.497 275C166.629 275 166.003 274.804 165.621 274.412C165.247 274.02 165.075 273.325 165.103 272.326L165.173 269.148H163.997V267.818L165.243 267.482L165.523 265.382H167.161V267.482H168.925V269.148H167.161V272.312C167.161 272.723 167.235 272.998 167.385 273.138C167.534 273.269 167.707 273.348 167.903 273.376L168.855 273.46V275H167.497ZM173.246 275.07C172.416 275.07 171.753 274.963 171.258 274.748C170.764 274.524 170.404 274.137 170.18 273.586C169.966 273.026 169.858 272.247 169.858 271.248C169.858 270.231 169.961 269.442 170.166 268.882C170.372 268.322 170.717 267.93 171.202 267.706C171.688 267.482 172.346 267.37 173.176 267.37C173.914 267.37 174.506 267.445 174.954 267.594C175.412 267.743 175.738 268.005 175.934 268.378C176.14 268.751 176.242 269.279 176.242 269.96C176.242 270.725 176.023 271.253 175.584 271.542C175.146 271.831 174.553 271.976 173.806 271.976H171.916C171.926 272.359 171.982 272.662 172.084 272.886C172.187 273.11 172.369 273.273 172.63 273.376C172.901 273.479 173.288 273.53 173.792 273.53H175.99V274.748C175.626 274.823 175.225 274.897 174.786 274.972C174.357 275.037 173.844 275.07 173.246 275.07ZM171.888 270.744H173.596C173.876 270.744 174.082 270.688 174.212 270.576C174.343 270.455 174.408 270.254 174.408 269.974C174.408 269.563 174.31 269.279 174.114 269.12C173.928 268.952 173.615 268.868 173.176 268.868C172.7 268.868 172.364 268.999 172.168 269.26C171.982 269.512 171.888 270.007 171.888 270.744ZM177.602 275V267.482H179.198L179.674 268.63C179.944 268.285 180.248 267.991 180.584 267.748C180.929 267.505 181.335 267.384 181.802 267.384C181.904 267.384 182.007 267.389 182.11 267.398C182.222 267.407 182.324 267.426 182.418 267.454V269.582C182.268 269.563 182.114 269.549 181.956 269.54C181.806 269.521 181.666 269.512 181.536 269.512C181.125 269.512 180.775 269.582 180.486 269.722C180.196 269.853 179.926 270.053 179.674 270.324V275H177.602Z" fill="#37679F"/>
<path d="M94.848 231.156C94.276 231.156 93.704 231.104 93.132 231C92.56 230.896 92.0747 230.775 91.676 230.636V227.568C92.04 227.603 92.4213 227.637 92.82 227.672C93.2187 227.689 93.6 227.698 93.964 227.698C94.64 227.698 95.1427 227.551 95.472 227.256C95.8187 226.944 95.992 226.424 95.992 225.696V211.76H99.84V226.268C99.84 227.915 99.45 229.145 98.67 229.96C97.89 230.757 96.616 231.156 94.848 231.156ZM107.856 231.13C107.44 231.13 106.963 231.087 106.426 231C105.888 230.931 105.368 230.757 104.866 230.48C104.38 230.203 103.973 229.787 103.644 229.232C103.332 228.66 103.176 227.88 103.176 226.892V216.154C103.176 215.01 103.401 214.117 103.852 213.476C104.302 212.835 104.866 212.393 105.542 212.15C106.218 211.89 106.894 211.76 107.57 211.76C109.511 211.76 111.132 211.795 112.432 211.864C113.732 211.933 114.884 212.011 115.89 212.098V215.322H108.714C108.176 215.322 107.76 215.452 107.466 215.712C107.171 215.972 107.024 216.371 107.024 216.908V219.69L114.642 219.898V222.94L107.024 223.148V225.8C107.024 226.476 107.18 226.935 107.492 227.178C107.821 227.403 108.202 227.516 108.636 227.516H115.89V230.74C114.728 230.861 113.42 230.957 111.964 231.026C110.508 231.095 109.138 231.13 107.856 231.13ZM123.115 231.13C122.699 231.13 122.223 231.087 121.685 231C121.148 230.931 120.628 230.757 120.125 230.48C119.64 230.203 119.233 229.787 118.903 229.232C118.591 228.66 118.435 227.88 118.435 226.892V216.154C118.435 215.01 118.661 214.117 119.111 213.476C119.562 212.835 120.125 212.393 120.801 212.15C121.477 211.89 122.153 211.76 122.829 211.76C124.771 211.76 126.391 211.795 127.691 211.864C128.991 211.933 130.144 212.011 131.149 212.098V215.322H123.973C123.436 215.322 123.02 215.452 122.725 215.712C122.431 215.972 122.283 216.371 122.283 216.908V219.69L129.901 219.898V222.94L122.283 223.148V225.8C122.283 226.476 122.439 226.935 122.751 227.178C123.081 227.403 123.462 227.516 123.895 227.516H131.149V230.74C129.988 230.861 128.679 230.957 127.223 231.026C125.767 231.095 124.398 231.13 123.115 231.13ZM132.675 232.872L139.981 210.98H143.907L136.601 232.872H132.675ZM146.089 231V211.76H149.183L157.243 224.448V211.76H161.091V231H157.997L149.963 218.312V231H146.089ZM168.946 231.13C168.53 231.13 168.053 231.087 167.516 231C166.978 230.931 166.458 230.757 165.956 230.48C165.47 230.203 165.063 229.787 164.734 229.232C164.422 228.66 164.266 227.88 164.266 226.892V216.154C164.266 215.01 164.491 214.117 164.942 213.476C165.392 212.835 165.956 212.393 166.632 212.15C167.308 211.89 167.984 211.76 168.66 211.76C170.601 211.76 172.222 211.795 173.522 211.864C174.822 211.933 175.974 212.011 176.98 212.098V215.322H169.804C169.266 215.322 168.85 215.452 168.556 215.712C168.261 215.972 168.114 216.371 168.114 216.908V219.69L175.732 219.898V222.94L168.114 223.148V225.8C168.114 226.476 168.27 226.935 168.582 227.178C168.911 227.403 169.292 227.516 169.726 227.516H176.98V230.74C175.818 230.861 174.51 230.957 173.054 231.026C171.598 231.095 170.228 231.13 168.946 231.13ZM184.205 231.13C183.789 231.13 183.313 231.087 182.775 231C182.238 230.931 181.718 230.757 181.215 230.48C180.73 230.203 180.323 229.787 179.993 229.232C179.681 228.66 179.525 227.88 179.525 226.892V216.154C179.525 215.01 179.751 214.117 180.201 213.476C180.652 212.835 181.215 212.393 181.891 212.15C182.567 211.89 183.243 211.76 183.919 211.76C185.861 211.76 187.481 211.795 188.781 211.864C190.081 211.933 191.234 212.011 192.239 212.098V215.322H185.063C184.526 215.322 184.11 215.452 183.815 215.712C183.521 215.972 183.373 216.371 183.373 216.908V219.69L190.991 219.898V222.94L183.373 223.148V225.8C183.373 226.476 183.529 226.935 183.841 227.178C184.171 227.403 184.552 227.516 184.985 227.516H192.239V230.74C191.078 230.861 189.769 230.957 188.313 231.026C186.857 231.095 185.488 231.13 184.205 231.13ZM199.069 231V215.218H193.791V211.76H208.221V215.218H202.917V231H199.069Z" fill="#37679F"/>
<defs>
<filter id="filter0_d" x="0" y="0" width="313" height="307" filterUnits="userSpaceOnUse" color-interpolation-filters="sRGB">
<feFlood flood-opacity="0" result="BackgroundImageFix"/>
<feColorMatrix in="SourceAlpha" type="matrix" values="0 0 0 0 0 0 0 0 0 0 0 0 0 0 0 0 0 0 127 0"/>
<feOffset dx="10" dy="10"/>
<feGaussianBlur stdDeviation="5"/>
<feColorMatrix type="matrix" values="0 0 0 0 0 0 0 0 0 0 0 0 0 0 0 0 0 0 0.25 0"/>
<feBlend mode="normal" in2="BackgroundImageFix" result="effect1_dropShadow"/>
<feBlend mode="normal" in="SourceGraphic" in2="effect1_dropShadow" result="shape"/>
</filter>
</defs>
</svg>
