<svg width="385" height="234" viewBox="0 0 385 234" fill="none" xmlns="http://www.w3.org/2000/svg">
<g filter="url(#filter0_d)">
<rect width="376" height="225" rx="31" fill="white"/>
</g>
<path d="M33.736 47.3911C32.824 47.3911 32.048 47.2551 31.408 46.9831C30.784 46.6951 30.312 46.2471 29.992 45.6391C29.688 45.0151 29.536 44.1991 29.536 43.1911V29.6311H33.088V42.6151C33.088 42.9991 33.152 43.3111 33.28 43.5511C33.424 43.7911 33.616 43.9591 33.856 44.0551C34.096 44.1351 34.368 44.1751 34.672 44.1751H40.288V47.3911H33.736ZM42.6438 32.6071C42.3078 32.6071 42.1398 32.4471 42.1398 32.1271V29.7751C42.1398 29.4391 42.3078 29.2711 42.6438 29.2711H45.3798C45.5238 29.2711 45.6358 29.3191 45.7158 29.4151C45.7958 29.5111 45.8358 29.6311 45.8358 29.7751V32.1271C45.8358 32.4471 45.6838 32.6071 45.3798 32.6071H42.6438ZM42.2118 47.3911V34.5031H45.7638V47.3911H42.2118ZM51.733 47.3911L47.413 34.5031H51.085L53.869 44.1031L56.725 34.5031H60.349L55.837 47.3911H51.733ZM66.9951 47.5111C65.5711 47.5111 64.4351 47.3271 63.5871 46.9591C62.7391 46.5751 62.1231 45.9031 61.7391 44.9431C61.3711 43.9831 61.1871 42.6551 61.1871 40.9591C61.1871 39.2151 61.3631 37.8631 61.7151 36.9031C62.0671 35.9431 62.6591 35.2711 63.4911 34.8871C64.3231 34.5031 65.4511 34.3111 66.8751 34.3111C68.1551 34.3111 69.1791 34.4391 69.9471 34.6951C70.7151 34.9511 71.2671 35.3991 71.6031 36.0391C71.9551 36.6791 72.1311 37.5831 72.1311 38.7511C72.1311 39.6151 71.9551 40.3031 71.6031 40.8151C71.2671 41.3111 70.7871 41.6711 70.1631 41.8951C69.5391 42.1031 68.8031 42.2071 67.9551 42.2071H64.7151C64.7471 42.8631 64.8431 43.3911 65.0031 43.7911C65.1791 44.1751 65.4911 44.4551 65.9391 44.6311C66.4031 44.7911 67.0671 44.8711 67.9311 44.8711H71.6991V46.9591C71.0751 47.0871 70.3871 47.2151 69.6351 47.3431C68.8991 47.4551 68.0191 47.5111 66.9951 47.5111ZM64.6671 40.0951H67.5951C68.0751 40.0951 68.4271 39.9991 68.6511 39.8071C68.8751 39.6151 68.9871 39.2711 68.9871 38.7751C68.9871 38.3111 68.9151 37.9431 68.7711 37.6711C68.6271 37.3831 68.4031 37.1831 68.0991 37.0711C67.7951 36.9431 67.3871 36.8791 66.8751 36.8791C66.3311 36.8791 65.8991 36.9751 65.5791 37.1671C65.2591 37.3431 65.0271 37.6631 64.8831 38.1271C64.7391 38.5911 64.6671 39.2471 64.6671 40.0951ZM86.7933 47.5351C85.7533 47.5351 84.8333 47.4151 84.0333 47.1751C83.2493 46.9351 82.5773 46.4951 82.0173 45.8551C81.4733 45.2151 81.0573 44.3031 80.7693 43.1191C80.4973 41.9191 80.3613 40.3671 80.3613 38.4631C80.3613 36.6231 80.5053 35.1191 80.7933 33.9511C81.0973 32.7671 81.5293 31.8551 82.0893 31.2151C82.6493 30.5591 83.3293 30.1031 84.1293 29.8471C84.9293 29.5911 85.8333 29.4631 86.8413 29.4631C87.6413 29.4631 88.3853 29.5111 89.0733 29.6071C89.7773 29.6871 90.4093 29.7911 90.9693 29.9191C91.5293 30.0311 92.0013 30.1591 92.3853 30.3031V33.0631C92.0972 32.9991 91.7053 32.9351 91.2093 32.8711C90.7293 32.8071 90.1773 32.7591 89.5533 32.7271C88.9293 32.6791 88.2733 32.6551 87.5853 32.6551C86.9133 32.6551 86.3373 32.7351 85.8573 32.8951C85.3933 33.0391 85.0173 33.3191 84.7293 33.7351C84.4573 34.1351 84.2493 34.7191 84.1053 35.4871C83.9773 36.2551 83.9133 37.2551 83.9133 38.4871C83.9133 39.6711 83.9693 40.6471 84.0813 41.4151C84.2093 42.1831 84.4093 42.7831 84.6813 43.2151C84.9533 43.6311 85.3213 43.9271 85.7853 44.1031C86.2653 44.2631 86.8653 44.3431 87.5853 44.3431C88.8013 44.3431 89.7853 44.3191 90.5373 44.2711C91.3053 44.2231 91.9213 44.1671 92.3853 44.1031V46.8391C91.9533 46.9831 91.4573 47.1111 90.8973 47.2231C90.3373 47.3191 89.7213 47.3911 89.0493 47.4391C88.3773 47.5031 87.6253 47.5351 86.7933 47.5351ZM98.7438 47.4391C97.8318 47.4391 97.0718 47.2951 96.4638 47.0071C95.8718 46.7031 95.4318 46.2471 95.1438 45.6391C94.8558 45.0151 94.7118 44.2151 94.7118 43.2391V29.0791H98.2638V42.7111C98.2638 43.1911 98.3118 43.5751 98.4078 43.8631C98.5038 44.1351 98.6478 44.3351 98.8398 44.4631C99.0478 44.5911 99.3038 44.6791 99.6078 44.7271L100.592 44.8711V47.4391H98.7438ZM104.971 47.5351C103.995 47.5351 103.203 47.2471 102.595 46.6711C101.987 46.0951 101.683 45.2951 101.683 44.2711V43.1191C101.683 42.1431 102.027 41.3431 102.715 40.7191C103.403 40.0791 104.475 39.7591 105.931 39.7591H109.219V38.8711C109.219 38.4711 109.147 38.1431 109.003 37.8871C108.859 37.6151 108.587 37.4231 108.187 37.3111C107.803 37.1831 107.211 37.1191 106.411 37.1191H102.547V35.0551C103.171 34.8631 103.891 34.6951 104.707 34.5511C105.539 34.4071 106.539 34.3351 107.707 34.3351C108.779 34.3351 109.691 34.4631 110.443 34.7191C111.211 34.9751 111.787 35.4151 112.171 36.0391C112.571 36.6631 112.771 37.5271 112.771 38.6311V47.3911H109.963L109.387 46.0231C109.275 46.1511 109.083 46.2951 108.811 46.4551C108.539 46.6151 108.203 46.7831 107.803 46.9591C107.419 47.1191 106.979 47.2551 106.483 47.3671C106.003 47.4791 105.499 47.5351 104.971 47.5351ZM106.771 45.0631C106.931 45.0631 107.107 45.0471 107.299 45.0151C107.507 44.9671 107.715 44.9191 107.923 44.8711C108.147 44.8071 108.347 44.7511 108.523 44.7031C108.715 44.6391 108.867 44.5831 108.979 44.5351C109.107 44.4871 109.187 44.4551 109.219 44.4391V41.4391L107.059 41.5831C106.435 41.6311 105.971 41.7911 105.667 42.0631C105.379 42.3351 105.235 42.7031 105.235 43.1671V43.6951C105.235 44.0151 105.299 44.2791 105.427 44.4871C105.571 44.6951 105.755 44.8471 105.979 44.9431C106.219 45.0231 106.483 45.0631 106.771 45.0631ZM120.111 47.5351C119.711 47.5351 119.279 47.5191 118.815 47.4871C118.351 47.4711 117.887 47.4391 117.423 47.3911C116.959 47.3431 116.527 47.2871 116.127 47.2231C115.727 47.1431 115.391 47.0551 115.119 46.9591V44.8711H120.831C121.167 44.8711 121.439 44.8471 121.647 44.7991C121.871 44.7351 122.031 44.6311 122.127 44.4871C122.239 44.3271 122.295 44.1031 122.295 43.8151V43.4071C122.295 43.0871 122.191 42.8391 121.983 42.6631C121.775 42.4871 121.391 42.3991 120.831 42.3991H118.815C118.079 42.3991 117.415 42.2871 116.823 42.0631C116.231 41.8391 115.759 41.4711 115.407 40.9591C115.071 40.4471 114.903 39.7591 114.903 38.8951V38.1511C114.903 37.3351 115.063 36.6471 115.383 36.0871C115.703 35.5271 116.239 35.1031 116.991 34.8151C117.743 34.5271 118.775 34.3831 120.087 34.3831C120.615 34.3831 121.175 34.4151 121.767 34.4791C122.375 34.5271 122.943 34.5991 123.471 34.6951C124.015 34.7751 124.447 34.8711 124.767 34.9831V37.0711H119.367C118.903 37.0711 118.551 37.1511 118.311 37.3111C118.071 37.4551 117.951 37.7351 117.951 38.1511V38.5351C117.951 38.8231 118.007 39.0391 118.119 39.1831C118.231 39.3111 118.399 39.4071 118.623 39.4711C118.863 39.5191 119.159 39.5431 119.511 39.5431H121.575C122.887 39.5431 123.839 39.8471 124.431 40.4551C125.039 41.0471 125.343 41.8711 125.343 42.9271V44.0791C125.343 44.9431 125.135 45.6311 124.719 46.1431C124.319 46.6391 123.727 46.9991 122.943 47.2231C122.175 47.4311 121.231 47.5351 120.111 47.5351ZM132.228 47.5351C131.828 47.5351 131.396 47.5191 130.932 47.4871C130.468 47.4711 130.004 47.4391 129.54 47.3911C129.076 47.3431 128.644 47.2871 128.244 47.2231C127.844 47.1431 127.508 47.0551 127.236 46.9591V44.8711H132.948C133.284 44.8711 133.556 44.8471 133.764 44.7991C133.988 44.7351 134.148 44.6311 134.244 44.4871C134.356 44.3271 134.412 44.1031 134.412 43.8151V43.4071C134.412 43.0871 134.308 42.8391 134.1 42.6631C133.892 42.4871 133.508 42.3991 132.948 42.3991H130.932C130.196 42.3991 129.532 42.2871 128.94 42.0631C128.348 41.8391 127.876 41.4711 127.524 40.9591C127.188 40.4471 127.02 39.7591 127.02 38.8951V38.1511C127.02 37.3351 127.18 36.6471 127.5 36.0871C127.82 35.5271 128.356 35.1031 129.108 34.8151C129.86 34.5271 130.892 34.3831 132.204 34.3831C132.732 34.3831 133.292 34.4151 133.884 34.4791C134.492 34.5271 135.06 34.5991 135.588 34.6951C136.132 34.7751 136.564 34.8711 136.884 34.9831V37.0711H131.484C131.02 37.0711 130.668 37.1511 130.428 37.3111C130.188 37.4551 130.068 37.7351 130.068 38.1511V38.5351C130.068 38.8231 130.124 39.0391 130.236 39.1831C130.348 39.3111 130.516 39.4071 130.74 39.4711C130.98 39.5191 131.276 39.5431 131.628 39.5431H133.692C135.004 39.5431 135.956 39.8471 136.548 40.4551C137.156 41.0471 137.46 41.8711 137.46 42.9271V44.0791C137.46 44.9431 137.252 45.6311 136.836 46.1431C136.436 46.6391 135.844 46.9991 135.06 47.2231C134.292 47.4311 133.348 47.5351 132.228 47.5351ZM145.089 47.5111C143.665 47.5111 142.529 47.3271 141.681 46.9591C140.833 46.5751 140.217 45.9031 139.833 44.9431C139.465 43.9831 139.281 42.6551 139.281 40.9591C139.281 39.2151 139.457 37.8631 139.809 36.9031C140.161 35.9431 140.753 35.2711 141.585 34.8871C142.417 34.5031 143.545 34.3111 144.969 34.3111C146.249 34.3111 147.273 34.4391 148.041 34.6951C148.809 34.9511 149.361 35.3991 149.697 36.0391C150.049 36.6791 150.225 37.5831 150.225 38.7511C150.225 39.6151 150.049 40.3031 149.697 40.8151C149.361 41.3111 148.881 41.6711 148.257 41.8951C147.633 42.1031 146.897 42.2071 146.049 42.2071H142.809C142.841 42.8631 142.937 43.3911 143.097 43.7911C143.273 44.1751 143.585 44.4551 144.033 44.6311C144.497 44.7911 145.161 44.8711 146.025 44.8711H149.793V46.9591C149.169 47.0871 148.481 47.2151 147.729 47.3431C146.993 47.4551 146.113 47.5111 145.089 47.5111ZM142.761 40.0951H145.689C146.169 40.0951 146.521 39.9991 146.745 39.8071C146.969 39.6151 147.081 39.2711 147.081 38.7751C147.081 38.3111 147.009 37.9431 146.865 37.6711C146.721 37.3831 146.497 37.1831 146.193 37.0711C145.889 36.9431 145.481 36.8791 144.969 36.8791C144.425 36.8791 143.993 36.9751 143.673 37.1671C143.353 37.3431 143.121 37.6631 142.977 38.1271C142.833 38.5911 142.761 39.2471 142.761 40.0951ZM157.236 47.5351C156.836 47.5351 156.404 47.5191 155.94 47.4871C155.476 47.4711 155.012 47.4391 154.548 47.3911C154.084 47.3431 153.652 47.2871 153.252 47.2231C152.852 47.1431 152.516 47.0551 152.244 46.9591V44.8711H157.956C158.292 44.8711 158.564 44.8471 158.772 44.7991C158.996 44.7351 159.156 44.6311 159.252 44.4871C159.364 44.3271 159.42 44.1031 159.42 43.8151V43.4071C159.42 43.0871 159.316 42.8391 159.108 42.6631C158.9 42.4871 158.516 42.3991 157.956 42.3991H155.94C155.204 42.3991 154.54 42.2871 153.948 42.0631C153.356 41.8391 152.884 41.4711 152.532 40.9591C152.196 40.4471 152.028 39.7591 152.028 38.8951V38.1511C152.028 37.3351 152.188 36.6471 152.508 36.0871C152.828 35.5271 153.364 35.1031 154.116 34.8151C154.868 34.5271 155.9 34.3831 157.212 34.3831C157.74 34.3831 158.3 34.4151 158.892 34.4791C159.5 34.5271 160.068 34.5991 160.596 34.6951C161.14 34.7751 161.572 34.8711 161.892 34.9831V37.0711H156.492C156.028 37.0711 155.676 37.1511 155.436 37.3111C155.196 37.4551 155.076 37.7351 155.076 38.1511V38.5351C155.076 38.8231 155.132 39.0391 155.244 39.1831C155.356 39.3111 155.524 39.4071 155.748 39.4711C155.988 39.5191 156.284 39.5431 156.636 39.5431H158.7C160.012 39.5431 160.964 39.8471 161.556 40.4551C162.164 41.0471 162.468 41.8711 162.468 42.9271V44.0791C162.468 44.9431 162.26 45.6311 161.844 46.1431C161.444 46.6391 160.852 46.9991 160.068 47.2231C159.3 47.4311 158.356 47.5351 157.236 47.5351Z" fill="#37679F"/>
<path d="M243.552 193.144C243.024 193.144 242.488 193.096 241.944 193C241.416 192.904 240.976 192.792 240.624 192.664V189.832C240.96 189.864 241.312 189.896 241.68 189.928C242.048 189.944 242.4 189.952 242.736 189.952C243.152 189.952 243.496 189.888 243.768 189.76C244.056 189.632 244.264 189.44 244.392 189.184C244.536 188.912 244.608 188.552 244.608 188.104V175.24H248.16V188.632C248.16 189.64 248 190.48 247.68 191.152C247.376 191.824 246.88 192.328 246.192 192.664C245.52 192.984 244.64 193.144 243.552 193.144ZM256.591 193.12C255.535 193.12 254.631 193.016 253.879 192.808C253.127 192.584 252.511 192.216 252.031 191.704C251.567 191.192 251.223 190.512 250.999 189.664C250.791 188.816 250.687 187.768 250.687 186.52C250.687 185.208 250.791 184.128 250.999 183.28C251.223 182.416 251.567 181.744 252.031 181.264C252.511 180.768 253.127 180.424 253.879 180.232C254.647 180.024 255.551 179.92 256.591 179.92C257.663 179.92 258.575 180.024 259.327 180.232C260.079 180.44 260.687 180.792 261.151 181.288C261.631 181.768 261.975 182.44 262.183 183.304C262.407 184.152 262.519 185.224 262.519 186.52C262.519 187.8 262.415 188.872 262.207 189.736C261.999 190.584 261.663 191.256 261.199 191.752C260.735 192.248 260.119 192.6 259.351 192.808C258.599 193.016 257.679 193.12 256.591 193.12ZM256.591 190.288C257.023 190.288 257.383 190.248 257.671 190.168C257.975 190.088 258.215 189.928 258.391 189.688C258.583 189.432 258.727 189.048 258.823 188.536C258.919 188.024 258.967 187.352 258.967 186.52C258.967 185.672 258.919 185 258.823 184.504C258.727 183.992 258.583 183.616 258.391 183.376C258.215 183.12 257.975 182.952 257.671 182.872C257.383 182.792 257.023 182.752 256.591 182.752C256.175 182.752 255.815 182.792 255.511 182.872C255.223 182.952 254.983 183.12 254.791 183.376C254.599 183.616 254.455 183.992 254.359 184.504C254.279 185 254.239 185.672 254.239 186.52C254.239 187.352 254.279 188.024 254.359 188.536C254.455 189.048 254.599 189.432 254.791 189.688C254.983 189.928 255.223 190.088 255.511 190.168C255.815 190.248 256.175 190.288 256.591 190.288ZM265.308 178.216C264.972 178.216 264.804 178.056 264.804 177.736V175.384C264.804 175.048 264.972 174.88 265.308 174.88H268.044C268.188 174.88 268.3 174.928 268.38 175.024C268.46 175.12 268.5 175.24 268.5 175.384V177.736C268.5 178.056 268.348 178.216 268.044 178.216H265.308ZM264.876 193V180.112H268.428V193H264.876ZM271.157 193V180.112H274.085L274.709 181.432C275.189 181.032 275.789 180.68 276.509 180.376C277.245 180.056 277.997 179.896 278.765 179.896C279.821 179.896 280.637 180.104 281.213 180.52C281.789 180.936 282.189 181.496 282.413 182.2C282.653 182.888 282.773 183.656 282.773 184.504V193H279.221V184.96C279.221 184.544 279.141 184.2 278.981 183.928C278.837 183.656 278.629 183.448 278.357 183.304C278.085 183.16 277.757 183.088 277.373 183.088C277.037 183.088 276.709 183.128 276.389 183.208C276.085 183.288 275.789 183.4 275.501 183.544C275.229 183.688 274.965 183.856 274.709 184.048V193H271.157ZM291.906 193V175.24H294.762L302.202 186.952V175.24H305.754V193H302.898L295.482 181.288V193H291.906ZM314.036 193.12C312.98 193.12 312.076 193.016 311.324 192.808C310.572 192.584 309.956 192.216 309.476 191.704C309.012 191.192 308.668 190.512 308.444 189.664C308.236 188.816 308.132 187.768 308.132 186.52C308.132 185.208 308.236 184.128 308.444 183.28C308.668 182.416 309.012 181.744 309.476 181.264C309.956 180.768 310.572 180.424 311.324 180.232C312.092 180.024 312.996 179.92 314.036 179.92C315.108 179.92 316.02 180.024 316.772 180.232C317.524 180.44 318.132 180.792 318.596 181.288C319.076 181.768 319.42 182.44 319.628 183.304C319.852 184.152 319.964 185.224 319.964 186.52C319.964 187.8 319.86 188.872 319.652 189.736C319.444 190.584 319.108 191.256 318.644 191.752C318.18 192.248 317.564 192.6 316.796 192.808C316.044 193.016 315.124 193.12 314.036 193.12ZM314.036 190.288C314.468 190.288 314.828 190.248 315.116 190.168C315.42 190.088 315.66 189.928 315.836 189.688C316.028 189.432 316.172 189.048 316.268 188.536C316.364 188.024 316.412 187.352 316.412 186.52C316.412 185.672 316.364 185 316.268 184.504C316.172 183.992 316.028 183.616 315.836 183.376C315.66 183.12 315.42 182.952 315.116 182.872C314.828 182.792 314.468 182.752 314.036 182.752C313.62 182.752 313.26 182.792 312.956 182.872C312.668 182.952 312.428 183.12 312.236 183.376C312.044 183.616 311.9 183.992 311.804 184.504C311.724 185 311.684 185.672 311.684 186.52C311.684 187.352 311.724 188.024 311.804 188.536C311.9 189.048 312.044 189.432 312.236 189.688C312.428 189.928 312.668 190.088 312.956 190.168C313.26 190.248 313.62 190.288 314.036 190.288ZM324.18 193L320.772 180.112H324.444L326.484 189.712L329.028 180.112H331.956L334.5 189.712L336.348 180.112H340.02L336.66 193H332.724L330.42 185.152L328.044 193H324.18Z" fill="#37679F"/>
<path d="M220.742 51L221.918 40.682H223.318L225.95 49.292L228.54 40.682H229.954L231.158 51H229.8L228.792 42.404L229.03 42.432L226.594 51H225.292L222.814 42.432L223.066 42.418L222.1 51H220.742ZM235.692 51.084C234.898 51.084 234.264 50.9673 233.788 50.734C233.321 50.5007 232.985 50.1087 232.78 49.558C232.584 48.998 232.486 48.228 232.486 47.248C232.486 46.2493 232.584 45.4747 232.78 44.924C232.985 44.364 233.321 43.972 233.788 43.748C234.254 43.524 234.884 43.412 235.678 43.412C236.368 43.412 236.924 43.4867 237.344 43.636C237.773 43.776 238.086 44.0327 238.282 44.406C238.487 44.77 238.59 45.2787 238.59 45.932C238.59 46.3893 238.496 46.7533 238.31 47.024C238.132 47.2947 237.876 47.4907 237.54 47.612C237.213 47.7333 236.821 47.794 236.364 47.794H233.886C233.895 48.3353 233.956 48.7693 234.068 49.096C234.189 49.4133 234.399 49.6467 234.698 49.796C235.006 49.936 235.454 50.006 236.042 50.006H238.38V50.846C237.978 50.902 237.568 50.9533 237.148 51C236.728 51.056 236.242 51.084 235.692 51.084ZM233.872 46.912H236.238C236.611 46.912 236.886 46.842 237.064 46.702C237.241 46.562 237.33 46.3053 237.33 45.932C237.33 45.5587 237.274 45.2647 237.162 45.05C237.059 44.8353 236.886 44.6813 236.644 44.588C236.401 44.4947 236.079 44.448 235.678 44.448C235.22 44.448 234.856 44.518 234.586 44.658C234.324 44.798 234.138 45.0453 234.026 45.4C233.923 45.7547 233.872 46.2587 233.872 46.912ZM243.252 51.084C242.459 51.084 241.824 50.9673 241.348 50.734C240.882 50.5007 240.546 50.1087 240.34 49.558C240.144 48.998 240.046 48.228 240.046 47.248C240.046 46.2493 240.144 45.4747 240.34 44.924C240.546 44.364 240.882 43.972 241.348 43.748C241.815 43.524 242.445 43.412 243.238 43.412C243.929 43.412 244.484 43.4867 244.904 43.636C245.334 43.776 245.646 44.0327 245.842 44.406C246.048 44.77 246.15 45.2787 246.15 45.932C246.15 46.3893 246.057 46.7533 245.87 47.024C245.693 47.2947 245.436 47.4907 245.1 47.612C244.774 47.7333 244.382 47.794 243.924 47.794H241.446C241.456 48.3353 241.516 48.7693 241.628 49.096C241.75 49.4133 241.96 49.6467 242.258 49.796C242.566 49.936 243.014 50.006 243.602 50.006H245.94V50.846C245.539 50.902 245.128 50.9533 244.708 51C244.288 51.056 243.803 51.084 243.252 51.084ZM241.432 46.912H243.798C244.172 46.912 244.447 46.842 244.624 46.702C244.802 46.562 244.89 46.3053 244.89 45.932C244.89 45.5587 244.834 45.2647 244.722 45.05C244.62 44.8353 244.447 44.6813 244.204 44.588C243.962 44.4947 243.64 44.448 243.238 44.448C242.781 44.448 242.417 44.518 242.146 44.658C241.885 44.798 241.698 45.0453 241.586 45.4C241.484 45.7547 241.432 46.2587 241.432 46.912ZM250.449 51C249.945 51 249.525 50.9207 249.189 50.762C248.862 50.594 248.62 50.328 248.461 49.964C248.312 49.6 248.242 49.1147 248.251 48.508L248.307 44.658H247.117V43.748L248.335 43.51L248.545 41.41H249.651V43.51H251.681V44.658H249.651V48.494C249.651 48.7833 249.679 49.0167 249.735 49.194C249.791 49.3713 249.87 49.5067 249.973 49.6C250.076 49.6933 250.188 49.7633 250.309 49.81C250.43 49.8473 250.547 49.8707 250.659 49.88L251.583 49.964V51H250.449ZM253.291 42.25C253.123 42.25 253.039 42.1707 253.039 42.012V40.836C253.039 40.668 253.123 40.584 253.291 40.584H254.327C254.402 40.584 254.458 40.6073 254.495 40.654C254.533 40.7007 254.551 40.7613 254.551 40.836V42.012C254.551 42.1707 254.477 42.25 254.327 42.25H253.291ZM253.095 51V43.51H254.495V51H253.095ZM256.459 51V43.51H257.579L257.859 44.322C258.195 44.0793 258.591 43.8647 259.049 43.678C259.515 43.482 259.996 43.384 260.491 43.384C261.051 43.384 261.499 43.5053 261.835 43.748C262.18 43.9813 262.427 44.294 262.577 44.686C262.726 45.078 262.801 45.5027 262.801 45.96V51H261.401V46.128C261.401 45.8293 261.34 45.5727 261.219 45.358C261.107 45.134 260.948 44.9613 260.743 44.84C260.537 44.7187 260.285 44.658 259.987 44.658C259.707 44.658 259.445 44.686 259.203 44.742C258.969 44.798 258.745 44.8773 258.531 44.98C258.316 45.0733 258.092 45.19 257.859 45.33V51H256.459ZM266.578 54.444C266.102 54.444 265.678 54.374 265.304 54.234C264.94 54.1033 264.651 53.898 264.436 53.618C264.222 53.3473 264.114 53.0113 264.114 52.61V52.302C264.114 51.882 264.231 51.5273 264.464 51.238C264.707 50.958 265.01 50.7433 265.374 50.594C265.738 50.4447 266.116 50.37 266.508 50.37L266.886 50.888C266.634 50.888 266.396 50.9253 266.172 51C265.958 51.084 265.78 51.21 265.64 51.378C265.51 51.5553 265.444 51.7793 265.444 52.05V52.316C265.444 52.708 265.575 52.9927 265.836 53.17C266.107 53.3473 266.476 53.436 266.942 53.436H268.58C269.075 53.436 269.467 53.338 269.756 53.142C270.046 52.9553 270.19 52.6613 270.19 52.26V51.994C270.19 51.77 270.139 51.574 270.036 51.406C269.943 51.238 269.789 51.1073 269.574 51.014C269.36 50.93 269.066 50.888 268.692 50.888H266.62C265.958 50.888 265.454 50.7527 265.108 50.482C264.763 50.2113 264.59 49.8707 264.59 49.46C264.59 49.0867 264.698 48.788 264.912 48.564C265.136 48.3307 265.449 48.172 265.85 48.088C265.514 47.9387 265.248 47.7473 265.052 47.514C264.866 47.2807 264.735 47.0287 264.66 46.758C264.586 46.478 264.548 46.198 264.548 45.918C264.548 45.3487 264.665 44.8867 264.898 44.532C265.132 44.1773 265.468 43.916 265.906 43.748C266.354 43.58 266.886 43.496 267.502 43.496H271.534V44.294L270.008 44.448C270.12 44.532 270.242 44.644 270.372 44.784C270.503 44.9147 270.615 45.0967 270.708 45.33C270.802 45.5633 270.848 45.8713 270.848 46.254C270.848 46.6553 270.76 47.0287 270.582 47.374C270.414 47.7193 270.134 47.9993 269.742 48.214C269.36 48.4287 268.837 48.536 268.174 48.536H266.942C266.588 48.536 266.308 48.5873 266.102 48.69C265.897 48.7927 265.794 48.9747 265.794 49.236C265.794 49.4507 265.874 49.6 266.032 49.684C266.191 49.768 266.359 49.81 266.536 49.81H268.902C269.472 49.81 269.948 49.8847 270.33 50.034C270.722 50.1833 271.016 50.412 271.212 50.72C271.408 51.028 271.506 51.4293 271.506 51.924V52.19C271.506 52.8993 271.273 53.45 270.806 53.842C270.349 54.2433 269.654 54.444 268.72 54.444H266.578ZM267.194 47.458H268.02C268.44 47.458 268.758 47.3973 268.972 47.276C269.196 47.1453 269.35 46.9773 269.434 46.772C269.518 46.5667 269.56 46.338 269.56 46.086C269.56 45.7127 269.5 45.4187 269.378 45.204C269.257 44.98 269.089 44.8213 268.874 44.728C268.669 44.6253 268.417 44.574 268.118 44.574H267.334C266.858 44.574 266.485 44.6813 266.214 44.896C265.953 45.1107 265.822 45.4793 265.822 46.002C265.822 46.5153 265.944 46.8887 266.186 47.122C266.429 47.346 266.765 47.458 267.194 47.458ZM280.379 51.084C279.707 51.084 279.114 51.0187 278.601 50.888C278.097 50.7573 277.672 50.5147 277.327 50.16C276.991 49.8053 276.739 49.2827 276.571 48.592C276.403 47.9013 276.319 46.996 276.319 45.876C276.319 44.756 276.403 43.8507 276.571 43.16C276.739 42.46 276.995 41.928 277.341 41.564C277.686 41.1907 278.111 40.9387 278.615 40.808C279.119 40.668 279.707 40.598 280.379 40.598C281.069 40.598 281.667 40.668 282.171 40.808C282.684 40.9387 283.109 41.1907 283.445 41.564C283.781 41.928 284.033 42.46 284.201 43.16C284.369 43.8507 284.453 44.756 284.453 45.876C284.453 46.996 284.369 47.9013 284.201 48.592C284.033 49.2827 283.776 49.8053 283.431 50.16C283.095 50.5147 282.67 50.7573 282.157 50.888C281.653 51.0187 281.06 51.084 280.379 51.084ZM280.379 49.824C280.864 49.824 281.275 49.7727 281.611 49.67C281.956 49.5673 282.231 49.3807 282.437 49.11C282.651 48.83 282.805 48.4333 282.899 47.92C282.992 47.3973 283.039 46.716 283.039 45.876C283.039 44.9893 282.987 44.28 282.885 43.748C282.791 43.216 282.642 42.8147 282.437 42.544C282.231 42.2733 281.956 42.0913 281.611 41.998C281.275 41.9047 280.864 41.858 280.379 41.858C279.921 41.858 279.525 41.9047 279.189 41.998C278.853 42.0913 278.577 42.2733 278.363 42.544C278.148 42.8147 277.985 43.216 277.873 43.748C277.77 44.28 277.719 44.9893 277.719 45.876C277.719 46.716 277.761 47.3973 277.845 47.92C277.938 48.4333 278.087 48.83 278.293 49.11C278.507 49.3807 278.783 49.5673 279.119 49.67C279.464 49.7727 279.884 49.824 280.379 49.824ZM286.195 51V43.51H287.315L287.595 44.322C287.931 44.0793 288.328 43.8647 288.785 43.678C289.252 43.482 289.732 43.384 290.227 43.384C290.787 43.384 291.235 43.5053 291.571 43.748C291.916 43.9813 292.164 44.294 292.313 44.686C292.462 45.078 292.537 45.5027 292.537 45.96V51H291.137V46.128C291.137 45.8293 291.076 45.5727 290.955 45.358C290.843 45.134 290.684 44.9613 290.479 44.84C290.274 44.7187 290.022 44.658 289.723 44.658C289.443 44.658 289.182 44.686 288.939 44.742C288.706 44.798 288.482 44.8773 288.267 44.98C288.052 45.0733 287.828 45.19 287.595 45.33V51H286.195Z" fill="#37679F"/>
<path d="M100 130.322L92.5 132.55V135.891H113V132.55L106 130.322C105 129.765 101.167 129.951 100 130.322Z" fill="white"/>
<path d="M57.1836 136.205H71.7734C73.1164 136.205 74.2051 135.116 74.2051 133.774V131.342L80.041 135.719C80.7788 136.272 81.7647 136.36 82.5874 135.949C83.4113 135.537 83.9316 134.695 83.9316 133.774V119.184C83.9316 118.263 83.4113 117.421 82.5874 117.009C81.7638 116.597 80.7776 116.686 80.041 117.238L74.2051 121.615V119.184C74.2051 117.841 73.1164 116.752 71.7734 116.752H57.1836C55.8407 116.752 54.752 117.841 54.752 119.184V133.774C54.752 135.116 55.8407 136.205 57.1836 136.205ZM79.0684 124.047V128.91L75.8262 126.479L79.0684 124.047ZM59.6152 121.615H69.3418V131.342H59.6152V121.615Z" fill="#37679F"/>
<path d="M49.8887 150.555V158.09C49.8887 159.073 50.4812 159.96 51.3898 160.336C52.2984 160.713 53.3444 160.505 54.0398 159.809L63.0542 150.793H69.5879C69.4254 151.592 69.3418 152.407 69.3418 153.227V162.953C69.3418 169.657 74.796 175.111 81.5 175.111H99.9341L108.946 184.274C109.642 184.981 110.692 185.191 111.601 184.819C112.514 184.445 113.111 183.556 113.111 182.568V174.869C118.763 173.734 123 168.759 123 162.953V153.227C123 146.506 117.402 141.068 110.68 141.068H98.2769C98.437 140.282 98.5215 139.469 98.5215 138.637V114.158C98.5215 107.454 93.0673 102 86.3633 102H52.3203C45.5996 102 40 107.436 40 114.158V138.637C40 144.607 44.3928 149.458 49.8887 150.555ZM110.68 145.932C114.722 145.932 118.137 149.272 118.137 153.227V162.953C118.137 166.953 114.764 170.248 110.68 170.248C109.337 170.248 108.248 171.337 108.248 172.68V176.629L102.687 170.974C102.23 170.51 101.605 170.248 100.953 170.248H81.5C77.4776 170.248 74.2051 166.976 74.2051 162.953V153.227C74.2051 152.394 74.3494 151.572 74.6232 150.795H86.3633C90.3324 150.795 93.8628 148.883 96.0832 145.932H110.68ZM44.8633 114.158C44.8633 110.204 48.2781 106.863 52.3203 106.863H86.3633C90.3857 106.863 93.6582 110.136 93.6582 114.158V138.637C93.6582 142.659 90.3857 145.932 86.3633 145.932H62.0469C61.402 145.932 60.7836 146.188 60.3275 146.644L54.752 152.219V148.363C54.752 147.02 53.6632 145.932 52.3203 145.932C48.2781 145.932 44.8633 142.591 44.8633 138.637V114.158Z" fill="#37679F"/>
<path d="M86.3633 160.522C87.7062 160.522 88.7949 159.433 88.7949 158.09C88.7949 156.747 87.7062 155.658 86.3633 155.658C85.0203 155.658 83.9316 156.747 83.9316 158.09C83.9316 159.433 85.0203 160.522 86.3633 160.522Z" fill="#37679F"/>
<path d="M96.0898 160.522C97.4328 160.522 98.5215 159.433 98.5215 158.09C98.5215 156.747 97.4328 155.658 96.0898 155.658C94.7469 155.658 93.6582 156.747 93.6582 158.09C93.6582 159.433 94.7469 160.522 96.0898 160.522Z" fill="#37679F"/>
<path d="M105.816 160.522C107.159 160.522 108.248 159.433 108.248 158.09C108.248 156.747 107.159 155.658 105.816 155.658C104.473 155.658 103.385 156.747 103.385 158.09C103.385 159.433 104.473 160.522 105.816 160.522Z" fill="#37679F"/>
<path d="M269.36 143.773L266.436 132.334H266.377L263.486 143.773H260.93L256.312 129.382H258.927L262.179 141.156H262.237L265.128 129.382H267.718L270.726 141.156H270.785L274.011 129.382H276.458L271.866 143.773H269.36Z" fill="#79B63E"/>
<path d="M288.165 142.858C287.093 143.672 285.735 144.083 284.101 144.083C282.953 144.083 281.956 143.898 281.109 143.529C280.263 143.16 279.559 142.64 278.981 141.97C278.402 141.299 277.975 140.502 277.69 139.58C277.405 138.649 277.238 137.642 277.204 136.544C277.204 135.445 277.372 134.447 277.707 133.533C278.042 132.628 278.511 131.839 279.115 131.169C279.718 130.498 280.43 129.978 281.26 129.609C282.081 129.24 282.986 129.055 283.975 129.055C285.257 129.055 286.313 129.324 287.16 129.852C288.006 130.38 288.677 131.051 289.188 131.873C289.699 132.686 290.051 133.584 290.244 134.548C290.436 135.512 290.52 136.435 290.478 137.307H279.71C279.693 137.936 279.768 138.54 279.936 139.102C280.104 139.672 280.372 140.167 280.741 140.603C281.109 141.039 281.587 141.391 282.157 141.643C282.735 141.902 283.405 142.028 284.185 142.028C285.19 142.028 286.003 141.793 286.649 141.332C287.285 140.871 287.713 140.167 287.914 139.219H290.252C289.942 140.821 289.246 142.037 288.165 142.858ZM287.595 133.617C287.386 133.114 287.093 132.686 286.732 132.326C286.372 131.965 285.945 131.68 285.45 131.462C284.956 131.252 284.419 131.143 283.824 131.143C283.213 131.143 282.66 131.252 282.165 131.462C281.671 131.672 281.252 131.965 280.9 132.343C280.548 132.712 280.271 133.148 280.062 133.634C279.861 134.129 279.735 134.649 279.701 135.211H287.973C287.939 134.649 287.813 134.112 287.595 133.617Z" fill="#79B63E"/>
<path d="M294.652 123.898V131.336H294.71C295.096 130.54 295.716 129.961 296.546 129.6C297.384 129.24 298.297 129.055 299.303 129.055C300.417 129.055 301.381 129.257 302.211 129.667C303.032 130.078 303.719 130.632 304.272 131.328C304.817 132.024 305.236 132.829 305.512 133.735C305.789 134.64 305.931 135.613 305.931 136.628C305.931 137.651 305.797 138.615 305.529 139.521C305.261 140.427 304.85 141.223 304.306 141.902C303.761 142.582 303.074 143.11 302.244 143.504C301.423 143.89 300.459 144.091 299.361 144.091C299.009 144.091 298.616 144.058 298.18 143.982C297.744 143.907 297.317 143.789 296.889 143.622C296.462 143.454 296.06 143.227 295.682 142.942C295.305 142.657 294.979 142.297 294.719 141.869H294.66V143.789H292.297V123.915H294.652V123.898ZM303.149 134.489C302.973 133.852 302.705 133.282 302.345 132.779C301.984 132.275 301.523 131.881 300.954 131.579C300.384 131.286 299.722 131.135 298.967 131.135C298.171 131.135 297.493 131.294 296.939 131.605C296.386 131.923 295.925 132.334 295.574 132.846C295.222 133.357 294.962 133.936 294.811 134.582C294.652 135.227 294.576 135.89 294.576 136.561C294.576 137.265 294.66 137.944 294.828 138.607C294.995 139.269 295.255 139.848 295.624 140.343C295.984 140.846 296.453 141.248 297.032 141.55C297.61 141.861 298.305 142.011 299.118 142.011C299.931 142.011 300.618 141.852 301.163 141.542C301.708 141.223 302.152 140.812 302.487 140.292C302.822 139.772 303.065 139.177 303.208 138.515C303.359 137.844 303.434 137.156 303.434 136.452C303.409 135.789 303.325 135.135 303.149 134.489Z" fill="#79B63E"/>
<path d="M318.158 142.858C317.085 143.672 315.728 144.083 314.094 144.083C312.946 144.083 311.948 143.898 311.102 143.529C310.256 143.16 309.552 142.64 308.973 141.97C308.395 141.299 307.968 140.502 307.683 139.58C307.398 138.649 307.23 137.642 307.197 136.544C307.197 135.445 307.364 134.447 307.7 133.533C308.035 132.628 308.504 131.839 309.107 131.169C309.711 130.498 310.423 129.978 311.253 129.609C312.074 129.24 312.979 129.055 313.968 129.055C315.25 129.055 316.306 129.324 317.152 129.852C317.999 130.38 318.669 131.051 319.18 131.873C319.692 132.686 320.044 133.584 320.236 134.548C320.429 135.512 320.513 136.435 320.471 137.307H309.694C309.677 137.936 309.753 138.54 309.92 139.102C310.088 139.672 310.356 140.167 310.725 140.603C311.094 141.039 311.571 141.391 312.141 141.643C312.719 141.902 313.39 142.028 314.169 142.028C315.175 142.028 315.988 141.793 316.633 141.332C317.27 140.871 317.697 140.167 317.898 139.219H320.236C319.926 140.821 319.231 142.037 318.158 142.858ZM317.58 133.617C317.37 133.114 317.077 132.686 316.717 132.326C316.356 131.965 315.929 131.68 315.434 131.462C314.94 131.252 314.404 131.143 313.809 131.143C313.197 131.143 312.644 131.252 312.149 131.462C311.655 131.672 311.236 131.965 310.884 132.343C310.532 132.712 310.256 133.148 310.046 133.634C309.845 134.129 309.719 134.649 309.686 135.211H317.948C317.923 134.649 317.798 134.112 317.58 133.617Z" fill="#1BBBE9"/>
<path d="M321.049 129.382H324.083L327.535 134.422L331.122 129.382H333.963L329.01 136.007L334.575 143.773H331.541L327.535 137.819L323.53 143.773H320.655L326.052 136.2L321.049 129.382Z" fill="#1BBBE9"/>
<path d="M250.305 116.436C249.894 116.151 249.4 116.008 248.838 116.008C248.352 116.008 247.941 116.1 247.598 116.285C247.254 116.469 246.969 116.712 246.743 117.014C246.517 117.325 246.358 117.668 246.249 118.063C246.14 118.457 246.089 118.868 246.089 119.287C246.089 119.748 246.14 120.184 246.249 120.595C246.358 121.006 246.517 121.367 246.743 121.677C246.969 121.987 247.254 122.23 247.598 122.406C247.95 122.591 248.36 122.683 248.846 122.683C249.198 122.683 249.517 122.625 249.793 122.507C250.07 122.39 250.305 122.23 250.506 122.021C250.707 121.811 250.866 121.568 250.975 121.274C251.092 120.989 251.159 120.679 251.176 120.344H252.257C252.148 121.367 251.796 122.163 251.201 122.725C250.606 123.295 249.785 123.581 248.746 123.581C248.117 123.581 247.573 123.472 247.103 123.253C246.634 123.035 246.249 122.742 245.93 122.365C245.62 121.987 245.385 121.543 245.235 121.023C245.075 120.511 245 119.958 245 119.362C245 118.775 245.084 118.214 245.251 117.702C245.419 117.182 245.662 116.729 245.98 116.343C246.299 115.958 246.701 115.656 247.187 115.429C247.665 115.203 248.218 115.094 248.838 115.094C249.265 115.094 249.659 115.153 250.045 115.262C250.422 115.379 250.757 115.538 251.059 115.765C251.352 115.983 251.604 116.26 251.796 116.587C251.989 116.914 252.123 117.299 252.182 117.727H251.101C250.983 117.157 250.715 116.721 250.305 116.436Z" fill="black"/>
<path d="M254.335 116.469V115.287H255.299V116.469H254.335ZM255.308 117.526V123.396H254.344V117.526H255.308Z" fill="black"/>
<path d="M258.383 122.088C258.475 122.239 258.592 122.356 258.743 122.44C258.894 122.524 259.053 122.591 259.246 122.625C259.43 122.666 259.623 122.683 259.816 122.683C259.967 122.683 260.126 122.675 260.294 122.65C260.461 122.625 260.612 122.583 260.755 122.524C260.897 122.465 261.006 122.373 261.098 122.256C261.19 122.138 261.232 121.987 261.232 121.811C261.232 121.56 261.14 121.375 260.947 121.241C260.755 121.115 260.52 121.006 260.235 120.931C259.95 120.855 259.64 120.78 259.313 120.713C258.978 120.645 258.668 120.553 258.391 120.436C258.106 120.318 257.872 120.151 257.679 119.941C257.486 119.731 257.394 119.438 257.394 119.052C257.394 118.759 257.461 118.507 257.595 118.289C257.729 118.079 257.897 117.903 258.106 117.769C258.316 117.635 258.551 117.534 258.81 117.476C259.07 117.409 259.33 117.375 259.59 117.375C259.925 117.375 260.227 117.4 260.512 117.459C260.788 117.518 261.039 117.618 261.257 117.752C261.475 117.895 261.643 118.079 261.777 118.323C261.903 118.557 261.978 118.859 262.003 119.212H261.039C261.023 119.019 260.972 118.868 260.889 118.742C260.805 118.616 260.696 118.515 260.57 118.44C260.444 118.365 260.302 118.306 260.143 118.272C259.984 118.239 259.833 118.222 259.673 118.222C259.531 118.222 259.38 118.23 259.238 118.256C259.087 118.281 258.953 118.314 258.835 118.373C258.718 118.432 258.618 118.507 258.542 118.599C258.467 118.692 258.425 118.817 258.425 118.968C258.425 119.136 258.484 119.27 258.601 119.379C258.718 119.488 258.869 119.58 259.045 119.656C259.229 119.731 259.43 119.79 259.657 119.84C259.883 119.891 260.109 119.941 260.336 119.991C260.579 120.042 260.813 120.109 261.048 120.184C261.282 120.26 261.484 120.36 261.66 120.486C261.836 120.612 261.978 120.771 262.087 120.956C262.196 121.149 262.255 121.383 262.255 121.66C262.255 122.012 262.179 122.314 262.037 122.549C261.886 122.784 261.693 122.977 261.458 123.119C261.224 123.262 260.947 123.363 260.654 123.421C260.352 123.48 260.059 123.505 259.766 123.505C259.439 123.505 259.129 123.472 258.835 123.404C258.542 123.337 258.282 123.228 258.056 123.069C257.83 122.918 257.646 122.708 257.511 122.457C257.377 122.205 257.302 121.895 257.285 121.534H258.249C258.24 121.761 258.291 121.937 258.383 122.088Z" fill="black"/>
<path d="M267.668 118.549C267.425 118.348 267.098 118.239 266.696 118.239C266.344 118.239 266.059 118.306 265.824 118.432C265.59 118.557 265.405 118.733 265.263 118.943C265.12 119.153 265.02 119.396 264.961 119.673C264.903 119.949 264.869 120.235 264.869 120.528C264.869 120.805 264.903 121.065 264.97 121.325C265.037 121.585 265.137 121.811 265.271 122.012C265.405 122.214 265.581 122.373 265.808 122.499C266.026 122.616 266.285 122.683 266.587 122.683C267.065 122.683 267.433 122.557 267.702 122.306C267.97 122.054 268.137 121.702 268.196 121.249H269.185C269.076 121.979 268.808 122.541 268.372 122.926C267.936 123.321 267.341 123.513 266.595 123.513C266.151 123.513 265.757 123.438 265.405 123.295C265.062 123.153 264.777 122.943 264.542 122.683C264.308 122.415 264.14 122.105 264.023 121.736C263.905 121.367 263.847 120.964 263.847 120.528C263.847 120.092 263.905 119.681 264.014 119.295C264.132 118.91 264.299 118.583 264.534 118.297C264.768 118.012 265.053 117.794 265.405 117.627C265.757 117.467 266.16 117.383 266.621 117.383C266.956 117.383 267.266 117.425 267.559 117.501C267.852 117.576 268.104 117.702 268.33 117.87C268.556 118.037 268.741 118.247 268.883 118.499C269.026 118.75 269.118 119.052 269.16 119.404H268.137C268.062 119.044 267.903 118.75 267.668 118.549Z" fill="black"/>
<path d="M270.953 119.262C271.071 118.884 271.255 118.557 271.498 118.289C271.741 118.012 272.043 117.794 272.395 117.635C272.747 117.476 273.157 117.4 273.618 117.4C274.088 117.4 274.498 117.476 274.85 117.635C275.202 117.794 275.495 118.012 275.738 118.289C275.981 118.566 276.166 118.893 276.283 119.262C276.4 119.639 276.468 120.042 276.468 120.469C276.468 120.897 276.409 121.3 276.283 121.677C276.166 122.046 275.981 122.373 275.738 122.65C275.495 122.926 275.202 123.144 274.85 123.295C274.498 123.455 274.088 123.53 273.618 123.53C273.157 123.53 272.747 123.455 272.395 123.295C272.043 123.144 271.741 122.926 271.498 122.65C271.255 122.373 271.071 122.046 270.953 121.677C270.836 121.308 270.769 120.905 270.769 120.469C270.777 120.033 270.836 119.631 270.953 119.262ZM271.942 121.417C272.034 121.694 272.169 121.929 272.336 122.113C272.504 122.298 272.696 122.44 272.923 122.541C273.149 122.641 273.384 122.692 273.635 122.692C273.886 122.692 274.121 122.641 274.347 122.541C274.574 122.44 274.766 122.298 274.934 122.113C275.102 121.929 275.227 121.694 275.328 121.417C275.42 121.14 275.47 120.822 275.47 120.469C275.47 120.117 275.42 119.799 275.328 119.522C275.236 119.245 275.102 119.01 274.934 118.826C274.766 118.633 274.574 118.49 274.347 118.398C274.121 118.297 273.886 118.247 273.635 118.247C273.384 118.247 273.149 118.297 272.923 118.398C272.696 118.499 272.504 118.641 272.336 118.826C272.169 119.019 272.043 119.245 271.942 119.522C271.85 119.799 271.8 120.117 271.8 120.469C271.8 120.822 271.842 121.14 271.942 121.417Z" fill="black"/>
<path d="M293.72 88.3569C293.72 78.7131 301.53 70.8974 311.167 70.8974C315.986 70.8974 320.344 72.8514 323.503 76.0128L329.797 69.715C325.02 64.9518 318.433 62 311.159 62C296.611 62 284.82 73.799 284.82 88.3569C284.82 95.6358 287.77 102.227 292.538 106.999L298.832 100.701C295.673 97.5478 293.72 93.1788 293.72 88.3569Z" fill="#1BBBE9"/>
<path d="M329.788 69.7234C328.053 67.9875 325.238 67.9875 323.495 69.7234C321.76 71.4593 321.76 74.277 323.495 76.0212C326.654 79.1827 328.607 83.5434 328.607 88.3653C328.607 98.0091 320.796 105.825 311.159 105.825C306.34 105.825 301.983 103.871 298.824 100.709C297.089 98.9734 294.273 98.9734 292.53 100.709C290.795 102.445 290.795 105.263 292.53 107.007C297.298 111.779 303.885 114.731 311.159 114.731C325.707 114.731 337.498 102.932 337.498 88.3737C337.506 81.0779 334.556 74.495 329.788 69.7234Z" fill="#004A70"/>
<path d="M322.179 74.8304C322.296 75.7613 322.372 76.7089 322.372 77.6733C322.372 89.7741 312.567 99.5772 300.483 99.5772C299.519 99.5772 298.572 99.5101 297.642 99.3843C300.843 103.309 305.712 105.816 311.168 105.816C320.805 105.816 328.615 98.0007 328.615 88.3569C328.607 82.8977 326.101 78.0255 322.179 74.8304Z" fill="#79B63E"/>
<defs>
<filter id="filter0_d" x="0" y="0" width="385" height="234" filterUnits="userSpaceOnUse" color-interpolation-filters="sRGB">
<feFlood flood-opacity="0" result="BackgroundImageFix"/>
<feColorMatrix in="SourceAlpha" type="matrix" values="0 0 0 0 0 0 0 0 0 0 0 0 0 0 0 0 0 0 127 0"/>
<feOffset dx="5" dy="5"/>
<feGaussianBlur stdDeviation="2"/>
<feColorMatrix type="matrix" values="0 0 0 0 0 0 0 0 0 0 0 0 0 0 0 0 0 0 0.25 0"/>
<feBlend mode="normal" in2="BackgroundImageFix" result="effect1_dropShadow"/>
<feBlend mode="normal" in="SourceGraphic" in2="effect1_dropShadow" result="shape"/>
</filter>
</defs>
</svg>
