<svg width="385" height="234" viewBox="0 0 385 234" fill="none" xmlns="http://www.w3.org/2000/svg">
<g filter="url(#filter0_d)">
<rect width="376" height="225" rx="31" fill="url(#paint0_linear)"/>
</g>
<path d="M29.536 47V29.24H37.024C37.6 29.24 38.184 29.312 38.776 29.456C39.384 29.584 39.936 29.856 40.432 30.272C40.944 30.672 41.352 31.28 41.656 32.096C41.976 32.912 42.136 33.992 42.136 35.336C42.136 36.696 41.976 37.792 41.656 38.624C41.352 39.44 40.952 40.064 40.456 40.496C39.96 40.928 39.424 41.216 38.848 41.36C38.272 41.504 37.712 41.576 37.168 41.576C36.784 41.576 36.32 41.552 35.776 41.504C35.248 41.456 34.736 41.4 34.24 41.336C33.744 41.272 33.36 41.224 33.088 41.192V47H29.536ZM33.088 38.384H36.616C37.24 38.384 37.72 38.152 38.056 37.688C38.392 37.224 38.56 36.448 38.56 35.36C38.56 34.288 38.384 33.536 38.032 33.104C37.696 32.656 37.248 32.432 36.688 32.432H33.088V38.384ZM44.4423 47V29.24H51.9543C53.5543 29.24 54.8023 29.616 55.6983 30.368C56.6103 31.12 57.2423 32.16 57.5943 33.488C57.9623 34.816 58.1463 36.36 58.1463 38.12C58.1463 41.112 57.6343 43.344 56.6103 44.816C55.5863 46.272 54.0343 47 51.9543 47H44.4423ZM47.9943 43.808H51.5943C52.6983 43.808 53.4743 43.328 53.9223 42.368C54.3703 41.408 54.5943 39.992 54.5943 38.12C54.5943 36.584 54.4823 35.408 54.2583 34.592C54.0343 33.76 53.6983 33.192 53.2503 32.888C52.8183 32.584 52.2663 32.432 51.5943 32.432H47.9943V43.808ZM60.7548 47V33.296C60.7548 32.24 60.9628 31.416 61.3788 30.824C61.7948 30.232 62.3148 29.824 62.9388 29.6C63.5628 29.36 64.1868 29.24 64.8108 29.24C65.3868 29.24 66.0988 29.248 66.9468 29.264C67.8108 29.28 68.7228 29.312 69.6828 29.36C70.6588 29.392 71.5948 29.456 72.4908 29.552V32.528H65.7948C65.2988 32.528 64.9228 32.664 64.6668 32.936C64.4268 33.192 64.3068 33.528 64.3068 33.944V36.992L71.3387 37.184V39.992L64.3068 40.184V47H60.7548ZM85.1344 47C83.7424 47 82.6944 46.68 81.9904 46.04C81.2864 45.4 80.9344 44.32 80.9344 42.8V29.24H84.4864V42.224C84.4864 42.816 84.6304 43.224 84.9184 43.448C85.2224 43.672 85.6064 43.784 86.0704 43.784H91.6864V47H85.1344ZM94.0422 32.216C93.7062 32.216 93.5382 32.056 93.5382 31.736V29.384C93.5382 29.048 93.7062 28.88 94.0422 28.88H96.7782C97.0822 28.88 97.2342 29.048 97.2342 29.384V31.736C97.2342 32.056 97.0822 32.216 96.7782 32.216H94.0422ZM93.6102 47V34.112H97.1622V47H93.6102ZM107.187 47.144C106.339 47.144 105.619 47.008 105.027 46.736C104.451 46.464 103.923 46.144 103.443 45.776L102.867 47H99.8914V28.688H103.443V35C103.955 34.728 104.531 34.48 105.171 34.256C105.827 34.032 106.443 33.92 107.019 33.92C108.667 33.92 109.835 34.448 110.523 35.504C111.227 36.544 111.579 38.272 111.579 40.688C111.579 42.864 111.219 44.488 110.499 45.56C109.795 46.616 108.691 47.144 107.187 47.144ZM105.867 44.24C106.283 44.24 106.651 44.136 106.971 43.928C107.307 43.704 107.563 43.32 107.739 42.776C107.931 42.232 108.027 41.48 108.027 40.52C108.027 39.416 107.923 38.6 107.715 38.072C107.523 37.544 107.259 37.2 106.923 37.04C106.587 36.864 106.235 36.776 105.867 36.776C105.387 36.776 104.939 36.856 104.523 37.016C104.107 37.16 103.747 37.32 103.443 37.496V43.616C103.731 43.776 104.075 43.92 104.475 44.048C104.875 44.176 105.339 44.24 105.867 44.24ZM113.931 47V34.112H116.667L117.483 36.08C117.947 35.488 118.467 34.984 119.043 34.568C119.635 34.152 120.331 33.944 121.131 33.944C121.307 33.944 121.483 33.952 121.659 33.968C121.851 33.984 122.027 34.016 122.187 34.064V37.712C121.931 37.68 121.667 37.656 121.395 37.64C121.139 37.608 120.899 37.592 120.675 37.592C119.971 37.592 119.371 37.712 118.875 37.952C118.379 38.176 117.915 38.52 117.483 38.984V47H113.931ZM126.346 47.144C125.37 47.144 124.578 46.856 123.97 46.28C123.362 45.704 123.058 44.904 123.058 43.88V42.728C123.058 41.752 123.402 40.952 124.09 40.328C124.778 39.688 125.85 39.368 127.306 39.368H130.594V38.48C130.594 38.08 130.522 37.752 130.378 37.496C130.25 37.224 129.986 37.032 129.586 36.92C129.186 36.792 128.586 36.728 127.786 36.728H123.922V34.664C124.562 34.472 125.29 34.304 126.106 34.16C126.922 34.016 127.914 33.944 129.082 33.944C130.154 33.944 131.066 34.072 131.818 34.328C132.57 34.584 133.146 35.024 133.546 35.648C133.946 36.272 134.146 37.136 134.146 38.24V47H131.338L130.762 45.632C130.618 45.792 130.33 45.992 129.898 46.232C129.466 46.456 128.938 46.664 128.314 46.856C127.706 47.048 127.05 47.144 126.346 47.144ZM128.146 44.672C128.418 44.672 128.73 44.632 129.082 44.552C129.45 44.456 129.778 44.36 130.066 44.264C130.37 44.152 130.546 44.08 130.594 44.048V41.048L128.434 41.192C127.218 41.288 126.61 41.816 126.61 42.776V43.304C126.61 43.816 126.754 44.176 127.042 44.384C127.346 44.576 127.714 44.672 128.146 44.672ZM136.806 47V34.112H139.542L140.358 36.08C140.822 35.488 141.342 34.984 141.918 34.568C142.51 34.152 143.206 33.944 144.006 33.944C144.182 33.944 144.358 33.952 144.534 33.968C144.726 33.984 144.902 34.016 145.062 34.064V37.712C144.806 37.68 144.542 37.656 144.27 37.64C144.014 37.608 143.774 37.592 143.55 37.592C142.846 37.592 142.246 37.712 141.75 37.952C141.254 38.176 140.79 38.52 140.358 38.984V47H136.806ZM150.986 52.688L152.378 47C151.29 47 150.41 46.704 149.738 46.112C149.066 45.52 148.586 44.664 148.298 43.544L145.874 34.112H149.57L151.61 42.824C151.706 43.224 151.85 43.512 152.042 43.688C152.234 43.864 152.418 43.976 152.594 44.024C152.77 44.072 152.906 44.096 153.002 44.096L155.33 34.112H158.93L155.09 50.312L153.938 52.688H150.986Z" fill="white"/>
<path d="M241.536 193V175.24H248.88C249.584 175.24 250.24 175.328 250.848 175.504C251.456 175.664 251.992 175.952 252.456 176.368C252.92 176.784 253.28 177.36 253.536 178.096C253.808 178.832 253.944 179.776 253.944 180.928C253.944 181.744 253.864 182.44 253.704 183.016C253.544 183.592 253.328 184.064 253.056 184.432C252.8 184.8 252.504 185.096 252.168 185.32C251.832 185.544 251.488 185.728 251.136 185.872L254.448 193H250.824L247.968 186.424C247.776 186.424 247.552 186.424 247.296 186.424C247.056 186.408 246.808 186.4 246.552 186.4C246.296 186.4 246.04 186.4 245.784 186.4C245.528 186.4 245.296 186.392 245.088 186.376V193H241.536ZM245.088 183.568H248.256C248.576 183.568 248.864 183.528 249.12 183.448C249.376 183.368 249.6 183.232 249.792 183.04C249.984 182.832 250.128 182.56 250.224 182.224C250.336 181.888 250.392 181.456 250.392 180.928C250.392 180.432 250.336 180.024 250.224 179.704C250.128 179.368 249.984 179.112 249.792 178.936C249.6 178.744 249.376 178.616 249.12 178.552C248.864 178.472 248.576 178.432 248.256 178.432H245.088V183.568ZM261.605 193.12C260.181 193.12 259.045 192.936 258.197 192.568C257.349 192.184 256.733 191.512 256.349 190.552C255.981 189.592 255.797 188.264 255.797 186.568C255.797 184.824 255.973 183.472 256.325 182.512C256.677 181.552 257.269 180.88 258.101 180.496C258.933 180.112 260.061 179.92 261.485 179.92C262.765 179.92 263.789 180.048 264.557 180.304C265.325 180.56 265.877 181.008 266.213 181.648C266.565 182.288 266.741 183.192 266.741 184.36C266.741 185.224 266.565 185.912 266.213 186.424C265.877 186.92 265.397 187.28 264.773 187.504C264.149 187.712 263.413 187.816 262.565 187.816H259.325C259.357 188.472 259.453 189 259.613 189.4C259.789 189.784 260.101 190.064 260.549 190.24C261.013 190.4 261.677 190.48 262.541 190.48H266.309V192.568C265.685 192.696 264.997 192.824 264.245 192.952C263.509 193.064 262.629 193.12 261.605 193.12ZM259.277 185.704H262.205C262.685 185.704 263.037 185.608 263.261 185.416C263.485 185.224 263.597 184.88 263.597 184.384C263.597 183.92 263.525 183.552 263.381 183.28C263.237 182.992 263.013 182.792 262.709 182.68C262.405 182.552 261.997 182.488 261.485 182.488C260.941 182.488 260.509 182.584 260.189 182.776C259.869 182.952 259.637 183.272 259.493 183.736C259.349 184.2 259.277 184.856 259.277 185.704ZM271.807 193.144C270.831 193.144 270.039 192.856 269.431 192.28C268.823 191.704 268.519 190.904 268.519 189.88V188.728C268.519 187.752 268.863 186.952 269.551 186.328C270.239 185.688 271.311 185.368 272.767 185.368H276.055V184.48C276.055 184.08 275.983 183.752 275.839 183.496C275.695 183.224 275.423 183.032 275.023 182.92C274.639 182.792 274.047 182.728 273.247 182.728H269.383V180.664C270.007 180.472 270.727 180.304 271.543 180.16C272.375 180.016 273.375 179.944 274.543 179.944C275.615 179.944 276.527 180.072 277.279 180.328C278.047 180.584 278.623 181.024 279.007 181.648C279.407 182.272 279.607 183.136 279.607 184.24V193H276.799L276.223 191.632C276.111 191.76 275.919 191.904 275.647 192.064C275.375 192.224 275.039 192.392 274.639 192.568C274.255 192.728 273.815 192.864 273.319 192.976C272.839 193.088 272.335 193.144 271.807 193.144ZM273.607 190.672C273.767 190.672 273.943 190.656 274.135 190.624C274.343 190.576 274.551 190.528 274.759 190.48C274.983 190.416 275.183 190.36 275.359 190.312C275.551 190.248 275.703 190.192 275.815 190.144C275.943 190.096 276.023 190.064 276.055 190.048V187.048L273.895 187.192C273.271 187.24 272.807 187.4 272.503 187.672C272.215 187.944 272.071 188.312 272.071 188.776V189.304C272.071 189.624 272.135 189.888 272.263 190.096C272.407 190.304 272.591 190.456 272.815 190.552C273.055 190.632 273.319 190.672 273.607 190.672ZM286.49 193.144C285.482 193.144 284.634 192.936 283.946 192.52C283.258 192.088 282.738 191.4 282.386 190.456C282.05 189.496 281.882 188.24 281.882 186.688C281.882 185.088 282.026 183.792 282.314 182.8C282.618 181.808 283.122 181.08 283.826 180.616C284.53 180.152 285.498 179.92 286.73 179.92C287.322 179.92 287.906 179.984 288.482 180.112C289.058 180.224 289.57 180.36 290.018 180.52V174.688H293.594V193H290.594L290.018 191.776C289.746 192.032 289.41 192.264 289.01 192.472C288.626 192.68 288.218 192.848 287.786 192.976C287.354 193.088 286.922 193.144 286.49 193.144ZM287.738 190.288C288.218 190.288 288.65 190.208 289.034 190.048C289.434 189.888 289.762 189.728 290.018 189.568V183.088C289.698 182.976 289.362 182.864 289.01 182.752C288.658 182.64 288.282 182.584 287.882 182.584C287.29 182.584 286.81 182.688 286.442 182.896C286.09 183.104 285.834 183.496 285.674 184.072C285.514 184.632 285.434 185.448 285.434 186.52C285.434 187.512 285.506 188.288 285.65 188.848C285.81 189.392 286.058 189.768 286.394 189.976C286.73 190.184 287.178 190.288 287.738 190.288ZM302.734 193V175.24H305.59L313.03 186.952V175.24H316.582V193H313.726L306.31 181.288V193H302.734ZM324.865 193.12C323.809 193.12 322.905 193.016 322.153 192.808C321.401 192.584 320.785 192.216 320.305 191.704C319.841 191.192 319.497 190.512 319.273 189.664C319.065 188.816 318.961 187.768 318.961 186.52C318.961 185.208 319.065 184.128 319.273 183.28C319.497 182.416 319.841 181.744 320.305 181.264C320.785 180.768 321.401 180.424 322.153 180.232C322.921 180.024 323.825 179.92 324.865 179.92C325.937 179.92 326.849 180.024 327.601 180.232C328.353 180.44 328.961 180.792 329.425 181.288C329.905 181.768 330.249 182.44 330.457 183.304C330.681 184.152 330.793 185.224 330.793 186.52C330.793 187.8 330.689 188.872 330.481 189.736C330.273 190.584 329.937 191.256 329.473 191.752C329.009 192.248 328.393 192.6 327.625 192.808C326.873 193.016 325.953 193.12 324.865 193.12ZM324.865 190.288C325.297 190.288 325.657 190.248 325.945 190.168C326.249 190.088 326.489 189.928 326.665 189.688C326.857 189.432 327.001 189.048 327.097 188.536C327.193 188.024 327.241 187.352 327.241 186.52C327.241 185.672 327.193 185 327.097 184.504C327.001 183.992 326.857 183.616 326.665 183.376C326.489 183.12 326.249 182.952 325.945 182.872C325.657 182.792 325.297 182.752 324.865 182.752C324.449 182.752 324.089 182.792 323.785 182.872C323.497 182.952 323.257 183.12 323.065 183.376C322.873 183.616 322.729 183.992 322.633 184.504C322.553 185 322.513 185.672 322.513 186.52C322.513 187.352 322.553 188.024 322.633 188.536C322.729 189.048 322.873 189.432 323.065 189.688C323.257 189.928 323.497 190.088 323.785 190.168C324.089 190.248 324.449 190.288 324.865 190.288ZM335.009 193L331.601 180.112H335.273L337.312 189.712L339.857 180.112H342.785L345.329 189.712L347.177 180.112H350.849L347.489 193H343.553L341.249 185.152L338.873 193H335.009Z" fill="white"/>
<path d="M44.276 190C43.7907 190 43.3707 189.925 43.016 189.776C42.6707 189.627 42.4093 189.384 42.232 189.048C42.0547 188.703 41.966 188.25 41.966 187.69V179.668H43.688V187.41C43.688 187.671 43.7347 187.881 43.828 188.04C43.9213 188.189 44.0427 188.292 44.192 188.348C44.3507 188.404 44.5233 188.432 44.71 188.432H48.14V190H44.276ZM52.4265 190.07C51.6145 190.07 50.9658 189.958 50.4805 189.734C50.0045 189.51 49.6592 189.123 49.4445 188.572C49.2298 188.012 49.1225 187.237 49.1225 186.248C49.1225 185.24 49.2252 184.461 49.4305 183.91C49.6358 183.35 49.9765 182.958 50.4525 182.734C50.9285 182.51 51.5725 182.398 52.3845 182.398C53.1032 182.398 53.6772 182.473 54.1065 182.622C54.5452 182.762 54.8625 183.019 55.0585 183.392C55.2638 183.756 55.3665 184.274 55.3665 184.946C55.3665 185.422 55.2732 185.805 55.0865 186.094C54.8998 186.374 54.6292 186.575 54.2745 186.696C53.9292 186.817 53.5185 186.878 53.0425 186.878H50.8445C50.8632 187.345 50.9238 187.718 51.0265 187.998C51.1385 188.269 51.3345 188.465 51.6145 188.586C51.9038 188.707 52.3238 188.768 52.8745 188.768H55.1425V189.79C54.7598 189.865 54.3538 189.93 53.9245 189.986C53.5045 190.042 53.0052 190.07 52.4265 190.07ZM50.8305 185.828H52.8745C53.2012 185.828 53.4392 185.767 53.5885 185.646C53.7472 185.515 53.8265 185.282 53.8265 184.946C53.8265 184.619 53.7798 184.363 53.6865 184.176C53.5932 183.989 53.4392 183.859 53.2245 183.784C53.0098 183.7 52.7298 183.658 52.3845 183.658C51.9925 183.658 51.6845 183.719 51.4605 183.84C51.2365 183.961 51.0732 184.181 50.9705 184.498C50.8772 184.806 50.8305 185.249 50.8305 185.828ZM59.7774 190.084C59.3294 190.084 58.9141 190.028 58.5314 189.916C58.1581 189.795 57.8314 189.594 57.5514 189.314C57.2714 189.025 57.0521 188.633 56.8934 188.138C56.7441 187.643 56.6694 187.023 56.6694 186.276C56.6694 185.511 56.7394 184.876 56.8794 184.372C57.0287 183.868 57.2387 183.471 57.5094 183.182C57.7801 182.893 58.1067 182.692 58.4894 182.58C58.8814 182.459 59.3247 182.398 59.8194 182.398C60.2394 182.398 60.6641 182.421 61.0934 182.468C61.5227 182.505 61.9521 182.58 62.3814 182.692V183.686H60.3374C59.8894 183.686 59.5254 183.756 59.2454 183.896C58.9654 184.036 58.7554 184.293 58.6154 184.666C58.4754 185.039 58.4054 185.576 58.4054 186.276C58.4054 186.967 58.4754 187.494 58.6154 187.858C58.7554 188.213 58.9654 188.455 59.2454 188.586C59.5347 188.707 59.9034 188.768 60.3514 188.768H62.4934V189.748C62.2694 189.813 62.0081 189.874 61.7094 189.93C61.4107 189.977 61.0934 190.014 60.7574 190.042C60.4307 190.07 60.1041 190.084 59.7774 190.084ZM66.5007 190C65.9593 190 65.516 189.921 65.1707 189.762C64.8253 189.594 64.5733 189.319 64.4147 188.936C64.2653 188.553 64.1953 188.049 64.2047 187.424L64.2607 183.896H63.0847V182.776L64.3167 182.496L64.5687 180.396H65.9267V182.496H67.8307V183.896H65.9267V187.41C65.9267 187.653 65.95 187.853 65.9967 188.012C66.0433 188.161 66.1087 188.283 66.1927 188.376C66.286 188.46 66.384 188.521 66.4867 188.558C66.5893 188.595 66.6967 188.619 66.8087 188.628L67.7467 188.726V190H66.5007ZM71.2727 190.084C70.582 190.084 70.0454 189.893 69.6627 189.51C69.28 189.118 69.0887 188.549 69.0887 187.802V182.496H70.8247V187.298C70.8247 187.793 70.9367 188.124 71.1607 188.292C71.394 188.46 71.7067 188.544 72.0987 188.544C72.4254 188.544 72.7427 188.493 73.0507 188.39C73.3587 188.287 73.648 188.138 73.9187 187.942V182.496H75.6547V190H74.2407L73.9187 189.216C73.564 189.44 73.158 189.641 72.7007 189.818C72.2527 189.995 71.7767 190.084 71.2727 190.084ZM77.4015 190V182.496H78.7455L79.1375 183.7C79.4362 183.336 79.7675 183.028 80.1315 182.776C80.4955 182.524 80.9295 182.398 81.4335 182.398C81.5362 182.398 81.6435 182.407 81.7555 182.426C81.8675 182.435 81.9702 182.454 82.0635 182.482V184.246C81.9329 184.227 81.7929 184.213 81.6435 184.204C81.4942 184.195 81.3495 184.19 81.2095 184.19C80.9202 184.19 80.6542 184.223 80.4115 184.288C80.1782 184.353 79.9589 184.456 79.7535 184.596C79.5482 184.727 79.3429 184.895 79.1375 185.1V190H77.4015ZM86.3328 190.07C85.5208 190.07 84.8721 189.958 84.3868 189.734C83.9108 189.51 83.5654 189.123 83.3508 188.572C83.1361 188.012 83.0288 187.237 83.0288 186.248C83.0288 185.24 83.1314 184.461 83.3368 183.91C83.5421 183.35 83.8828 182.958 84.3588 182.734C84.8348 182.51 85.4788 182.398 86.2908 182.398C87.0094 182.398 87.5834 182.473 88.0128 182.622C88.4514 182.762 88.7688 183.019 88.9648 183.392C89.1701 183.756 89.2728 184.274 89.2728 184.946C89.2728 185.422 89.1794 185.805 88.9928 186.094C88.8061 186.374 88.5354 186.575 88.1808 186.696C87.8354 186.817 87.4248 186.878 86.9488 186.878H84.7508C84.7694 187.345 84.8301 187.718 84.9328 187.998C85.0448 188.269 85.2408 188.465 85.5208 188.586C85.8101 188.707 86.2301 188.768 86.7808 188.768H89.0488V189.79C88.6661 189.865 88.2601 189.93 87.8308 189.986C87.4108 190.042 86.9114 190.07 86.3328 190.07ZM84.7368 185.828H86.7808C87.1074 185.828 87.3454 185.767 87.4948 185.646C87.6534 185.515 87.7328 185.282 87.7328 184.946C87.7328 184.619 87.6861 184.363 87.5928 184.176C87.4994 183.989 87.3454 183.859 87.1308 183.784C86.9161 183.7 86.6361 183.658 86.2908 183.658C85.8988 183.658 85.5908 183.719 85.3668 183.84C85.1428 183.961 84.9794 184.181 84.8768 184.498C84.7834 184.806 84.7368 185.249 84.7368 185.828ZM94.6737 190V179.668H96.0597L100.764 187.046V179.668H102.5V190H101.114L96.4097 182.622V190H94.6737ZM107.375 190.07C106.787 190.07 106.279 190.009 105.849 189.888C105.42 189.767 105.07 189.561 104.799 189.272C104.529 188.983 104.328 188.591 104.197 188.096C104.067 187.601 104.001 186.981 104.001 186.234C104.001 185.459 104.067 184.825 104.197 184.33C104.328 183.826 104.529 183.434 104.799 183.154C105.079 182.865 105.434 182.669 105.863 182.566C106.293 182.454 106.797 182.398 107.375 182.398C107.973 182.398 108.486 182.459 108.915 182.58C109.345 182.692 109.695 182.888 109.965 183.168C110.236 183.448 110.437 183.84 110.567 184.344C110.698 184.839 110.763 185.469 110.763 186.234C110.763 186.99 110.698 187.62 110.567 188.124C110.446 188.619 110.25 189.011 109.979 189.3C109.709 189.58 109.359 189.781 108.929 189.902C108.5 190.014 107.982 190.07 107.375 190.07ZM107.375 188.684C107.665 188.684 107.912 188.661 108.117 188.614C108.323 188.558 108.491 188.451 108.621 188.292C108.761 188.124 108.864 187.877 108.929 187.55C108.995 187.214 109.027 186.771 109.027 186.22C109.027 185.679 108.995 185.245 108.929 184.918C108.864 184.591 108.761 184.349 108.621 184.19C108.491 184.022 108.323 183.915 108.117 183.868C107.912 183.812 107.665 183.784 107.375 183.784C107.095 183.784 106.853 183.812 106.647 183.868C106.442 183.915 106.274 184.022 106.143 184.19C106.013 184.349 105.91 184.591 105.835 184.918C105.77 185.245 105.737 185.679 105.737 186.22C105.737 186.771 105.77 187.214 105.835 187.55C105.91 187.877 106.013 188.124 106.143 188.292C106.274 188.451 106.442 188.558 106.647 188.614C106.853 188.661 107.095 188.684 107.375 188.684ZM115.036 190C114.494 190 114.051 189.921 113.706 189.762C113.36 189.594 113.108 189.319 112.95 188.936C112.8 188.553 112.73 188.049 112.74 187.424L112.796 183.896H111.62V182.776L112.852 182.496L113.104 180.396H114.462V182.496H116.366V183.896H114.462V187.41C114.462 187.653 114.485 187.853 114.532 188.012C114.578 188.161 114.644 188.283 114.728 188.376C114.821 188.46 114.919 188.521 115.022 188.558C115.124 188.595 115.232 188.619 115.344 188.628L116.282 188.726V190H115.036ZM120.704 190.07C119.892 190.07 119.243 189.958 118.758 189.734C118.282 189.51 117.937 189.123 117.722 188.572C117.507 188.012 117.4 187.237 117.4 186.248C117.4 185.24 117.503 184.461 117.708 183.91C117.913 183.35 118.254 182.958 118.73 182.734C119.206 182.51 119.85 182.398 120.662 182.398C121.381 182.398 121.955 182.473 122.384 182.622C122.823 182.762 123.14 183.019 123.336 183.392C123.541 183.756 123.644 184.274 123.644 184.946C123.644 185.422 123.551 185.805 123.364 186.094C123.177 186.374 122.907 186.575 122.552 186.696C122.207 186.817 121.796 186.878 121.32 186.878H119.122C119.141 187.345 119.201 187.718 119.304 187.998C119.416 188.269 119.612 188.465 119.892 188.586C120.181 188.707 120.601 188.768 121.152 188.768H123.42V189.79C123.037 189.865 122.631 189.93 122.202 189.986C121.782 190.042 121.283 190.07 120.704 190.07ZM119.108 185.828H121.152C121.479 185.828 121.717 185.767 121.866 185.646C122.025 185.515 122.104 185.282 122.104 184.946C122.104 184.619 122.057 184.363 121.964 184.176C121.871 183.989 121.717 183.859 121.502 183.784C121.287 183.7 121.007 183.658 120.662 183.658C120.27 183.658 119.962 183.719 119.738 183.84C119.514 183.961 119.351 184.181 119.248 184.498C119.155 184.806 119.108 185.249 119.108 185.828ZM127.873 190.084C127.658 190.084 127.411 190.075 127.131 190.056C126.86 190.047 126.585 190.028 126.305 190C126.034 189.981 125.782 189.953 125.549 189.916C125.315 189.879 125.124 189.837 124.975 189.79V188.768H128.209C128.442 188.768 128.638 188.749 128.797 188.712C128.965 188.675 129.091 188.6 129.175 188.488C129.259 188.376 129.301 188.208 129.301 187.984V187.718C129.301 187.485 129.221 187.303 129.063 187.172C128.913 187.032 128.647 186.962 128.265 186.962H127.131C126.692 186.962 126.3 186.901 125.955 186.78C125.619 186.659 125.353 186.453 125.157 186.164C124.961 185.875 124.863 185.483 124.863 184.988V184.568C124.863 184.092 124.951 183.7 125.129 183.392C125.315 183.075 125.619 182.837 126.039 182.678C126.468 182.51 127.037 182.426 127.747 182.426C128.045 182.426 128.367 182.44 128.713 182.468C129.058 182.496 129.389 182.533 129.707 182.58C130.024 182.617 130.276 182.664 130.463 182.72V183.742H127.411C127.065 183.742 126.799 183.803 126.613 183.924C126.435 184.036 126.347 184.251 126.347 184.568V184.834C126.347 185.039 126.389 185.193 126.473 185.296C126.557 185.399 126.683 185.469 126.851 185.506C127.019 185.543 127.219 185.562 127.453 185.562H128.615C129.352 185.562 129.898 185.73 130.253 186.066C130.607 186.402 130.785 186.878 130.785 187.494V188.11C130.785 188.614 130.668 189.011 130.435 189.3C130.201 189.589 129.865 189.795 129.427 189.916C128.997 190.028 128.479 190.084 127.873 190.084Z" fill="white"/>
<path d="M206.752 111.93C206.752 110.527 205.577 109.391 204.128 109.391H177.104C175.655 109.391 174.48 110.527 174.48 111.93C174.48 113.332 175.655 114.469 177.104 114.469H204.128C205.577 114.469 206.752 113.332 206.752 111.93Z" fill="white"/>
<path d="M177.104 119.547C175.655 119.547 174.48 120.684 174.48 122.086C174.48 123.488 175.655 124.625 177.104 124.625H193.517C194.966 124.625 196.141 123.488 196.141 122.086C196.141 120.684 194.966 119.547 193.517 119.547H177.104Z" fill="white"/>
<path d="M183.27 143.922H174.495C171.601 143.922 169.247 141.644 169.247 138.844V94.1562C169.247 91.3562 171.601 89.0781 174.495 89.0781H206.752C209.645 89.0781 211.999 91.3562 211.999 94.1562V109.771C211.999 111.174 213.174 112.311 214.623 112.311C216.072 112.311 217.247 111.174 217.247 109.771V94.1562C217.247 88.5561 212.539 84 206.752 84H174.495C168.708 84 164 88.5561 164 94.1562V138.844C164 144.444 168.708 149 174.495 149H183.27C184.719 149 185.893 147.863 185.893 146.461C185.893 145.059 184.719 143.922 183.27 143.922Z" fill="white"/>
<path d="M221.894 120.762C218.825 117.792 213.831 117.792 210.764 120.76L196.36 134.669C196.054 134.964 195.828 135.328 195.703 135.728L192.565 145.723C192.287 146.609 192.53 147.571 193.198 148.234C193.699 148.73 194.379 149 195.076 149C195.309 149 195.545 148.97 195.776 148.908L206.366 146.069C206.802 145.952 207.199 145.728 207.519 145.419L221.894 131.535C224.963 128.565 224.963 123.732 221.894 120.762ZM204.301 141.353L198.973 142.782L200.532 137.814L210.251 128.429L213.963 132.021L204.301 141.353ZM218.185 127.942L217.677 128.433L213.966 124.842L214.473 124.353C215.496 123.363 217.16 123.363 218.183 124.353C219.206 125.343 219.206 126.954 218.185 127.942Z" fill="white"/>
<path d="M204.128 99.2344H177.104C175.655 99.2344 174.48 100.371 174.48 101.773C174.48 103.176 175.655 104.312 177.104 104.312H204.128C205.577 104.312 206.752 103.176 206.752 101.773C206.752 100.371 205.577 99.2344 204.128 99.2344Z" fill="white"/>
<defs>
<filter id="filter0_d" x="0" y="0" width="385" height="234" filterUnits="userSpaceOnUse" color-interpolation-filters="sRGB">
<feFlood flood-opacity="0" result="BackgroundImageFix"/>
<feColorMatrix in="SourceAlpha" type="matrix" values="0 0 0 0 0 0 0 0 0 0 0 0 0 0 0 0 0 0 127 0"/>
<feOffset dx="5" dy="5"/>
<feGaussianBlur stdDeviation="2"/>
<feColorMatrix type="matrix" values="0 0 0 0 0 0 0 0 0 0 0 0 0 0 0 0 0 0 0.25 0"/>
<feBlend mode="normal" in2="BackgroundImageFix" result="effect1_dropShadow"/>
<feBlend mode="normal" in="SourceGraphic" in2="effect1_dropShadow" result="shape"/>
</filter>
<linearGradient id="paint0_linear" x1="57.6952" y1="21.2838" x2="463.914" y2="290.076" gradientUnits="userSpaceOnUse">
<stop stop-color="#0071BC"/>
<stop offset="1" stop-color="#1B1464"/>
</linearGradient>
</defs>
</svg>
