<svg width="313" height="307" viewBox="0 0 313 307" fill="none" xmlns="http://www.w3.org/2000/svg">
<g filter="url(#filter0_d)">
<rect width="293" height="287" rx="40" fill="url(#paint0_linear)"/>
</g>
<path d="M79.716 252L77.238 241.64H79.38L81.046 248.948L82.992 241.64H84.896L86.828 248.948L88.494 241.64H90.636L88.158 252H86.044L83.944 244.692L81.83 252H79.716ZM94.3344 252.07C93.5037 252.07 92.8364 251.953 92.3324 251.72C91.8284 251.477 91.4597 251.076 91.2264 250.516C91.0024 249.956 90.8904 249.191 90.8904 248.22C90.8904 247.193 91.0071 246.405 91.2404 245.854C91.4737 245.294 91.8424 244.907 92.3464 244.692C92.8504 244.477 93.5131 244.37 94.3344 244.37C95.1651 244.37 95.8324 244.482 96.3364 244.706C96.8497 244.93 97.2184 245.322 97.4424 245.882C97.6757 246.442 97.7924 247.221 97.7924 248.22C97.7924 249.219 97.6804 249.998 97.4564 250.558C97.2324 251.118 96.8684 251.51 96.3644 251.734C95.8604 251.958 95.1837 252.07 94.3344 252.07ZM94.3344 250.418C94.6611 250.418 94.9271 250.371 95.1324 250.278C95.3377 250.185 95.4871 249.984 95.5804 249.676C95.6737 249.359 95.7204 248.873 95.7204 248.22C95.7204 247.557 95.6737 247.072 95.5804 246.764C95.4871 246.456 95.3377 246.255 95.1324 246.162C94.9271 246.069 94.6611 246.022 94.3344 246.022C94.0077 246.022 93.7417 246.069 93.5364 246.162C93.3404 246.255 93.1957 246.456 93.1024 246.764C93.0091 247.072 92.9624 247.557 92.9624 248.22C92.9624 248.873 93.0091 249.359 93.1024 249.676C93.1957 249.984 93.3404 250.185 93.5364 250.278C93.7417 250.371 94.0077 250.418 94.3344 250.418ZM99.1671 252V244.482H100.763L101.239 245.63C101.51 245.285 101.813 244.991 102.149 244.748C102.494 244.505 102.9 244.384 103.367 244.384C103.47 244.384 103.572 244.389 103.675 244.398C103.787 244.407 103.89 244.426 103.983 244.454V246.582C103.834 246.563 103.68 246.549 103.521 246.54C103.372 246.521 103.232 246.512 103.101 246.512C102.69 246.512 102.34 246.582 102.051 246.722C101.762 246.853 101.491 247.053 101.239 247.324V252H99.1671ZM105.087 252V241.318H107.159V247.086H108.041L109.693 244.482H111.793L109.581 248.024L112.017 252H109.917L108.013 248.948H107.159V252H105.087ZM120.452 252.07C119.874 252.07 119.337 252.023 118.842 251.93C118.357 251.827 117.928 251.655 117.554 251.412C117.19 251.16 116.906 250.815 116.7 250.376C116.504 249.928 116.406 249.359 116.406 248.668V241.64H118.478V248.654C118.478 249.223 118.651 249.625 118.996 249.858C119.342 250.091 119.827 250.208 120.452 250.208C121.068 250.208 121.549 250.091 121.894 249.858C122.24 249.625 122.412 249.223 122.412 248.654V241.64H124.498V248.668C124.498 249.359 124.396 249.928 124.19 250.376C123.985 250.815 123.7 251.16 123.336 251.412C122.972 251.655 122.543 251.827 122.048 251.93C121.554 252.023 121.022 252.07 120.452 252.07ZM126.046 252V244.482H127.754L128.118 245.252C128.398 245.028 128.753 244.823 129.182 244.636C129.611 244.449 130.045 244.356 130.484 244.356C131.1 244.356 131.576 244.477 131.912 244.72C132.248 244.963 132.481 245.289 132.612 245.7C132.752 246.101 132.822 246.549 132.822 247.044V252H130.75V247.31C130.75 246.946 130.652 246.675 130.456 246.498C130.26 246.311 129.999 246.218 129.672 246.218C129.373 246.218 129.093 246.269 128.832 246.372C128.58 246.475 128.342 246.61 128.118 246.778V252H126.046ZM136.836 252.084C135.95 252.084 135.278 251.799 134.82 251.23C134.372 250.651 134.148 249.681 134.148 248.318C134.148 247.394 134.232 246.643 134.4 246.064C134.578 245.476 134.872 245.047 135.282 244.776C135.693 244.505 136.258 244.37 136.976 244.37C137.312 244.37 137.648 244.407 137.984 244.482C138.33 244.547 138.633 244.627 138.894 244.72V241.318H140.98V252H139.23L138.894 251.286C138.652 251.501 138.339 251.687 137.956 251.846C137.583 252.005 137.21 252.084 136.836 252.084ZM137.564 250.418C137.844 250.418 138.096 250.371 138.32 250.278C138.554 250.185 138.745 250.091 138.894 249.998V246.218C138.717 246.143 138.521 246.078 138.306 246.022C138.101 245.957 137.882 245.924 137.648 245.924C137.303 245.924 137.023 245.985 136.808 246.106C136.603 246.227 136.454 246.456 136.36 246.792C136.267 247.119 136.22 247.595 136.22 248.22C136.22 248.808 136.262 249.261 136.346 249.578C136.44 249.895 136.584 250.115 136.78 250.236C136.976 250.357 137.238 250.418 137.564 250.418ZM145.698 252.07C144.868 252.07 144.205 251.963 143.71 251.748C143.216 251.524 142.856 251.137 142.632 250.586C142.418 250.026 142.31 249.247 142.31 248.248C142.31 247.231 142.413 246.442 142.618 245.882C142.824 245.322 143.169 244.93 143.654 244.706C144.14 244.482 144.798 244.37 145.628 244.37C146.366 244.37 146.958 244.445 147.406 244.594C147.864 244.743 148.19 245.005 148.386 245.378C148.592 245.751 148.694 246.279 148.694 246.96C148.694 247.725 148.475 248.253 148.036 248.542C147.598 248.831 147.005 248.976 146.258 248.976H144.368C144.378 249.359 144.434 249.662 144.536 249.886C144.639 250.11 144.821 250.273 145.082 250.376C145.353 250.479 145.74 250.53 146.244 250.53H148.442V251.748C148.078 251.823 147.677 251.897 147.238 251.972C146.809 252.037 146.296 252.07 145.698 252.07ZM144.34 247.744H146.048C146.328 247.744 146.534 247.688 146.664 247.576C146.795 247.455 146.86 247.254 146.86 246.974C146.86 246.563 146.762 246.279 146.566 246.12C146.38 245.952 146.067 245.868 145.628 245.868C145.152 245.868 144.816 245.999 144.62 246.26C144.434 246.512 144.34 247.007 144.34 247.744ZM150.054 252V244.482H151.65L152.126 245.63C152.397 245.285 152.7 244.991 153.036 244.748C153.381 244.505 153.787 244.384 154.254 244.384C154.357 244.384 154.459 244.389 154.562 244.398C154.674 244.407 154.777 244.426 154.87 244.454V246.582C154.721 246.563 154.567 246.549 154.408 246.54C154.259 246.521 154.119 246.512 153.988 246.512C153.577 246.512 153.227 246.582 152.938 246.722C152.649 246.853 152.378 247.053 152.126 247.324V252H150.054ZM159.681 252V241.64H164.049C164.385 241.64 164.726 241.682 165.071 241.766C165.426 241.841 165.748 241.999 166.037 242.242C166.336 242.475 166.574 242.83 166.751 243.306C166.938 243.782 167.031 244.412 167.031 245.196C167.031 245.989 166.938 246.629 166.751 247.114C166.574 247.59 166.34 247.954 166.051 248.206C165.762 248.458 165.449 248.626 165.113 248.71C164.777 248.794 164.45 248.836 164.133 248.836C163.909 248.836 163.638 248.822 163.321 248.794C163.013 248.766 162.714 248.733 162.425 248.696C162.136 248.659 161.912 248.631 161.753 248.612V252H159.681ZM161.753 246.974H163.811C164.175 246.974 164.455 246.839 164.651 246.568C164.847 246.297 164.945 245.845 164.945 245.21C164.945 244.585 164.842 244.146 164.637 243.894C164.441 243.633 164.18 243.502 163.853 243.502H161.753V246.974ZM168.278 252V244.482H169.874L170.35 245.63C170.621 245.285 170.924 244.991 171.26 244.748C171.606 244.505 172.012 244.384 172.478 244.384C172.581 244.384 172.684 244.389 172.786 244.398C172.898 244.407 173.001 244.426 173.094 244.454V246.582C172.945 246.563 172.791 246.549 172.632 246.54C172.483 246.521 172.343 246.512 172.212 246.512C171.802 246.512 171.452 246.582 171.162 246.722C170.873 246.853 170.602 247.053 170.35 247.324V252H168.278ZM177.418 252.07C176.588 252.07 175.92 251.953 175.416 251.72C174.912 251.477 174.544 251.076 174.31 250.516C174.086 249.956 173.974 249.191 173.974 248.22C173.974 247.193 174.091 246.405 174.324 245.854C174.558 245.294 174.926 244.907 175.43 244.692C175.934 244.477 176.597 244.37 177.418 244.37C178.249 244.37 178.916 244.482 179.42 244.706C179.934 244.93 180.302 245.322 180.526 245.882C180.76 246.442 180.876 247.221 180.876 248.22C180.876 249.219 180.764 249.998 180.54 250.558C180.316 251.118 179.952 251.51 179.448 251.734C178.944 251.958 178.268 252.07 177.418 252.07ZM177.418 250.418C177.745 250.418 178.011 250.371 178.216 250.278C178.422 250.185 178.571 249.984 178.664 249.676C178.758 249.359 178.804 248.873 178.804 248.22C178.804 247.557 178.758 247.072 178.664 246.764C178.571 246.456 178.422 246.255 178.216 246.162C178.011 246.069 177.745 246.022 177.418 246.022C177.092 246.022 176.826 246.069 176.62 246.162C176.424 246.255 176.28 246.456 176.186 246.764C176.093 247.072 176.046 247.557 176.046 248.22C176.046 248.873 176.093 249.359 176.186 249.676C176.28 249.984 176.424 250.185 176.62 250.278C176.826 250.371 177.092 250.418 177.418 250.418ZM184.197 255.472C183.488 255.472 182.9 255.318 182.433 255.01C181.966 254.702 181.733 254.254 181.733 253.666V253.442C181.733 253.059 181.836 252.728 182.041 252.448C182.256 252.177 182.531 251.963 182.867 251.804C182.615 251.655 182.424 251.473 182.293 251.258C182.172 251.043 182.111 250.81 182.111 250.558C182.111 250.175 182.218 249.858 182.433 249.606C182.657 249.354 182.965 249.181 183.357 249.088C182.909 248.845 182.596 248.533 182.419 248.15C182.242 247.767 182.153 247.361 182.153 246.932C182.153 246.101 182.41 245.485 182.923 245.084C183.436 244.683 184.22 244.482 185.275 244.482H189.349V245.616L188.201 245.826C188.332 245.966 188.458 246.153 188.579 246.386C188.7 246.61 188.761 246.946 188.761 247.394C188.761 247.823 188.668 248.215 188.481 248.57C188.304 248.915 188.014 249.191 187.613 249.396C187.221 249.592 186.698 249.69 186.045 249.69H184.715C184.463 249.69 184.258 249.727 184.099 249.802C183.94 249.877 183.861 250.012 183.861 250.208C183.861 250.367 183.926 250.479 184.057 250.544C184.197 250.6 184.351 250.628 184.519 250.628H186.591C187.45 250.628 188.117 250.801 188.593 251.146C189.069 251.491 189.307 252.07 189.307 252.882V253.092C189.307 253.829 189.074 254.408 188.607 254.828C188.14 255.257 187.422 255.472 186.451 255.472H184.197ZM185.009 248.136H185.807C186.236 248.136 186.521 248.043 186.661 247.856C186.81 247.66 186.885 247.408 186.885 247.1C186.885 246.708 186.796 246.433 186.619 246.274C186.442 246.115 186.19 246.036 185.863 246.036H185.079C184.724 246.036 184.458 246.115 184.281 246.274C184.104 246.423 184.015 246.689 184.015 247.072C184.015 247.445 184.099 247.716 184.267 247.884C184.435 248.052 184.682 248.136 185.009 248.136ZM184.771 254.016H186.199C186.544 254.016 186.82 253.946 187.025 253.806C187.24 253.675 187.347 253.475 187.347 253.204V252.98C187.347 252.737 187.258 252.541 187.081 252.392C186.913 252.252 186.638 252.182 186.255 252.182H184.743C184.435 252.182 184.183 252.252 183.987 252.392C183.791 252.541 183.693 252.756 183.693 253.036V253.19C183.693 253.741 184.052 254.016 184.771 254.016ZM190.4 252V244.482H191.996L192.472 245.63C192.742 245.285 193.046 244.991 193.382 244.748C193.727 244.505 194.133 244.384 194.6 244.384C194.702 244.384 194.805 244.389 194.908 244.398C195.02 244.407 195.122 244.426 195.216 244.454V246.582C195.066 246.563 194.912 246.549 194.754 246.54C194.604 246.521 194.464 246.512 194.334 246.512C193.923 246.512 193.573 246.582 193.284 246.722C192.994 246.853 192.724 247.053 192.472 247.324V252H190.4ZM199.483 252.07C198.653 252.07 197.99 251.963 197.495 251.748C197.001 251.524 196.641 251.137 196.417 250.586C196.203 250.026 196.095 249.247 196.095 248.248C196.095 247.231 196.198 246.442 196.403 245.882C196.609 245.322 196.954 244.93 197.439 244.706C197.925 244.482 198.583 244.37 199.413 244.37C200.151 244.37 200.743 244.445 201.191 244.594C201.649 244.743 201.975 245.005 202.171 245.378C202.377 245.751 202.479 246.279 202.479 246.96C202.479 247.725 202.26 248.253 201.821 248.542C201.383 248.831 200.79 248.976 200.043 248.976H198.153C198.163 249.359 198.219 249.662 198.321 249.886C198.424 250.11 198.606 250.273 198.867 250.376C199.138 250.479 199.525 250.53 200.029 250.53H202.227V251.748C201.863 251.823 201.462 251.897 201.023 251.972C200.594 252.037 200.081 252.07 199.483 252.07ZM198.125 247.744H199.833C200.113 247.744 200.319 247.688 200.449 247.576C200.58 247.455 200.645 247.254 200.645 246.974C200.645 246.563 200.547 246.279 200.351 246.12C200.165 245.952 199.852 245.868 199.413 245.868C198.937 245.868 198.601 245.999 198.405 246.26C198.219 246.512 198.125 247.007 198.125 247.744ZM206.569 252.084C206.252 252.084 205.906 252.07 205.533 252.042C205.169 252.023 204.819 251.991 204.483 251.944C204.147 251.888 203.872 251.823 203.657 251.748V250.53H206.989C207.278 250.53 207.493 250.493 207.633 250.418C207.773 250.334 207.843 250.166 207.843 249.914V249.676C207.843 249.489 207.782 249.345 207.661 249.242C207.54 249.139 207.316 249.088 206.989 249.088H205.813C205.384 249.088 204.996 249.027 204.651 248.906C204.306 248.775 204.03 248.561 203.825 248.262C203.629 247.963 203.531 247.557 203.531 247.044V246.61C203.531 246.134 203.624 245.733 203.811 245.406C203.998 245.079 204.31 244.832 204.749 244.664C205.188 244.496 205.79 244.412 206.555 244.412C206.863 244.412 207.19 244.431 207.535 244.468C207.89 244.496 208.221 244.538 208.529 244.594C208.846 244.65 209.098 244.706 209.285 244.762V245.98H206.135C205.864 245.98 205.659 246.027 205.519 246.12C205.379 246.204 205.309 246.367 205.309 246.61V246.834C205.309 247.077 205.384 247.235 205.533 247.31C205.682 247.385 205.911 247.422 206.219 247.422H207.423C208.188 247.422 208.744 247.599 209.089 247.954C209.444 248.299 209.621 248.78 209.621 249.396V250.068C209.621 250.833 209.355 251.361 208.823 251.65C208.3 251.939 207.549 252.084 206.569 252.084ZM213.637 252.084C213.32 252.084 212.975 252.07 212.601 252.042C212.237 252.023 211.887 251.991 211.551 251.944C211.215 251.888 210.94 251.823 210.725 251.748V250.53H214.057C214.347 250.53 214.561 250.493 214.701 250.418C214.841 250.334 214.911 250.166 214.911 249.914V249.676C214.911 249.489 214.851 249.345 214.729 249.242C214.608 249.139 214.384 249.088 214.057 249.088H212.881C212.452 249.088 212.065 249.027 211.719 248.906C211.374 248.775 211.099 248.561 210.893 248.262C210.697 247.963 210.599 247.557 210.599 247.044V246.61C210.599 246.134 210.693 245.733 210.879 245.406C211.066 245.079 211.379 244.832 211.817 244.664C212.256 244.496 212.858 244.412 213.623 244.412C213.931 244.412 214.258 244.431 214.603 244.468C214.958 244.496 215.289 244.538 215.597 244.594C215.915 244.65 216.167 244.706 216.353 244.762V245.98H213.203C212.933 245.98 212.727 246.027 212.587 246.12C212.447 246.204 212.377 246.367 212.377 246.61V246.834C212.377 247.077 212.452 247.235 212.601 247.31C212.751 247.385 212.979 247.422 213.287 247.422H214.491C215.257 247.422 215.812 247.599 216.157 247.954C216.512 248.299 216.689 248.78 216.689 249.396V250.068C216.689 250.833 216.423 251.361 215.891 251.65C215.369 251.939 214.617 252.084 213.637 252.084Z" fill="white"/>
<path d="M65.462 227.156C64.474 227.156 63.4167 227.104 62.29 227C61.1807 226.879 60.2273 226.714 59.43 226.506V223.464C60.1927 223.533 61.1113 223.594 62.186 223.646C63.278 223.681 64.3093 223.698 65.28 223.698C66.268 223.698 67.048 223.568 67.62 223.308C68.192 223.031 68.478 222.511 68.478 221.748V221.046C68.478 220.474 68.3047 220.041 67.958 219.746C67.6113 219.434 67.1347 219.278 66.528 219.278H64.89C63.0527 219.278 61.64 218.879 60.652 218.082C59.6813 217.267 59.196 215.889 59.196 213.948V213.012C59.196 211.14 59.7247 209.771 60.782 208.904C61.8567 208.037 63.3993 207.604 65.41 207.604C66.4673 207.604 67.516 207.673 68.556 207.812C69.6133 207.951 70.506 208.098 71.234 208.254V211.296C70.4367 211.244 69.544 211.192 68.556 211.14C67.5853 211.088 66.684 211.062 65.852 211.062C64.9507 211.062 64.2227 211.201 63.668 211.478C63.1307 211.755 62.862 212.327 62.862 213.194V213.714C62.862 214.39 63.0527 214.875 63.434 215.17C63.8153 215.465 64.3787 215.612 65.124 215.612H67.022C68.738 215.612 70.0207 216.08 70.87 217.016C71.7193 217.952 72.144 219.131 72.144 220.552V221.644C72.144 223.152 71.858 224.305 71.286 225.102C70.7313 225.899 69.9513 226.445 68.946 226.74C67.958 227.017 66.7967 227.156 65.462 227.156ZM74.7925 233.162V213.038H78.0165L78.6405 214.364C79.1259 213.983 79.6892 213.636 80.3305 213.324C80.9892 212.995 81.7172 212.83 82.5145 212.83C84.2479 212.83 85.5045 213.471 86.2845 214.754C87.0645 216.037 87.4545 217.796 87.4545 220.032C87.4545 221.523 87.3072 222.805 87.0125 223.88C86.7179 224.955 86.2065 225.778 85.4785 226.35C84.7679 226.905 83.7799 227.182 82.5145 227.182C81.8559 227.182 81.1799 227.104 80.4865 226.948C79.8105 226.792 79.1952 226.567 78.6405 226.272V233.162H74.7925ZM81.2665 224.01C81.6652 224.01 82.0379 223.906 82.3845 223.698C82.7485 223.473 83.0432 223.074 83.2685 222.502C83.4939 221.93 83.6065 221.107 83.6065 220.032C83.6065 218.472 83.3812 217.397 82.9305 216.808C82.4972 216.219 81.9425 215.924 81.2665 215.924C80.7292 215.924 80.2352 216.011 79.7845 216.184C79.3339 216.357 78.9525 216.531 78.6405 216.704V223.334C78.9872 223.542 79.3945 223.707 79.8625 223.828C80.3305 223.949 80.7985 224.01 81.2665 224.01ZM95.8775 227.13C94.3349 227.13 93.1042 226.931 92.1855 226.532C91.2669 226.116 90.5995 225.397 90.1835 224.374C89.7849 223.334 89.5855 221.887 89.5855 220.032C89.5855 218.143 89.7762 216.678 90.1575 215.638C90.5389 214.598 91.1802 213.87 92.0815 213.454C92.9829 213.038 94.2049 212.83 95.7475 212.83C97.1169 212.83 98.2175 212.969 99.0495 213.246C99.8989 213.523 100.506 214.009 100.87 214.702C101.251 215.395 101.442 216.375 101.442 217.64C101.442 219.061 101.034 220.041 100.22 220.578C99.4049 221.115 98.3042 221.384 96.9175 221.384H93.4075C93.4249 222.095 93.5289 222.658 93.7195 223.074C93.9102 223.49 94.2482 223.793 94.7335 223.984C95.2362 224.175 95.9555 224.27 96.8915 224.27H100.974V226.532C100.298 226.671 99.5522 226.809 98.7375 226.948C97.9402 227.069 96.9869 227.13 95.8775 227.13ZM93.3555 219.096H96.5275C97.0475 219.096 97.4289 218.992 97.6715 218.784C97.9142 218.559 98.0355 218.186 98.0355 217.666C98.0355 216.903 97.8535 216.375 97.4895 216.08C97.1429 215.768 96.5622 215.612 95.7475 215.612C94.8635 215.612 94.2395 215.855 93.8755 216.34C93.5289 216.808 93.3555 217.727 93.3555 219.096ZM109.4 227.156C108.256 227.156 107.242 226.948 106.358 226.532C105.492 226.116 104.807 225.397 104.304 224.374C103.802 223.351 103.55 221.921 103.55 220.084C103.55 218.177 103.784 216.704 104.252 215.664C104.72 214.607 105.396 213.87 106.28 213.454C107.164 213.038 108.239 212.83 109.504 212.83C110.354 212.83 111.16 212.882 111.922 212.986C112.702 213.073 113.517 213.237 114.366 213.48V215.69H110.7C109.903 215.69 109.262 215.811 108.776 216.054C108.291 216.279 107.936 216.713 107.71 217.354C107.502 217.978 107.398 218.879 107.398 220.058C107.398 221.237 107.502 222.129 107.71 222.736C107.936 223.325 108.291 223.724 108.776 223.932C109.279 224.14 109.938 224.244 110.752 224.244H114.574V226.428C113.933 226.636 113.136 226.809 112.182 226.948C111.229 227.087 110.302 227.156 109.4 227.156ZM117.18 210.984C116.816 210.984 116.634 210.811 116.634 210.464V207.916C116.634 207.552 116.816 207.37 117.18 207.37H120.144C120.474 207.37 120.638 207.552 120.638 207.916V210.464C120.638 210.811 120.474 210.984 120.144 210.984H117.18ZM116.712 227V213.038H120.56V227H116.712ZM126.481 227.156C125.424 227.156 124.566 226.844 123.907 226.22C123.248 225.596 122.919 224.729 122.919 223.62V222.372C122.919 221.315 123.292 220.448 124.037 219.772C124.782 219.079 125.944 218.732 127.521 218.732H131.083V217.77C131.083 217.337 131.005 216.981 130.849 216.704C130.71 216.409 130.424 216.201 129.991 216.08C129.558 215.941 128.908 215.872 128.041 215.872H123.855V213.636C124.548 213.428 125.337 213.246 126.221 213.09C127.105 212.934 128.18 212.856 129.445 212.856C130.606 212.856 131.594 212.995 132.409 213.272C133.224 213.549 133.848 214.026 134.281 214.702C134.714 215.378 134.931 216.314 134.931 217.51V227H131.889L131.265 225.518C131.109 225.691 130.797 225.908 130.329 226.168C129.861 226.411 129.289 226.636 128.613 226.844C127.954 227.052 127.244 227.156 126.481 227.156ZM128.431 224.478C128.726 224.478 129.064 224.435 129.445 224.348C129.844 224.244 130.199 224.14 130.511 224.036C130.84 223.915 131.031 223.837 131.083 223.802V220.552L128.743 220.708C127.426 220.812 126.767 221.384 126.767 222.424V222.996C126.767 223.551 126.923 223.941 127.235 224.166C127.564 224.374 127.963 224.478 128.431 224.478ZM142.18 227.052C140.707 227.052 139.606 226.688 138.878 225.96C138.167 225.232 137.812 224.079 137.812 222.502V207.162H141.66V221.93C141.66 222.71 141.781 223.256 142.024 223.568C142.267 223.863 142.631 224.045 143.116 224.114L144.182 224.27V227.052H142.18ZM157.658 227L151.626 207.76H155.604L160.102 222.84L164.6 207.76H168.552L162.52 227H157.658ZM170.932 210.984C170.568 210.984 170.386 210.811 170.386 210.464V207.916C170.386 207.552 170.568 207.37 170.932 207.37H173.896C174.226 207.37 174.39 207.552 174.39 207.916V210.464C174.39 210.811 174.226 210.984 173.896 210.984H170.932ZM170.464 227V213.038H174.312V227H170.464ZM181.845 227.156C180.198 227.156 178.95 226.627 178.101 225.57C177.269 224.495 176.853 222.693 176.853 220.162C176.853 218.446 177.009 217.051 177.321 215.976C177.65 214.884 178.196 214.087 178.959 213.584C179.722 213.081 180.77 212.83 182.105 212.83C182.729 212.83 183.353 212.899 183.977 213.038C184.618 213.159 185.182 213.307 185.667 213.48V207.162H189.541V227H186.291L185.667 225.674C185.216 226.073 184.636 226.419 183.925 226.714C183.232 227.009 182.538 227.156 181.845 227.156ZM183.197 224.062C183.717 224.062 184.185 223.975 184.601 223.802C185.034 223.629 185.39 223.455 185.667 223.282V216.262C185.338 216.123 184.974 216.002 184.575 215.898C184.194 215.777 183.786 215.716 183.353 215.716C182.712 215.716 182.192 215.829 181.793 216.054C181.412 216.279 181.134 216.704 180.961 217.328C180.788 217.935 180.701 218.819 180.701 219.98C180.701 221.072 180.779 221.913 180.935 222.502C181.108 223.091 181.377 223.499 181.741 223.724C182.105 223.949 182.59 224.062 183.197 224.062ZM198.303 227.13C196.761 227.13 195.53 226.931 194.611 226.532C193.693 226.116 193.025 225.397 192.609 224.374C192.211 223.334 192.011 221.887 192.011 220.032C192.011 218.143 192.202 216.678 192.583 215.638C192.965 214.598 193.606 213.87 194.507 213.454C195.409 213.038 196.631 212.83 198.173 212.83C199.543 212.83 200.643 212.969 201.475 213.246C202.325 213.523 202.931 214.009 203.295 214.702C203.677 215.395 203.867 216.375 203.867 217.64C203.867 219.061 203.46 220.041 202.645 220.578C201.831 221.115 200.73 221.384 199.343 221.384H195.833C195.851 222.095 195.955 222.658 196.145 223.074C196.336 223.49 196.674 223.793 197.159 223.984C197.662 224.175 198.381 224.27 199.317 224.27H203.399V226.532C202.723 226.671 201.978 226.809 201.163 226.948C200.366 227.069 199.413 227.13 198.303 227.13ZM195.781 219.096H198.953C199.473 219.096 199.855 218.992 200.097 218.784C200.34 218.559 200.461 218.186 200.461 217.666C200.461 216.903 200.279 216.375 199.915 216.08C199.569 215.768 198.988 215.612 198.173 215.612C197.289 215.612 196.665 215.855 196.301 216.34C195.955 216.808 195.781 217.727 195.781 219.096ZM212.372 227.13C210.829 227.13 209.59 226.913 208.654 226.48C207.718 226.029 207.033 225.284 206.6 224.244C206.184 223.204 205.976 221.783 205.976 219.98C205.976 218.073 206.193 216.609 206.626 215.586C207.059 214.546 207.744 213.827 208.68 213.428C209.616 213.029 210.847 212.83 212.372 212.83C213.915 212.83 215.154 213.038 216.09 213.454C217.043 213.87 217.728 214.598 218.144 215.638C218.577 216.678 218.794 218.125 218.794 219.98C218.794 221.835 218.586 223.282 218.17 224.322C217.754 225.362 217.078 226.09 216.142 226.506C215.206 226.922 213.949 227.13 212.372 227.13ZM212.372 224.062C212.979 224.062 213.473 223.975 213.854 223.802C214.235 223.629 214.513 223.256 214.686 222.684C214.859 222.095 214.946 221.193 214.946 219.98C214.946 218.749 214.859 217.848 214.686 217.276C214.513 216.704 214.235 216.331 213.854 216.158C213.473 215.985 212.979 215.898 212.372 215.898C211.765 215.898 211.271 215.985 210.89 216.158C210.526 216.331 210.257 216.704 210.084 217.276C209.911 217.848 209.824 218.749 209.824 219.98C209.824 221.193 209.911 222.095 210.084 222.684C210.257 223.256 210.526 223.629 210.89 223.802C211.271 223.975 211.765 224.062 212.372 224.062ZM226.417 227.156C225.828 227.156 225.187 227.13 224.493 227.078C223.817 227.043 223.167 226.983 222.543 226.896C221.919 226.792 221.408 226.671 221.009 226.532V224.27H227.197C227.735 224.27 228.133 224.201 228.393 224.062C228.653 223.906 228.783 223.594 228.783 223.126V222.684C228.783 222.337 228.671 222.069 228.445 221.878C228.22 221.687 227.804 221.592 227.197 221.592H225.013C224.216 221.592 223.497 221.479 222.855 221.254C222.214 221.011 221.703 220.613 221.321 220.058C220.957 219.503 220.775 218.749 220.775 217.796V216.99C220.775 216.106 220.949 215.361 221.295 214.754C221.642 214.147 222.223 213.688 223.037 213.376C223.852 213.064 224.97 212.908 226.391 212.908C226.963 212.908 227.57 212.943 228.211 213.012C228.87 213.064 229.485 213.142 230.057 213.246C230.647 213.35 231.115 213.454 231.461 213.558V215.82H225.611C225.109 215.82 224.727 215.907 224.467 216.08C224.207 216.236 224.077 216.539 224.077 216.99V217.406C224.077 217.857 224.216 218.151 224.493 218.29C224.771 218.429 225.195 218.498 225.767 218.498H228.003C229.425 218.498 230.456 218.827 231.097 219.486C231.756 220.127 232.085 221.02 232.085 222.164V223.412C232.085 224.833 231.591 225.813 230.603 226.35C229.633 226.887 228.237 227.156 226.417 227.156Z" fill="white"/>
<path d="M153.785 97.147C152.636 97.835 151.326 98.1834 149.999 98.1539C148.672 98.1698 147.364 97.8223 146.21 97.147L129.063 86.3739C129.063 86.3739 127.514 85.4045 127.514 87.5935V98.3322C127.514 103.977 137.562 110.081 149.999 110.081C162.435 110.081 172.487 103.98 172.487 98.3353V86.9868C172.487 85.2168 171.383 86.0705 171.383 86.0705L153.785 97.147Z" stroke="white" stroke-width="1.5" stroke-miterlimit="10"/>
<path d="M178.424 77.2158C179.733 76.3791 179.733 75.0143 178.424 74.1426L152.38 60.5488C151.071 59.7089 148.929 59.7089 147.593 60.5488L121.576 74.1426C120.268 74.9825 120.268 76.3473 121.576 77.2158L147.623 93.886C148.929 94.7227 151.071 94.7227 152.41 93.886L178.424 77.2158Z" fill="white"/>
<path d="M179.638 102.292V84.7492C179.638 84.7492 179.638 83.9215 179.23 84.1883C178.718 84.5028 178.226 84.8584 177.756 85.2525C177.425 85.6072 177.498 86.3773 177.498 86.3773V102.322C177.498 102.559 177.322 102.647 177.239 102.708C176.851 102.974 176.528 103.353 176.301 103.809C176.075 104.265 175.952 104.781 175.946 105.309C175.946 106.116 176.22 106.89 176.706 107.46C177.193 108.031 177.853 108.352 178.541 108.352C179.229 108.352 179.889 108.031 180.376 107.46C180.862 106.89 181.135 106.116 181.135 105.309C181.132 104.777 181.011 104.254 180.785 103.793C180.558 103.332 180.234 102.947 179.843 102.677C179.814 102.62 179.638 102.529 179.638 102.292Z" fill="white"/>
<path d="M121.822 110.081C121.433 110.082 121.047 110.16 120.688 110.311C120.329 110.462 120.003 110.684 119.728 110.964C119.453 111.243 119.236 111.574 119.087 111.939C118.939 112.304 118.863 112.694 118.864 113.089V157.779C118.872 158.57 119.186 159.326 119.74 159.883C120.294 160.44 121.042 160.753 121.822 160.755C128.737 160.787 140.294 162.228 148.27 170.622V123.829C148.269 123.3 148.129 122.782 147.864 122.327C141.323 111.708 128.737 110.113 121.822 110.081Z" stroke="white" stroke-width="1.5" stroke-miterlimit="10"/>
<path d="M181.135 157.779V113.089C181.136 112.694 181.06 112.303 180.911 111.938C180.763 111.573 180.545 111.242 180.27 110.962C179.995 110.683 179.668 110.461 179.309 110.31C178.949 110.159 178.564 110.081 178.175 110.081V110.081C171.26 110.113 158.677 111.708 152.136 122.294C151.857 122.745 151.716 123.268 151.731 123.8V170.622C159.703 162.228 171.26 160.787 178.175 160.755C178.955 160.754 179.704 160.441 180.258 159.884C180.812 159.327 181.127 158.57 181.135 157.779V157.779Z" stroke="white" stroke-width="1.5" stroke-miterlimit="10"/>
<path d="M187.417 127.488H185.719V159.012C185.711 160.72 185.077 162.355 183.956 163.558C182.836 164.761 181.32 165.433 179.741 165.427C175.119 165.427 167.491 166.404 162.108 171.897C171.454 169.443 181.291 171.026 186.899 172.398C187.244 172.481 187.602 172.482 187.947 172.4C188.293 172.318 188.618 172.156 188.899 171.924C189.176 171.694 189.399 171.398 189.553 171.059C189.706 170.72 189.785 170.348 189.784 169.97V130.023C189.774 129.35 189.52 128.707 189.078 128.233C188.635 127.759 188.039 127.492 187.417 127.488V127.488Z" fill="white"/>
<path d="M114.337 159.061V127.532H112.642C112.026 127.533 111.435 127.797 110.997 128.267C110.559 128.736 110.31 129.374 110.304 130.04V169.995C110.301 170.373 110.378 170.746 110.53 171.086C110.682 171.427 110.904 171.725 111.179 171.957C111.457 172.196 111.782 172.363 112.128 172.446C112.475 172.528 112.835 172.524 113.18 172.433C118.789 171.058 128.629 169.475 137.979 171.93C132.59 166.439 124.976 165.486 120.339 165.462C118.76 165.472 117.24 164.805 116.115 163.605C114.99 162.405 114.351 160.771 114.337 159.061V159.061Z" fill="white"/>
<path d="M104.286 53H195.717C205.816 53 214 61.189 214 71.2791V162.721C214 172.821 205.816 181 195.717 181H104.286C94.1873 181 86 172.811 86 162.721V71.289C86 61.189 94.1873 53 104.286 53Z" stroke="white" stroke-width="2"/>
<defs>
<filter id="filter0_d" x="0" y="0" width="313" height="307" filterUnits="userSpaceOnUse" color-interpolation-filters="sRGB">
<feFlood flood-opacity="0" result="BackgroundImageFix"/>
<feColorMatrix in="SourceAlpha" type="matrix" values="0 0 0 0 0 0 0 0 0 0 0 0 0 0 0 0 0 0 127 0"/>
<feOffset dx="10" dy="10"/>
<feGaussianBlur stdDeviation="5"/>
<feColorMatrix type="matrix" values="0 0 0 0 0 0 0 0 0 0 0 0 0 0 0 0 0 0 0.25 0"/>
<feBlend mode="normal" in2="BackgroundImageFix" result="effect1_dropShadow"/>
<feBlend mode="normal" in="SourceGraphic" in2="effect1_dropShadow" result="shape"/>
</filter>
<linearGradient id="paint0_linear" x1="44.9593" y1="27.1487" x2="436.176" y2="185.293" gradientUnits="userSpaceOnUse">
<stop stop-color="#0071BC"/>
<stop offset="1" stop-color="#1B1464"/>
</linearGradient>
</defs>
</svg>
