<svg width="520" height="290" viewBox="0 0 520 290" fill="none" xmlns="http://www.w3.org/2000/svg">
<g filter="url(#filter0_d)">
<rect width="500" height="270" rx="40" fill="url(#paint0_linear)"/>
</g>
<path d="M47.4676 61.944C46.5556 61.944 45.5796 61.896 44.5396 61.8C43.5156 61.688 42.6356 61.536 41.8996 61.344V58.536C42.6036 58.6 43.4516 58.656 44.4436 58.704C45.4516 58.736 46.4036 58.752 47.2996 58.752C48.2116 58.752 48.9316 58.632 49.4596 58.392C49.9876 58.136 50.2516 57.656 50.2516 56.952V56.304C50.2516 55.776 50.0916 55.376 49.7716 55.104C49.4516 54.816 49.0116 54.672 48.4516 54.672H46.9396C45.2436 54.672 43.9396 54.304 43.0276 53.568C42.1316 52.816 41.6836 51.544 41.6836 49.752V48.888C41.6836 47.16 42.1716 45.896 43.1476 45.096C44.1396 44.296 45.5636 43.896 47.4196 43.896C48.3956 43.896 49.3636 43.96 50.3236 44.088C51.2996 44.216 52.1236 44.352 52.7956 44.496V47.304C52.0596 47.256 51.2356 47.208 50.3236 47.16C49.4276 47.112 48.5956 47.088 47.8276 47.088C46.9956 47.088 46.3236 47.216 45.8116 47.472C45.3156 47.728 45.0676 48.256 45.0676 49.056V49.536C45.0676 50.16 45.2436 50.608 45.5956 50.88C45.9476 51.152 46.4676 51.288 47.1556 51.288H48.9076C50.4916 51.288 51.6756 51.72 52.4596 52.584C53.2436 53.448 53.6356 54.536 53.6356 55.848V56.856C53.6356 58.248 53.3716 59.312 52.8436 60.048C52.3316 60.784 51.6116 61.288 50.6836 61.56C49.7716 61.816 48.6996 61.944 47.4676 61.944ZM60.9764 61.8C59.4884 61.8 58.4164 61.464 57.7604 60.792C57.1204 60.12 56.8244 58.928 56.8724 57.216L56.9924 51.768H54.9764V49.488L57.1124 48.912L57.5924 45.312H60.4004V48.912H63.4244V51.768H60.4004V57.192C60.4004 57.896 60.5284 58.368 60.7844 58.608C61.0404 58.832 61.3364 58.968 61.6724 59.016L63.3044 59.16V61.8H60.9764ZM69.0565 61.944C67.8885 61.944 66.9765 61.608 66.3205 60.936C65.6805 60.248 65.3605 59.28 65.3605 58.032V48.912H68.9125V56.976C68.9125 57.696 69.0805 58.184 69.4165 58.44C69.7525 58.68 70.2085 58.8 70.7845 58.8C71.2325 58.8 71.6885 58.72 72.1525 58.56C72.6325 58.384 73.0565 58.152 73.4245 57.864V48.912H77.0005V61.8H74.0485L73.4245 60.48C72.8325 60.864 72.1605 61.208 71.4085 61.512C70.6725 61.8 69.8885 61.944 69.0565 61.944ZM83.906 61.944C82.386 61.944 81.234 61.456 80.45 60.48C79.682 59.488 79.298 57.824 79.298 55.488C79.298 53.904 79.442 52.616 79.73 51.624C80.034 50.616 80.538 49.88 81.242 49.416C81.946 48.952 82.914 48.72 84.146 48.72C84.722 48.72 85.298 48.784 85.874 48.912C86.466 49.024 86.986 49.16 87.434 49.32V43.488H91.01V61.8H88.01L87.434 60.576C87.018 60.944 86.482 61.264 85.826 61.536C85.186 61.808 84.546 61.944 83.906 61.944ZM85.154 59.088C85.634 59.088 86.066 59.008 86.45 58.848C86.85 58.688 87.178 58.528 87.434 58.368V51.888C87.13 51.76 86.794 51.648 86.426 51.552C86.074 51.44 85.698 51.384 85.298 51.384C84.706 51.384 84.226 51.488 83.858 51.696C83.506 51.904 83.25 52.296 83.09 52.872C82.93 53.432 82.85 54.248 82.85 55.32C82.85 56.328 82.922 57.104 83.066 57.648C83.226 58.192 83.474 58.568 83.81 58.776C84.146 58.984 84.594 59.088 85.154 59.088ZM97.7062 67.488L99.0982 61.8C98.0102 61.8 97.1302 61.504 96.4582 60.912C95.7862 60.32 95.3062 59.464 95.0182 58.344L92.5942 48.912H96.2902L98.3302 57.624C98.4262 58.024 98.5702 58.312 98.7622 58.488C98.9542 58.664 99.1382 58.776 99.3142 58.824C99.4902 58.872 99.6262 58.896 99.7222 58.896L102.05 48.912H105.65L101.81 65.112L100.658 67.488H97.7062ZM113.214 61.8L115.278 44.04H118.686L122.766 57.648L126.822 44.04H130.206L132.294 61.8H128.862L127.494 50.16L124.398 61.8H121.062L117.966 50.304L116.646 61.8H113.214ZM137.215 61.944C136.239 61.944 135.447 61.656 134.839 61.08C134.231 60.504 133.927 59.704 133.927 58.68V57.528C133.927 56.552 134.271 55.752 134.959 55.128C135.647 54.488 136.719 54.168 138.175 54.168H141.463V53.28C141.463 52.88 141.391 52.552 141.247 52.296C141.119 52.024 140.855 51.832 140.455 51.72C140.055 51.592 139.455 51.528 138.655 51.528H134.791V49.464C135.431 49.272 136.159 49.104 136.975 48.96C137.791 48.816 138.783 48.744 139.951 48.744C141.023 48.744 141.935 48.872 142.687 49.128C143.439 49.384 144.015 49.824 144.415 50.448C144.815 51.072 145.015 51.936 145.015 53.04V61.8H142.207L141.631 60.432C141.487 60.592 141.199 60.792 140.767 61.032C140.335 61.256 139.807 61.464 139.183 61.656C138.575 61.848 137.919 61.944 137.215 61.944ZM139.015 59.472C139.287 59.472 139.599 59.432 139.951 59.352C140.319 59.256 140.647 59.16 140.935 59.064C141.239 58.952 141.415 58.88 141.463 58.848V55.848L139.303 55.992C138.087 56.088 137.479 56.616 137.479 57.576V58.104C137.479 58.616 137.623 58.976 137.911 59.184C138.215 59.376 138.583 59.472 139.015 59.472ZM152.57 61.8C151.082 61.8 150.01 61.464 149.354 60.792C148.714 60.12 148.418 58.928 148.466 57.216L148.586 51.768H146.57V49.488L148.706 48.912L149.186 45.312H151.994V48.912H155.018V51.768H151.994V57.192C151.994 57.896 152.122 58.368 152.378 58.608C152.634 58.832 152.93 58.968 153.266 59.016L154.898 59.16V61.8H152.57ZM162.426 61.92C161.002 61.92 159.866 61.736 159.018 61.368C158.17 60.984 157.554 60.32 157.17 59.376C156.802 58.416 156.618 57.08 156.618 55.368C156.618 53.624 156.794 52.272 157.146 51.312C157.498 50.352 158.09 49.68 158.922 49.296C159.754 48.912 160.882 48.72 162.306 48.72C163.57 48.72 164.586 48.848 165.354 49.104C166.138 49.36 166.698 49.808 167.034 50.448C167.386 51.088 167.562 51.992 167.562 53.16C167.562 54.472 167.186 55.376 166.434 55.872C165.682 56.368 164.666 56.616 163.386 56.616H160.146C160.162 57.272 160.258 57.792 160.434 58.176C160.61 58.56 160.922 58.84 161.37 59.016C161.834 59.192 162.498 59.28 163.362 59.28H167.13V61.368C166.506 61.496 165.818 61.624 165.066 61.752C164.33 61.864 163.45 61.92 162.426 61.92ZM160.098 54.504H163.026C163.506 54.504 163.858 54.408 164.082 54.216C164.306 54.008 164.418 53.664 164.418 53.184C164.418 52.48 164.25 51.992 163.914 51.72C163.594 51.432 163.058 51.288 162.306 51.288C161.49 51.288 160.914 51.512 160.578 51.96C160.258 52.392 160.098 53.24 160.098 54.504ZM169.893 61.8V48.912H172.629L173.445 50.88C173.909 50.288 174.429 49.784 175.005 49.368C175.597 48.952 176.293 48.744 177.093 48.744C177.269 48.744 177.445 48.752 177.621 48.768C177.813 48.784 177.989 48.816 178.149 48.864V52.512C177.893 52.48 177.629 52.456 177.357 52.44C177.101 52.408 176.861 52.392 176.637 52.392C175.933 52.392 175.333 52.512 174.837 52.752C174.341 52.976 173.877 53.32 173.445 53.784V61.8H169.893ZM180.473 47.016C180.137 47.016 179.969 46.856 179.969 46.536V44.184C179.969 43.848 180.137 43.68 180.473 43.68H183.209C183.513 43.68 183.665 43.848 183.665 44.184V46.536C183.665 46.856 183.513 47.016 183.209 47.016H180.473ZM180.041 61.8V48.912H183.593V61.8H180.041ZM189.059 61.944C188.083 61.944 187.291 61.656 186.683 61.08C186.075 60.504 185.771 59.704 185.771 58.68V57.528C185.771 56.552 186.115 55.752 186.803 55.128C187.491 54.488 188.563 54.168 190.019 54.168H193.307V53.28C193.307 52.88 193.235 52.552 193.091 52.296C192.963 52.024 192.699 51.832 192.299 51.72C191.899 51.592 191.299 51.528 190.499 51.528H186.635V49.464C187.275 49.272 188.003 49.104 188.819 48.96C189.635 48.816 190.627 48.744 191.795 48.744C192.867 48.744 193.779 48.872 194.531 49.128C195.283 49.384 195.859 49.824 196.259 50.448C196.659 51.072 196.859 51.936 196.859 53.04V61.8H194.051L193.475 60.432C193.331 60.592 193.043 60.792 192.611 61.032C192.179 61.256 191.651 61.464 191.027 61.656C190.419 61.848 189.763 61.944 189.059 61.944ZM190.859 59.472C191.131 59.472 191.443 59.432 191.795 59.352C192.163 59.256 192.491 59.16 192.779 59.064C193.083 58.952 193.259 58.88 193.307 58.848V55.848L191.147 55.992C189.931 56.088 189.323 56.616 189.323 57.576V58.104C189.323 58.616 189.467 58.976 189.755 59.184C190.059 59.376 190.427 59.472 190.859 59.472ZM203.55 61.848C202.19 61.848 201.174 61.512 200.502 60.84C199.846 60.168 199.518 59.104 199.518 57.648V43.488H203.07V57.12C203.07 57.84 203.182 58.344 203.406 58.632C203.63 58.904 203.966 59.072 204.414 59.136L205.398 59.28V61.848H203.55Z" fill="white"/>
<path d="M198.244 217.917H194.828C192.459 212.672 192.458 207.554 194.826 202.336H198.244C202.054 202.336 205.153 199.449 205.153 195.9C205.153 192.351 202.054 189.464 198.244 189.464H184.499C186.248 187.602 187.312 185.168 187.312 182.505V162.341C187.312 156.507 182.217 151.761 175.955 151.761H170.365C170.84 150.88 171.108 149.887 171.108 148.837C171.108 145.223 167.956 142.284 164.082 142.284H162.159C160.443 138.333 160.442 134.474 162.156 130.548H164.082C167.956 130.548 171.108 127.608 171.108 123.995C171.108 120.386 167.956 117.45 164.082 117.45H98.5139C87.2851 117.45 78.1498 125.956 78.1498 136.412C78.1498 141.469 80.2713 146.229 84.1229 149.817C84.8887 150.531 85.7061 151.178 86.5639 151.761H85.0587C81.2491 151.761 78.1498 154.647 78.1498 158.196C78.1498 161.745 81.2491 164.632 85.0587 164.632H88.477C90.8452 169.85 90.8444 174.968 88.4744 180.213H85.0587C81.2491 180.213 78.1498 183.1 78.1498 186.649C78.1498 188.006 78.6046 189.266 79.378 190.306C75.3175 191.919 72.4639 195.677 72.4639 200.044V220.209C72.4639 226.043 77.5553 230.788 83.8134 230.788H198.244C202.053 230.788 205.153 227.901 205.153 224.353C205.153 220.804 202.054 217.917 198.244 217.917V217.917ZM198.244 193.085C199.91 193.085 201.266 194.348 201.266 195.9C201.266 197.452 199.91 198.715 198.244 198.715H163.165C162.091 198.715 161.221 199.525 161.221 200.525C161.221 201.525 162.091 202.336 163.165 202.336H190.656C189.897 204.323 189.432 206.318 189.257 208.316C189.257 208.316 188.48 211.899 190.66 217.917H86.8446C86.5398 217.917 86.2822 217.677 86.2822 217.393V202.86C86.2822 202.576 86.5398 202.336 86.8446 202.336H106.1L106.102 208.282C105.979 210.062 106.912 210.764 107.485 211.025C108.066 211.289 109.259 211.545 110.727 210.295C110.737 210.287 110.748 210.278 110.757 210.269L116.19 205.442L121.623 210.269C121.633 210.278 121.643 210.287 121.653 210.295C122.513 211.027 123.278 211.243 123.882 211.243C124.313 211.243 124.663 211.133 124.905 211.022C125.479 210.758 126.411 210.054 126.279 208.278L126.282 202.336H153.595C154.669 202.336 155.539 201.525 155.539 200.525C155.539 199.526 154.669 198.715 153.595 198.715H126.283L126.286 193.085H198.244V193.085ZM94.0471 170.613C93.8719 168.615 93.3984 166.62 92.6393 164.633H172.932C173.237 164.633 173.494 164.873 173.494 165.157V179.689C173.494 179.973 173.237 180.213 172.932 180.213H126.291L126.294 174.233H139.897C140.971 174.233 141.841 173.423 141.841 172.423C141.841 171.423 140.971 170.612 139.897 170.612H94.0471V170.613ZM106.095 180.213H92.6349C93.3935 178.223 93.8678 176.228 94.045 174.233H106.094L106.095 180.213ZM122.407 174.234L122.393 205.949L117.532 201.63C116.781 200.963 115.599 200.963 114.848 201.63L109.988 205.948L109.981 174.233H122.407V174.234ZM82.0372 136.412C82.0372 127.953 89.4286 121.071 98.5139 121.071H164.082C165.813 121.071 167.221 122.383 167.221 123.995C167.221 125.612 165.812 126.927 164.082 126.927H128.251C127.178 126.927 126.307 127.738 126.307 128.738C126.307 129.738 127.178 130.548 128.251 130.548H158.015C156.643 134.443 156.644 138.372 158.02 142.284H98.5139C96.8424 142.284 95.2597 141.671 94.065 140.563C92.8692 139.444 92.2107 137.97 92.2107 136.412C92.2107 133.179 95.0384 130.548 98.5139 130.548H118.681C119.754 130.548 120.625 129.738 120.625 128.738C120.625 127.738 119.754 126.927 118.681 126.927H98.5139C92.8949 126.927 88.3233 131.182 88.3233 136.412C88.3233 138.933 89.3838 141.315 91.3161 143.124C93.2515 144.917 95.8076 145.905 98.5139 145.905H164.082C165.813 145.905 167.221 147.22 167.221 148.837C167.221 150.449 165.812 151.761 164.082 151.761H98.5139C94.1241 151.761 89.9895 150.162 86.8718 147.257C83.7541 144.353 82.0372 140.502 82.0372 136.412V136.412ZM85.0587 161.012C83.3926 161.012 82.0372 159.749 82.0372 158.197C82.0372 156.645 83.3926 155.382 85.0587 155.382H175.955C180.074 155.382 183.425 158.504 183.425 162.341V182.505C183.425 186.343 180.073 189.464 175.955 189.464H126.287L126.29 183.835H172.932C175.385 183.835 177.382 181.975 177.382 179.69V165.157C177.382 162.871 175.385 161.012 172.932 161.012H85.0587V161.012ZM85.0587 183.834H106.096L106.097 189.464H85.059C83.3928 189.464 82.0374 188.201 82.0374 186.649C82.0372 185.097 83.3926 183.834 85.0587 183.834V183.834ZM198.244 227.167H83.8134C79.6988 227.167 76.3512 224.046 76.3512 220.209V200.044C76.3512 196.207 79.6988 193.085 83.8134 193.085H106.098L106.099 198.715H86.8446C84.3909 198.715 82.3948 200.574 82.3948 202.86V217.392C82.3948 219.678 84.3911 221.537 86.8446 221.537H198.244C199.91 221.537 201.266 222.8 201.266 224.352C201.266 225.904 199.91 227.167 198.244 227.167Z" fill="white"/>
<path d="M338.692 135.85C336.456 135.85 334.642 134.16 334.642 132.077V114.472C334.642 112.39 336.456 110.7 338.692 110.7C340.927 110.7 342.742 112.39 342.742 114.472V132.077C342.742 134.16 340.927 135.85 338.692 135.85Z" fill="white"/>
<path d="M365.691 135.85C363.456 135.85 361.642 134.16 361.642 132.077V114.472C361.642 112.39 363.456 110.7 365.691 110.7C367.927 110.7 369.741 112.39 369.741 114.472V132.077C369.741 134.16 367.927 135.85 365.691 135.85Z" fill="white"/>
<path d="M389.991 135.85C387.755 135.85 385.941 134.16 385.941 132.077V114.472C385.941 112.39 387.755 110.7 389.991 110.7C392.226 110.7 394.041 112.39 394.041 114.472V132.077C394.041 134.16 392.226 135.85 389.991 135.85Z" fill="white"/>
<path d="M395.39 203.754H338.692C336.456 203.754 334.642 202.064 334.642 199.981C334.642 197.899 336.456 196.209 338.692 196.209H395.39C397.626 196.209 399.44 197.899 399.44 199.981C399.44 202.064 397.626 203.754 395.39 203.754Z" fill="white"/>
<path d="M395.39 183.634H338.692C336.456 183.634 334.642 181.944 334.642 179.862C334.642 177.779 336.456 176.089 338.692 176.089H395.39C397.626 176.089 399.44 177.779 399.44 179.862C399.44 181.944 397.626 183.634 395.39 183.634Z" fill="white"/>
<path d="M368.391 163.514H338.692C336.456 163.514 334.642 161.824 334.642 159.742C334.642 157.66 336.456 155.969 338.692 155.969H368.391C370.627 155.969 372.441 157.66 372.441 159.742C372.441 161.824 370.627 163.514 368.391 163.514Z" fill="white"/>
<path d="M400.791 231.419H327.893C319.701 231.419 313.043 225.217 313.043 217.586V134.592C313.043 126.962 319.701 120.76 327.893 120.76H400.791C408.982 120.76 415.64 126.962 415.64 134.592V217.586C415.64 225.217 408.982 231.419 400.791 231.419ZM327.893 128.305C324.172 128.305 321.143 131.127 321.143 134.592V217.586C321.143 221.052 324.172 223.874 327.893 223.874H400.791C404.511 223.874 407.54 221.052 407.54 217.586V134.592C407.54 131.127 404.511 128.305 400.791 128.305H327.893Z" fill="white"/>
<defs>
<filter id="filter0_d" x="0" y="0" width="520" height="290" filterUnits="userSpaceOnUse" color-interpolation-filters="sRGB">
<feFlood flood-opacity="0" result="BackgroundImageFix"/>
<feColorMatrix in="SourceAlpha" type="matrix" values="0 0 0 0 0 0 0 0 0 0 0 0 0 0 0 0 0 0 127 0"/>
<feOffset dx="10" dy="10"/>
<feGaussianBlur stdDeviation="5"/>
<feColorMatrix type="matrix" values="0 0 0 0 0 0 0 0 0 0 0 0 0 0 0 0 0 0 0.25 0"/>
<feBlend mode="normal" in2="BackgroundImageFix" result="effect1_dropShadow"/>
<feBlend mode="normal" in="SourceGraphic" in2="effect1_dropShadow" result="shape"/>
</filter>
<linearGradient id="paint0_linear" x1="76.7223" y1="25.5406" x2="581.837" y2="395.92" gradientUnits="userSpaceOnUse">
<stop stop-color="#0071BC"/>
<stop offset="1" stop-color="#1B1464"/>
</linearGradient>
</defs>
</svg>
