<svg width="385" height="234" viewBox="0 0 385 234" fill="none" xmlns="http://www.w3.org/2000/svg">
<g filter="url(#filter0_d)">
<rect width="376" height="225" rx="31" fill="url(#paint0_linear)"/>
</g>
<path d="M33.976 47L28.408 29.24H32.08L36.232 43.16L40.384 29.24H44.032L38.464 47H33.976ZM46.2297 32.216C45.8937 32.216 45.7257 32.056 45.7257 31.736V29.384C45.7257 29.048 45.8937 28.88 46.2297 28.88H48.9657C49.1097 28.88 49.2217 28.928 49.3017 29.024C49.3817 29.12 49.4217 29.24 49.4217 29.384V31.736C49.4217 32.056 49.2697 32.216 48.9657 32.216H46.2297ZM45.7977 47V34.112H49.3497V47H45.7977ZM56.3029 47.144C55.2949 47.144 54.4469 46.936 53.7589 46.52C53.0709 46.088 52.5509 45.4 52.1989 44.456C51.8629 43.496 51.6949 42.24 51.6949 40.688C51.6949 39.088 51.8389 37.792 52.1269 36.8C52.4309 35.808 52.9349 35.08 53.6389 34.616C54.3429 34.152 55.3109 33.92 56.5429 33.92C57.1349 33.92 57.7189 33.984 58.2949 34.112C58.8709 34.224 59.3829 34.36 59.8309 34.52V28.688H63.4069V47H60.4069L59.8309 45.776C59.5589 46.032 59.2229 46.264 58.8229 46.472C58.4389 46.68 58.0309 46.848 57.5989 46.976C57.1669 47.088 56.7349 47.144 56.3029 47.144ZM57.5509 44.288C58.0309 44.288 58.4629 44.208 58.8469 44.048C59.2469 43.888 59.5749 43.728 59.8309 43.568V37.088C59.5109 36.976 59.1749 36.864 58.8229 36.752C58.4709 36.64 58.0949 36.584 57.6949 36.584C57.1029 36.584 56.6229 36.688 56.2549 36.896C55.9029 37.104 55.6469 37.496 55.4869 38.072C55.3269 38.632 55.2469 39.448 55.2469 40.52C55.2469 41.512 55.3189 42.288 55.4629 42.848C55.6229 43.392 55.8709 43.768 56.2069 43.976C56.5429 44.184 56.9909 44.288 57.5509 44.288ZM71.4951 47.12C70.0711 47.12 68.9351 46.936 68.0871 46.568C67.2391 46.184 66.6231 45.512 66.2391 44.552C65.8711 43.592 65.6871 42.264 65.6871 40.568C65.6871 38.824 65.8631 37.472 66.2151 36.512C66.5671 35.552 67.1591 34.88 67.9911 34.496C68.8231 34.112 69.9511 33.92 71.3751 33.92C72.6551 33.92 73.6791 34.048 74.4471 34.304C75.2151 34.56 75.7671 35.008 76.1031 35.648C76.4551 36.288 76.6311 37.192 76.6311 38.36C76.6311 39.224 76.4551 39.912 76.1031 40.424C75.7671 40.92 75.2871 41.28 74.6631 41.504C74.0391 41.712 73.3031 41.816 72.4551 41.816H69.2151C69.2471 42.472 69.3431 43 69.5031 43.4C69.6791 43.784 69.9911 44.064 70.4391 44.24C70.9031 44.4 71.5671 44.48 72.4311 44.48H76.1991V46.568C75.5751 46.696 74.8871 46.824 74.1351 46.952C73.3991 47.064 72.5191 47.12 71.4951 47.12ZM69.1671 39.704H72.0951C72.5751 39.704 72.9271 39.608 73.1511 39.416C73.3751 39.224 73.4871 38.88 73.4871 38.384C73.4871 37.92 73.4151 37.552 73.2711 37.28C73.1271 36.992 72.9031 36.792 72.5991 36.68C72.2951 36.552 71.8871 36.488 71.3751 36.488C70.8311 36.488 70.3991 36.584 70.0791 36.776C69.7591 36.952 69.5271 37.272 69.3831 37.736C69.2391 38.2 69.1671 38.856 69.1671 39.704ZM84.4818 47.12C83.4258 47.12 82.5218 47.016 81.7698 46.808C81.0178 46.584 80.4018 46.216 79.9218 45.704C79.4578 45.192 79.1138 44.512 78.8898 43.664C78.6818 42.816 78.5778 41.768 78.5778 40.52C78.5778 39.208 78.6818 38.128 78.8898 37.28C79.1138 36.416 79.4578 35.744 79.9218 35.264C80.4018 34.768 81.0178 34.424 81.7698 34.232C82.5378 34.024 83.4418 33.92 84.4818 33.92C85.5538 33.92 86.4658 34.024 87.2178 34.232C87.9698 34.44 88.5778 34.792 89.0418 35.288C89.5218 35.768 89.8658 36.44 90.0738 37.304C90.2978 38.152 90.4098 39.224 90.4098 40.52C90.4098 41.8 90.3058 42.872 90.0978 43.736C89.8898 44.584 89.5538 45.256 89.0898 45.752C88.6258 46.248 88.0098 46.6 87.2418 46.808C86.4898 47.016 85.5698 47.12 84.4818 47.12ZM84.4818 44.288C84.9138 44.288 85.2738 44.248 85.5618 44.168C85.8658 44.088 86.1058 43.928 86.2818 43.688C86.4738 43.432 86.6178 43.048 86.7138 42.536C86.8098 42.024 86.8578 41.352 86.8578 40.52C86.8578 39.672 86.8098 39 86.7138 38.504C86.6178 37.992 86.4738 37.616 86.2818 37.376C86.1058 37.12 85.8658 36.952 85.5618 36.872C85.2738 36.792 84.9138 36.752 84.4818 36.752C84.0658 36.752 83.7058 36.792 83.4018 36.872C83.1138 36.952 82.8738 37.12 82.6818 37.376C82.4898 37.616 82.3458 37.992 82.2498 38.504C82.1698 39 82.1298 39.672 82.1298 40.52C82.1298 41.352 82.1698 42.024 82.2498 42.536C82.3458 43.048 82.4898 43.432 82.6818 43.688C82.8738 43.928 83.1138 44.088 83.4018 44.168C83.7058 44.248 84.0658 44.288 84.4818 44.288ZM103.322 47C102.41 47 101.634 46.864 100.994 46.592C100.37 46.304 99.8979 45.856 99.5779 45.248C99.2739 44.624 99.1219 43.808 99.1219 42.8V29.24H102.674V42.224C102.674 42.608 102.738 42.92 102.866 43.16C103.01 43.4 103.202 43.568 103.442 43.664C103.682 43.744 103.954 43.784 104.258 43.784H109.874V47H103.322ZM112.23 32.216C111.894 32.216 111.726 32.056 111.726 31.736V29.384C111.726 29.048 111.894 28.88 112.23 28.88H114.966C115.11 28.88 115.222 28.928 115.302 29.024C115.382 29.12 115.422 29.24 115.422 29.384V31.736C115.422 32.056 115.27 32.216 114.966 32.216H112.23ZM111.798 47V34.112H115.35V47H111.798ZM125.375 47.144C124.815 47.144 124.311 47.08 123.863 46.952C123.415 46.824 123.007 46.656 122.639 46.448C122.287 46.24 121.951 46.016 121.631 45.776L121.055 47H118.079V28.688H121.631V35C122.143 34.728 122.719 34.48 123.359 34.256C123.999 34.032 124.615 33.92 125.207 33.92C126.311 33.92 127.191 34.152 127.847 34.616C128.519 35.08 129.007 35.808 129.311 36.8C129.615 37.776 129.767 39.072 129.767 40.688C129.767 42.128 129.607 43.328 129.287 44.288C128.983 45.248 128.503 45.968 127.847 46.448C127.207 46.912 126.383 47.144 125.375 47.144ZM124.055 44.24C124.471 44.24 124.839 44.136 125.159 43.928C125.495 43.704 125.751 43.32 125.927 42.776C126.119 42.232 126.215 41.48 126.215 40.52C126.215 39.4 126.111 38.584 125.903 38.072C125.711 37.544 125.447 37.2 125.111 37.04C124.791 36.864 124.439 36.776 124.055 36.776C123.575 36.776 123.127 36.856 122.711 37.016C122.311 37.16 121.951 37.32 121.631 37.496V43.616C121.935 43.776 122.279 43.92 122.663 44.048C123.063 44.176 123.527 44.24 124.055 44.24ZM132.118 47V34.112H134.854L135.67 36.08C136.134 35.488 136.654 34.984 137.23 34.568C137.822 34.152 138.518 33.944 139.318 33.944C139.494 33.944 139.67 33.952 139.846 33.968C140.038 33.984 140.214 34.016 140.374 34.064V37.712C140.134 37.68 139.878 37.656 139.606 37.64C139.35 37.608 139.102 37.592 138.862 37.592C138.398 37.592 137.974 37.648 137.59 37.76C137.222 37.856 136.878 38.008 136.558 38.216C136.254 38.408 135.958 38.664 135.67 38.984V47H132.118ZM144.534 47.144C143.558 47.144 142.766 46.856 142.158 46.28C141.55 45.704 141.246 44.904 141.246 43.88V42.728C141.246 41.752 141.59 40.952 142.278 40.328C142.966 39.688 144.038 39.368 145.494 39.368H148.782V38.48C148.782 38.08 148.71 37.752 148.566 37.496C148.422 37.224 148.15 37.032 147.75 36.92C147.366 36.792 146.774 36.728 145.974 36.728H142.11V34.664C142.734 34.472 143.454 34.304 144.27 34.16C145.102 34.016 146.102 33.944 147.27 33.944C148.342 33.944 149.254 34.072 150.006 34.328C150.774 34.584 151.35 35.024 151.734 35.648C152.134 36.272 152.334 37.136 152.334 38.24V47H149.526L148.95 45.632C148.838 45.76 148.646 45.904 148.374 46.064C148.102 46.224 147.766 46.392 147.366 46.568C146.982 46.728 146.542 46.864 146.046 46.976C145.566 47.088 145.062 47.144 144.534 47.144ZM146.334 44.672C146.494 44.672 146.67 44.656 146.862 44.624C147.07 44.576 147.278 44.528 147.486 44.48C147.71 44.416 147.91 44.36 148.086 44.312C148.278 44.248 148.43 44.192 148.542 44.144C148.67 44.096 148.75 44.064 148.782 44.048V41.048L146.622 41.192C145.998 41.24 145.534 41.4 145.23 41.672C144.942 41.944 144.798 42.312 144.798 42.776V43.304C144.798 43.624 144.862 43.888 144.99 44.096C145.134 44.304 145.318 44.456 145.542 44.552C145.782 44.632 146.046 44.672 146.334 44.672ZM154.993 47V34.112H157.729L158.545 36.08C159.009 35.488 159.529 34.984 160.105 34.568C160.697 34.152 161.393 33.944 162.193 33.944C162.369 33.944 162.545 33.952 162.721 33.968C162.913 33.984 163.089 34.016 163.249 34.064V37.712C163.009 37.68 162.753 37.656 162.481 37.64C162.225 37.608 161.977 37.592 161.737 37.592C161.273 37.592 160.849 37.648 160.465 37.76C160.097 37.856 159.753 38.008 159.433 38.216C159.129 38.408 158.833 38.664 158.545 38.984V47H154.993ZM169.173 52.688L170.565 47C169.845 47 169.213 46.864 168.669 46.592C168.125 46.32 167.669 45.936 167.301 45.44C166.949 44.928 166.677 44.296 166.485 43.544L164.061 34.112H167.757L169.797 42.824C169.877 43.128 169.981 43.368 170.109 43.544C170.237 43.72 170.373 43.848 170.517 43.928C170.661 43.992 170.789 44.04 170.901 44.072C171.029 44.088 171.125 44.096 171.189 44.096L173.517 34.112H177.117L173.277 50.312L172.125 52.688H169.173Z" fill="white"/>
<path d="M241.536 193V175.24H249.024C249.6 175.24 250.184 175.312 250.776 175.456C251.384 175.584 251.936 175.856 252.432 176.272C252.944 176.672 253.352 177.28 253.656 178.096C253.976 178.912 254.136 179.992 254.136 181.336C254.136 182.68 253.976 183.768 253.656 184.6C253.352 185.432 252.952 186.064 252.456 186.496C251.96 186.928 251.424 187.216 250.848 187.36C250.272 187.504 249.712 187.576 249.168 187.576C248.88 187.576 248.544 187.568 248.16 187.552C247.776 187.52 247.384 187.48 246.984 187.432C246.6 187.384 246.24 187.344 245.904 187.312C245.568 187.264 245.296 187.224 245.088 187.192V193H241.536ZM245.088 184.384H248.616C249.032 184.384 249.384 184.288 249.672 184.096C249.976 183.888 250.2 183.568 250.344 183.136C250.488 182.688 250.56 182.096 250.56 181.36C250.56 180.64 250.48 180.072 250.32 179.656C250.176 179.224 249.96 178.912 249.672 178.72C249.4 178.528 249.072 178.432 248.688 178.432H245.088V184.384ZM260.642 193C259.73 193 258.954 192.864 258.314 192.592C257.69 192.304 257.218 191.856 256.898 191.248C256.594 190.624 256.442 189.808 256.442 188.8V175.24H259.994V188.224C259.994 188.608 260.058 188.92 260.186 189.16C260.33 189.4 260.522 189.568 260.762 189.664C261.002 189.744 261.274 189.784 261.578 189.784H267.194V193H260.642ZM271.854 193.144C270.878 193.144 270.086 192.856 269.478 192.28C268.87 191.704 268.566 190.904 268.566 189.88V188.728C268.566 187.752 268.91 186.952 269.598 186.328C270.286 185.688 271.358 185.368 272.814 185.368H276.102V184.48C276.102 184.08 276.03 183.752 275.886 183.496C275.742 183.224 275.47 183.032 275.07 182.92C274.686 182.792 274.094 182.728 273.294 182.728H269.43V180.664C270.054 180.472 270.774 180.304 271.59 180.16C272.422 180.016 273.422 179.944 274.59 179.944C275.662 179.944 276.574 180.072 277.326 180.328C278.094 180.584 278.67 181.024 279.054 181.648C279.454 182.272 279.654 183.136 279.654 184.24V193H276.846L276.27 191.632C276.158 191.76 275.966 191.904 275.694 192.064C275.422 192.224 275.086 192.392 274.686 192.568C274.302 192.728 273.862 192.864 273.366 192.976C272.886 193.088 272.382 193.144 271.854 193.144ZM273.654 190.672C273.814 190.672 273.99 190.656 274.182 190.624C274.39 190.576 274.598 190.528 274.806 190.48C275.03 190.416 275.23 190.36 275.406 190.312C275.598 190.248 275.75 190.192 275.862 190.144C275.99 190.096 276.07 190.064 276.102 190.048V187.048L273.942 187.192C273.318 187.24 272.854 187.4 272.55 187.672C272.262 187.944 272.118 188.312 272.118 188.776V189.304C272.118 189.624 272.182 189.888 272.31 190.096C272.454 190.304 272.638 190.456 272.862 190.552C273.102 190.632 273.366 190.672 273.654 190.672ZM286.345 198.688L287.737 193C287.017 193 286.385 192.864 285.841 192.592C285.297 192.32 284.841 191.936 284.473 191.44C284.121 190.928 283.849 190.296 283.657 189.544L281.233 180.112H284.929L286.969 188.824C287.049 189.128 287.153 189.368 287.281 189.544C287.409 189.72 287.545 189.848 287.689 189.928C287.833 189.992 287.961 190.04 288.073 190.072C288.201 190.088 288.297 190.096 288.361 190.096L290.689 180.112H294.289L290.449 196.312L289.297 198.688H286.345ZM302.453 193V175.24H305.309L312.749 186.952V175.24H316.301V193H313.445L306.029 181.288V193H302.453ZM324.583 193.12C323.527 193.12 322.623 193.016 321.871 192.808C321.119 192.584 320.503 192.216 320.023 191.704C319.559 191.192 319.215 190.512 318.991 189.664C318.783 188.816 318.679 187.768 318.679 186.52C318.679 185.208 318.783 184.128 318.991 183.28C319.215 182.416 319.559 181.744 320.023 181.264C320.503 180.768 321.119 180.424 321.871 180.232C322.639 180.024 323.543 179.92 324.583 179.92C325.655 179.92 326.567 180.024 327.319 180.232C328.071 180.44 328.679 180.792 329.143 181.288C329.623 181.768 329.967 182.44 330.175 183.304C330.399 184.152 330.511 185.224 330.511 186.52C330.511 187.8 330.407 188.872 330.199 189.736C329.991 190.584 329.655 191.256 329.191 191.752C328.727 192.248 328.111 192.6 327.343 192.808C326.591 193.016 325.671 193.12 324.583 193.12ZM324.583 190.288C325.015 190.288 325.375 190.248 325.663 190.168C325.967 190.088 326.207 189.928 326.383 189.688C326.575 189.432 326.719 189.048 326.815 188.536C326.911 188.024 326.959 187.352 326.959 186.52C326.959 185.672 326.911 185 326.815 184.504C326.719 183.992 326.575 183.616 326.383 183.376C326.207 183.12 325.967 182.952 325.663 182.872C325.375 182.792 325.015 182.752 324.583 182.752C324.167 182.752 323.807 182.792 323.503 182.872C323.215 182.952 322.975 183.12 322.783 183.376C322.591 183.616 322.447 183.992 322.351 184.504C322.271 185 322.231 185.672 322.231 186.52C322.231 187.352 322.271 188.024 322.351 188.536C322.447 189.048 322.591 189.432 322.783 189.688C322.975 189.928 323.215 190.088 323.503 190.168C323.807 190.248 324.167 190.288 324.583 190.288ZM334.727 193L331.319 180.112H334.991L337.031 189.712L339.575 180.112H342.503L345.047 189.712L346.895 180.112H350.567L347.207 193H343.271L340.967 185.152L338.591 193H334.727Z" fill="white"/>
<path d="M32.966 180V169.668H37.166C37.5487 169.668 37.908 169.715 38.244 169.808C38.5893 169.892 38.8927 170.051 39.154 170.284C39.4247 170.517 39.6347 170.844 39.784 171.264C39.9427 171.675 40.022 172.211 40.022 172.874C40.022 173.387 39.9707 173.817 39.868 174.162C39.7653 174.498 39.63 174.773 39.462 174.988C39.294 175.203 39.1027 175.371 38.888 175.492C38.6827 175.604 38.4773 175.697 38.272 175.772L40.26 180H38.51L36.718 176.024C36.5873 176.024 36.4333 176.024 36.256 176.024C36.088 176.024 35.9107 176.024 35.724 176.024C35.5373 176.015 35.3553 176.01 35.178 176.01C35.0007 176.001 34.8373 175.996 34.688 175.996V180H32.966ZM34.688 174.638H36.872C37.0773 174.638 37.264 174.615 37.432 174.568C37.6 174.512 37.7493 174.419 37.88 174.288C38.0107 174.157 38.1087 173.98 38.174 173.756C38.2487 173.532 38.286 173.243 38.286 172.888C38.286 172.543 38.2487 172.263 38.174 172.048C38.1087 171.824 38.0107 171.656 37.88 171.544C37.7493 171.423 37.5953 171.339 37.418 171.292C37.25 171.245 37.068 171.222 36.872 171.222H34.688V174.638ZM44.4929 180.07C43.6809 180.07 43.0323 179.958 42.5469 179.734C42.0709 179.51 41.7256 179.123 41.5109 178.572C41.2963 178.012 41.1889 177.237 41.1889 176.248C41.1889 175.24 41.2916 174.461 41.4969 173.91C41.7023 173.35 42.0429 172.958 42.5189 172.734C42.9949 172.51 43.6389 172.398 44.4509 172.398C45.1696 172.398 45.7436 172.473 46.1729 172.622C46.6116 172.762 46.9289 173.019 47.1249 173.392C47.3303 173.756 47.4329 174.274 47.4329 174.946C47.4329 175.422 47.3396 175.805 47.1529 176.094C46.9663 176.374 46.6956 176.575 46.3409 176.696C45.9956 176.817 45.5849 176.878 45.1089 176.878H42.9109C42.9296 177.345 42.9903 177.718 43.0929 177.998C43.2049 178.269 43.4009 178.465 43.6809 178.586C43.9703 178.707 44.3903 178.768 44.9409 178.768H47.2089V179.79C46.8263 179.865 46.4203 179.93 45.9909 179.986C45.5709 180.042 45.0716 180.07 44.4929 180.07ZM42.8969 175.828H44.9409C45.2676 175.828 45.5056 175.767 45.6549 175.646C45.8136 175.515 45.8929 175.282 45.8929 174.946C45.8929 174.619 45.8463 174.363 45.7529 174.176C45.6596 173.989 45.5056 173.859 45.2909 173.784C45.0763 173.7 44.7963 173.658 44.4509 173.658C44.0589 173.658 43.7509 173.719 43.5269 173.84C43.3029 173.961 43.1396 174.181 43.0369 174.498C42.9436 174.806 42.8969 175.249 42.8969 175.828ZM51.8438 180.084C51.3958 180.084 50.9805 180.028 50.5978 179.916C50.2245 179.795 49.8978 179.594 49.6178 179.314C49.3378 179.025 49.1185 178.633 48.9598 178.138C48.8105 177.643 48.7358 177.023 48.7358 176.276C48.7358 175.511 48.8058 174.876 48.9458 174.372C49.0951 173.868 49.3051 173.471 49.5758 173.182C49.8465 172.893 50.1731 172.692 50.5558 172.58C50.9478 172.459 51.3911 172.398 51.8858 172.398C52.3058 172.398 52.7305 172.421 53.1598 172.468C53.5891 172.505 54.0185 172.58 54.4478 172.692V173.686H52.4038C51.9558 173.686 51.5918 173.756 51.3118 173.896C51.0318 174.036 50.8218 174.293 50.6818 174.666C50.5418 175.039 50.4718 175.576 50.4718 176.276C50.4718 176.967 50.5418 177.494 50.6818 177.858C50.8218 178.213 51.0318 178.455 51.3118 178.586C51.6011 178.707 51.9698 178.768 52.4178 178.768H54.5598V179.748C54.3358 179.813 54.0745 179.874 53.7758 179.93C53.4771 179.977 53.1598 180.014 52.8238 180.042C52.4971 180.07 52.1705 180.084 51.8438 180.084ZM58.9731 180.07C58.3851 180.07 57.8764 180.009 57.4471 179.888C57.0177 179.767 56.6677 179.561 56.3971 179.272C56.1264 178.983 55.9257 178.591 55.7951 178.096C55.6644 177.601 55.5991 176.981 55.5991 176.234C55.5991 175.459 55.6644 174.825 55.7951 174.33C55.9257 173.826 56.1264 173.434 56.3971 173.154C56.6771 172.865 57.0317 172.669 57.4611 172.566C57.8904 172.454 58.3944 172.398 58.9731 172.398C59.5704 172.398 60.0837 172.459 60.5131 172.58C60.9424 172.692 61.2924 172.888 61.5631 173.168C61.8337 173.448 62.0344 173.84 62.1651 174.344C62.2957 174.839 62.3611 175.469 62.3611 176.234C62.3611 176.99 62.2957 177.62 62.1651 178.124C62.0437 178.619 61.8477 179.011 61.5771 179.3C61.3064 179.58 60.9564 179.781 60.5271 179.902C60.0977 180.014 59.5797 180.07 58.9731 180.07ZM58.9731 178.684C59.2624 178.684 59.5097 178.661 59.7151 178.614C59.9204 178.558 60.0884 178.451 60.2191 178.292C60.3591 178.124 60.4617 177.877 60.5271 177.55C60.5924 177.214 60.6251 176.771 60.6251 176.22C60.6251 175.679 60.5924 175.245 60.5271 174.918C60.4617 174.591 60.3591 174.349 60.2191 174.19C60.0884 174.022 59.9204 173.915 59.7151 173.868C59.5097 173.812 59.2624 173.784 58.9731 173.784C58.6931 173.784 58.4504 173.812 58.2451 173.868C58.0397 173.915 57.8717 174.022 57.7411 174.19C57.6104 174.349 57.5077 174.591 57.4331 174.918C57.3677 175.245 57.3351 175.679 57.3351 176.22C57.3351 176.771 57.3677 177.214 57.4331 177.55C57.5077 177.877 57.6104 178.124 57.7411 178.292C57.8717 178.451 58.0397 178.558 58.2451 178.614C58.4504 178.661 58.6931 178.684 58.9731 178.684ZM63.9035 180V172.496H65.2475L65.6395 173.7C65.9382 173.336 66.2695 173.028 66.6335 172.776C66.9975 172.524 67.4315 172.398 67.9355 172.398C68.0382 172.398 68.1455 172.407 68.2575 172.426C68.3695 172.435 68.4722 172.454 68.5655 172.482V174.246C68.4348 174.227 68.2948 174.213 68.1455 174.204C67.9962 174.195 67.8515 174.19 67.7115 174.19C67.4222 174.19 67.1562 174.223 66.9135 174.288C66.6802 174.353 66.4608 174.456 66.2555 174.596C66.0502 174.727 65.8448 174.895 65.6395 175.1V180H63.9035ZM72.2187 180.084C71.6307 180.084 71.1361 179.958 70.7347 179.706C70.3334 179.445 70.0301 179.039 69.8247 178.488C69.6287 177.928 69.5307 177.205 69.5307 176.318C69.5307 175.385 69.6194 174.633 69.7967 174.064C69.9741 173.485 70.2681 173.065 70.6787 172.804C71.0987 172.533 71.6587 172.398 72.3587 172.398C72.7321 172.398 73.1007 172.435 73.4647 172.51C73.8287 172.585 74.1461 172.673 74.4167 172.776V169.318H76.1527V180H74.7107L74.4167 179.272C74.2674 179.412 74.0667 179.543 73.8147 179.664C73.5721 179.785 73.3107 179.888 73.0307 179.972C72.7601 180.047 72.4894 180.084 72.2187 180.084ZM72.8067 178.684C73.1427 178.684 73.4461 178.633 73.7167 178.53C73.9874 178.418 74.2207 178.306 74.4167 178.194V174.022C74.1834 173.938 73.9454 173.863 73.7027 173.798C73.4601 173.733 73.1941 173.7 72.9047 173.7C72.5127 173.7 72.1954 173.775 71.9527 173.924C71.7101 174.064 71.5327 174.316 71.4207 174.68C71.3181 175.044 71.2667 175.562 71.2667 176.234C71.2667 176.859 71.3181 177.354 71.4207 177.718C71.5234 178.073 71.6867 178.325 71.9107 178.474C72.1441 178.614 72.4427 178.684 72.8067 178.684ZM80.9558 180.07C80.1438 180.07 79.4951 179.958 79.0098 179.734C78.5338 179.51 78.1885 179.123 77.9738 178.572C77.7591 178.012 77.6518 177.237 77.6518 176.248C77.6518 175.24 77.7545 174.461 77.9598 173.91C78.1651 173.35 78.5058 172.958 78.9818 172.734C79.4578 172.51 80.1018 172.398 80.9138 172.398C81.6325 172.398 82.2065 172.473 82.6358 172.622C83.0745 172.762 83.3918 173.019 83.5878 173.392C83.7931 173.756 83.8958 174.274 83.8958 174.946C83.8958 175.422 83.8025 175.805 83.6158 176.094C83.4291 176.374 83.1585 176.575 82.8038 176.696C82.4585 176.817 82.0478 176.878 81.5718 176.878H79.3738C79.3925 177.345 79.4531 177.718 79.5558 177.998C79.6678 178.269 79.8638 178.465 80.1438 178.586C80.4331 178.707 80.8531 178.768 81.4038 178.768H83.6718V179.79C83.2891 179.865 82.8831 179.93 82.4538 179.986C82.0338 180.042 81.5345 180.07 80.9558 180.07ZM79.3598 175.828H81.4038C81.7305 175.828 81.9685 175.767 82.1178 175.646C82.2765 175.515 82.3558 175.282 82.3558 174.946C82.3558 174.619 82.3091 174.363 82.2158 174.176C82.1225 173.989 81.9685 173.859 81.7538 173.784C81.5391 173.7 81.2591 173.658 80.9138 173.658C80.5218 173.658 80.2138 173.719 79.9898 173.84C79.7658 173.961 79.6025 174.181 79.4998 174.498C79.4065 174.806 79.3598 175.249 79.3598 175.828ZM87.8867 180.084C87.2987 180.084 86.804 179.958 86.4027 179.706C86.0014 179.445 85.698 179.039 85.4927 178.488C85.2967 177.928 85.1987 177.205 85.1987 176.318C85.1987 175.385 85.2874 174.633 85.4647 174.064C85.642 173.485 85.936 173.065 86.3467 172.804C86.7667 172.533 87.3267 172.398 88.0267 172.398C88.4 172.398 88.7687 172.435 89.1327 172.51C89.4967 172.585 89.814 172.673 90.0847 172.776V169.318H91.8207V180H90.3787L90.0847 179.272C89.9354 179.412 89.7347 179.543 89.4827 179.664C89.24 179.785 88.9787 179.888 88.6987 179.972C88.428 180.047 88.1574 180.084 87.8867 180.084ZM88.4747 178.684C88.8107 178.684 89.114 178.633 89.3847 178.53C89.6554 178.418 89.8887 178.306 90.0847 178.194V174.022C89.8514 173.938 89.6134 173.863 89.3707 173.798C89.128 173.733 88.862 173.7 88.5727 173.7C88.1807 173.7 87.8634 173.775 87.6207 173.924C87.378 174.064 87.2007 174.316 87.0887 174.68C86.986 175.044 86.9347 175.562 86.9347 176.234C86.9347 176.859 86.986 177.354 87.0887 177.718C87.1914 178.073 87.3547 178.325 87.5787 178.474C87.812 178.614 88.1107 178.684 88.4747 178.684ZM100.022 180L96.6618 169.668H98.4538L101.114 178.138L103.774 169.668H105.566L102.206 180H100.022ZM106.975 171.306C106.798 171.306 106.709 171.222 106.709 171.054V169.78C106.709 169.593 106.798 169.5 106.975 169.5H108.291C108.375 169.5 108.436 169.528 108.473 169.584C108.52 169.64 108.543 169.705 108.543 169.78V171.054C108.543 171.222 108.459 171.306 108.291 171.306H106.975ZM106.751 180V172.496H108.487V180H106.751ZM112.715 180.084C112.127 180.084 111.632 179.958 111.231 179.706C110.829 179.445 110.526 179.039 110.321 178.488C110.125 177.928 110.027 177.205 110.027 176.318C110.027 175.385 110.115 174.633 110.293 174.064C110.47 173.485 110.764 173.065 111.175 172.804C111.595 172.533 112.155 172.398 112.855 172.398C113.228 172.398 113.597 172.435 113.961 172.51C114.325 172.585 114.642 172.673 114.913 172.776V169.318H116.649V180H115.207L114.913 179.272C114.763 179.412 114.563 179.543 114.311 179.664C114.068 179.785 113.807 179.888 113.527 179.972C113.256 180.047 112.985 180.084 112.715 180.084ZM113.303 178.684C113.639 178.684 113.942 178.633 114.213 178.53C114.483 178.418 114.717 178.306 114.913 178.194V174.022C114.679 173.938 114.441 173.863 114.199 173.798C113.956 173.733 113.69 173.7 113.401 173.7C113.009 173.7 112.691 173.775 112.449 173.924C112.206 174.064 112.029 174.316 111.917 174.68C111.814 175.044 111.763 175.562 111.763 176.234C111.763 176.859 111.814 177.354 111.917 177.718C112.019 178.073 112.183 178.325 112.407 178.474C112.64 178.614 112.939 178.684 113.303 178.684ZM121.452 180.07C120.64 180.07 119.991 179.958 119.506 179.734C119.03 179.51 118.685 179.123 118.47 178.572C118.255 178.012 118.148 177.237 118.148 176.248C118.148 175.24 118.251 174.461 118.456 173.91C118.661 173.35 119.002 172.958 119.478 172.734C119.954 172.51 120.598 172.398 121.41 172.398C122.129 172.398 122.703 172.473 123.132 172.622C123.571 172.762 123.888 173.019 124.084 173.392C124.289 173.756 124.392 174.274 124.392 174.946C124.392 175.422 124.299 175.805 124.112 176.094C123.925 176.374 123.655 176.575 123.3 176.696C122.955 176.817 122.544 176.878 122.068 176.878H119.87C119.889 177.345 119.949 177.718 120.052 177.998C120.164 178.269 120.36 178.465 120.64 178.586C120.929 178.707 121.349 178.768 121.9 178.768H124.168V179.79C123.785 179.865 123.379 179.93 122.95 179.986C122.53 180.042 122.031 180.07 121.452 180.07ZM119.856 175.828H121.9C122.227 175.828 122.465 175.767 122.614 175.646C122.773 175.515 122.852 175.282 122.852 174.946C122.852 174.619 122.805 174.363 122.712 174.176C122.619 173.989 122.465 173.859 122.25 173.784C122.035 173.7 121.755 173.658 121.41 173.658C121.018 173.658 120.71 173.719 120.486 173.84C120.262 173.961 120.099 174.181 119.996 174.498C119.903 174.806 119.856 175.249 119.856 175.828ZM129.069 180.07C128.481 180.07 127.972 180.009 127.543 179.888C127.113 179.767 126.763 179.561 126.493 179.272C126.222 178.983 126.021 178.591 125.891 178.096C125.76 177.601 125.695 176.981 125.695 176.234C125.695 175.459 125.76 174.825 125.891 174.33C126.021 173.826 126.222 173.434 126.493 173.154C126.773 172.865 127.127 172.669 127.557 172.566C127.986 172.454 128.49 172.398 129.069 172.398C129.666 172.398 130.179 172.459 130.609 172.58C131.038 172.692 131.388 172.888 131.659 173.168C131.929 173.448 132.13 173.84 132.261 174.344C132.391 174.839 132.457 175.469 132.457 176.234C132.457 176.99 132.391 177.62 132.261 178.124C132.139 178.619 131.943 179.011 131.673 179.3C131.402 179.58 131.052 179.781 130.623 179.902C130.193 180.014 129.675 180.07 129.069 180.07ZM129.069 178.684C129.358 178.684 129.605 178.661 129.811 178.614C130.016 178.558 130.184 178.451 130.315 178.292C130.455 178.124 130.557 177.877 130.623 177.55C130.688 177.214 130.721 176.771 130.721 176.22C130.721 175.679 130.688 175.245 130.623 174.918C130.557 174.591 130.455 174.349 130.315 174.19C130.184 174.022 130.016 173.915 129.811 173.868C129.605 173.812 129.358 173.784 129.069 173.784C128.789 173.784 128.546 173.812 128.341 173.868C128.135 173.915 127.967 174.022 127.837 174.19C127.706 174.349 127.603 174.591 127.529 174.918C127.463 175.245 127.431 175.679 127.431 176.22C127.431 176.771 127.463 177.214 127.529 177.55C127.603 177.877 127.706 178.124 127.837 178.292C127.967 178.451 128.135 178.558 128.341 178.614C128.546 178.661 128.789 178.684 129.069 178.684ZM38.9401 199C38.4547 199 38.0347 198.925 37.6801 198.776C37.3347 198.627 37.0734 198.384 36.8961 198.048C36.7187 197.703 36.6301 197.25 36.6301 196.69V188.668H38.3521V196.41C38.3521 196.671 38.3987 196.881 38.4921 197.04C38.5854 197.189 38.7067 197.292 38.8561 197.348C39.0147 197.404 39.1874 197.432 39.3741 197.432H42.8041V199H38.9401ZM47.0906 199.07C46.2786 199.07 45.6299 198.958 45.1446 198.734C44.6686 198.51 44.3232 198.123 44.1086 197.572C43.8939 197.012 43.7866 196.237 43.7866 195.248C43.7866 194.24 43.8892 193.461 44.0946 192.91C44.2999 192.35 44.6406 191.958 45.1166 191.734C45.5926 191.51 46.2366 191.398 47.0486 191.398C47.7672 191.398 48.3412 191.473 48.7706 191.622C49.2092 191.762 49.5266 192.019 49.7226 192.392C49.9279 192.756 50.0306 193.274 50.0306 193.946C50.0306 194.422 49.9372 194.805 49.7506 195.094C49.5639 195.374 49.2932 195.575 48.9386 195.696C48.5932 195.817 48.1826 195.878 47.7066 195.878H45.5086C45.5272 196.345 45.5879 196.718 45.6906 196.998C45.8026 197.269 45.9986 197.465 46.2786 197.586C46.5679 197.707 46.9879 197.768 47.5386 197.768H49.8066V198.79C49.4239 198.865 49.0179 198.93 48.5886 198.986C48.1686 199.042 47.6692 199.07 47.0906 199.07ZM45.4946 194.828H47.5386C47.8652 194.828 48.1032 194.767 48.2526 194.646C48.4112 194.515 48.4906 194.282 48.4906 193.946C48.4906 193.619 48.4439 193.363 48.3506 193.176C48.2572 192.989 48.1032 192.859 47.8886 192.784C47.6739 192.7 47.3939 192.658 47.0486 192.658C46.6566 192.658 46.3486 192.719 46.1246 192.84C45.9006 192.961 45.7372 193.181 45.6346 193.498C45.5412 193.806 45.4946 194.249 45.4946 194.828ZM54.4415 199.084C53.9935 199.084 53.5781 199.028 53.1955 198.916C52.8221 198.795 52.4955 198.594 52.2155 198.314C51.9355 198.025 51.7161 197.633 51.5575 197.138C51.4081 196.643 51.3335 196.023 51.3335 195.276C51.3335 194.511 51.4035 193.876 51.5435 193.372C51.6928 192.868 51.9028 192.471 52.1735 192.182C52.4441 191.893 52.7708 191.692 53.1535 191.58C53.5455 191.459 53.9888 191.398 54.4835 191.398C54.9035 191.398 55.3281 191.421 55.7575 191.468C56.1868 191.505 56.6161 191.58 57.0455 191.692V192.686H55.0015C54.5535 192.686 54.1895 192.756 53.9095 192.896C53.6295 193.036 53.4195 193.293 53.2795 193.666C53.1395 194.039 53.0695 194.576 53.0695 195.276C53.0695 195.967 53.1395 196.494 53.2795 196.858C53.4195 197.213 53.6295 197.455 53.9095 197.586C54.1988 197.707 54.5675 197.768 55.0155 197.768H57.1575V198.748C56.9335 198.813 56.6721 198.874 56.3735 198.93C56.0748 198.977 55.7575 199.014 55.4215 199.042C55.0948 199.07 54.7681 199.084 54.4415 199.084ZM61.1647 199C60.6234 199 60.1801 198.921 59.8347 198.762C59.4894 198.594 59.2374 198.319 59.0787 197.936C58.9294 197.553 58.8594 197.049 58.8687 196.424L58.9247 192.896H57.7487V191.776L58.9807 191.496L59.2327 189.396H60.5907V191.496H62.4947V192.896H60.5907V196.41C60.5907 196.653 60.6141 196.853 60.6607 197.012C60.7074 197.161 60.7727 197.283 60.8567 197.376C60.9501 197.46 61.0481 197.521 61.1507 197.558C61.2534 197.595 61.3607 197.619 61.4727 197.628L62.4107 197.726V199H61.1647ZM65.9368 199.084C65.2461 199.084 64.7094 198.893 64.3268 198.51C63.9441 198.118 63.7528 197.549 63.7528 196.802V191.496H65.4888V196.298C65.4888 196.793 65.6008 197.124 65.8248 197.292C66.0581 197.46 66.3708 197.544 66.7628 197.544C67.0894 197.544 67.4068 197.493 67.7148 197.39C68.0228 197.287 68.3121 197.138 68.5828 196.942V191.496H70.3188V199H68.9048L68.5828 198.216C68.2281 198.44 67.8221 198.641 67.3648 198.818C66.9168 198.995 66.4408 199.084 65.9368 199.084ZM72.0656 199V191.496H73.4096L73.8016 192.7C74.1003 192.336 74.4316 192.028 74.7956 191.776C75.1596 191.524 75.5936 191.398 76.0976 191.398C76.2003 191.398 76.3076 191.407 76.4196 191.426C76.5316 191.435 76.6343 191.454 76.7276 191.482V193.246C76.5969 193.227 76.4569 193.213 76.3076 193.204C76.1583 193.195 76.0136 193.19 75.8736 193.19C75.5843 193.19 75.3183 193.223 75.0756 193.288C74.8423 193.353 74.6229 193.456 74.4176 193.596C74.2123 193.727 74.0069 193.895 73.8016 194.1V199H72.0656ZM80.9968 199.07C80.1848 199.07 79.5362 198.958 79.0508 198.734C78.5748 198.51 78.2295 198.123 78.0148 197.572C77.8002 197.012 77.6928 196.237 77.6928 195.248C77.6928 194.24 77.7955 193.461 78.0008 192.91C78.2062 192.35 78.5468 191.958 79.0228 191.734C79.4988 191.51 80.1428 191.398 80.9548 191.398C81.6735 191.398 82.2475 191.473 82.6768 191.622C83.1155 191.762 83.4328 192.019 83.6288 192.392C83.8342 192.756 83.9368 193.274 83.9368 193.946C83.9368 194.422 83.8435 194.805 83.6568 195.094C83.4702 195.374 83.1995 195.575 82.8448 195.696C82.4995 195.817 82.0888 195.878 81.6128 195.878H79.4148C79.4335 196.345 79.4942 196.718 79.5968 196.998C79.7088 197.269 79.9048 197.465 80.1848 197.586C80.4742 197.707 80.8942 197.768 81.4448 197.768H83.7128V198.79C83.3302 198.865 82.9242 198.93 82.4948 198.986C82.0748 199.042 81.5755 199.07 80.9968 199.07ZM79.4008 194.828H81.4448C81.7715 194.828 82.0095 194.767 82.1588 194.646C82.3175 194.515 82.3968 194.282 82.3968 193.946C82.3968 193.619 82.3502 193.363 82.2568 193.176C82.1635 192.989 82.0095 192.859 81.7948 192.784C81.5802 192.7 81.3002 192.658 80.9548 192.658C80.5628 192.658 80.2548 192.719 80.0308 192.84C79.8068 192.961 79.6435 193.181 79.5408 193.498C79.4475 193.806 79.4008 194.249 79.4008 194.828ZM88.1657 199.084C87.951 199.084 87.7037 199.075 87.4237 199.056C87.153 199.047 86.8777 199.028 86.5977 199C86.327 198.981 86.075 198.953 85.8417 198.916C85.6084 198.879 85.417 198.837 85.2677 198.79V197.768H88.5017C88.735 197.768 88.931 197.749 89.0897 197.712C89.2577 197.675 89.3837 197.6 89.4677 197.488C89.5517 197.376 89.5937 197.208 89.5937 196.984V196.718C89.5937 196.485 89.5144 196.303 89.3557 196.172C89.2064 196.032 88.9404 195.962 88.5577 195.962H87.4237C86.985 195.962 86.593 195.901 86.2477 195.78C85.9117 195.659 85.6457 195.453 85.4497 195.164C85.2537 194.875 85.1557 194.483 85.1557 193.988V193.568C85.1557 193.092 85.2444 192.7 85.4217 192.392C85.6084 192.075 85.9117 191.837 86.3317 191.678C86.761 191.51 87.3304 191.426 88.0397 191.426C88.3384 191.426 88.6604 191.44 89.0057 191.468C89.351 191.496 89.6824 191.533 89.9997 191.58C90.317 191.617 90.569 191.664 90.7557 191.72V192.742H87.7037C87.3584 192.742 87.0924 192.803 86.9057 192.924C86.7284 193.036 86.6397 193.251 86.6397 193.568V193.834C86.6397 194.039 86.6817 194.193 86.7657 194.296C86.8497 194.399 86.9757 194.469 87.1437 194.506C87.3117 194.543 87.5124 194.562 87.7457 194.562H88.9077C89.645 194.562 90.191 194.73 90.5457 195.066C90.9004 195.402 91.0777 195.878 91.0777 196.494V197.11C91.0777 197.614 90.961 198.011 90.7277 198.3C90.4944 198.589 90.1584 198.795 89.7197 198.916C89.2904 199.028 88.7724 199.084 88.1657 199.084Z" fill="white"/>
<path d="M221.75 92.4375H215C214.402 92.434 213.827 92.6656 213.403 93.0809L209.577 96.875H206V94.6562C206 90.9801 202.978 88 199.25 88H158.75C155.022 88 152 90.9801 152 94.6562V130.156C152 133.832 155.022 136.812 158.75 136.812H199.25C202.978 136.812 206 133.832 206 130.156V127.938H209.577L213.425 131.732C213.844 132.141 214.41 132.373 215 132.375H221.75C222.993 132.375 224 131.382 224 130.156V94.6562C224 93.4308 222.993 92.4375 221.75 92.4375ZM219.5 127.938H215.923L212.075 124.143C211.656 123.734 211.09 123.502 210.5 123.5H203.75C202.507 123.5 201.5 124.493 201.5 125.719V130.156C201.5 131.382 200.493 132.375 199.25 132.375H158.75C157.507 132.375 156.5 131.382 156.5 130.156V94.6562C156.5 93.4308 157.507 92.4375 158.75 92.4375H199.25C200.493 92.4375 201.5 93.4308 201.5 94.6562V116.844H206V101.312H210.5C211.098 101.316 211.673 101.084 212.097 100.669L215.923 96.875H219.5V127.938Z" fill="white"/>
<defs>
<filter id="filter0_d" x="0" y="0" width="385" height="234" filterUnits="userSpaceOnUse" color-interpolation-filters="sRGB">
<feFlood flood-opacity="0" result="BackgroundImageFix"/>
<feColorMatrix in="SourceAlpha" type="matrix" values="0 0 0 0 0 0 0 0 0 0 0 0 0 0 0 0 0 0 127 0"/>
<feOffset dx="5" dy="5"/>
<feGaussianBlur stdDeviation="2"/>
<feColorMatrix type="matrix" values="0 0 0 0 0 0 0 0 0 0 0 0 0 0 0 0 0 0 0.25 0"/>
<feBlend mode="normal" in2="BackgroundImageFix" result="effect1_dropShadow"/>
<feBlend mode="normal" in="SourceGraphic" in2="effect1_dropShadow" result="shape"/>
</filter>
<linearGradient id="paint0_linear" x1="57.6952" y1="21.2838" x2="463.914" y2="290.076" gradientUnits="userSpaceOnUse">
<stop stop-color="#0071BC"/>
<stop offset="1" stop-color="#1B1464"/>
</linearGradient>
</defs>
</svg>
